  0
SECTION
  2
HEADER
  9
$ACADVER
  1
AC1024
  9
$ACADMAINTVER
 70
6
  9
$DWGCODEPAGE
  3
ANSI_1252
  9
$LASTSAVEDBY
  1
ezdxf
  9
$INSBASE
 10
0.0
 20
0.0
 30
0.0
  9
$EXTMIN
 10
1e+20
 20
1e+20
 30
1e+20
  9
$EXTMAX
 10
-1e+20
 20
-1e+20
 30
-1e+20
  9
$LIMMIN
 10
0.0
 20
0.0
  9
$LIMMAX
 10
420.0
 20
297.0
  9
$ORTHOMODE
 70
0
  9
$REGENMODE
 70
1
  9
$FILLMODE
 70
1
  9
$QTEXTMODE
 70
0
  9
$MIRRTEXT
 70
1
  9
$LTSCALE
 40
1.0
  9
$ATTMODE
 70
1
  9
$TEXTSIZE
 40
2.5
  9
$TRACEWID
 40
1.0
  9
$TEXTSTYLE
  7
Standard
  9
$CLAYER
  8
0
  9
$CELTYPE
  6
ByLayer
  9
$CECOLOR
 62
256
  9
$CELTSCALE
 40
1.0
  9
$DISPSILH
 70
0
  9
$DIMSCALE
 40
1.0
  9
$DIMASZ
 40
2.5
  9
$DIMEXO
 40
0.625
  9
$DIMDLI
 40
3.75
  9
$DIMRND
 40
0.0
  9
$DIMDLE
 40
0.0
  9
$DIMEXE
 40
1.25
  9
$DIMTP
 40
0.0
  9
$DIMTM
 40
0.0
  9
$DIMTXT
 40
2.5
  9
$DIMCEN
 40
2.5
  9
$DIMTSZ
 40
0.0
  9
$DIMTOL
 70
0
  9
$DIMLIM
 70
0
  9
$DIMTIH
 70
0
  9
$DIMTOH
 70
0
  9
$DIMSE1
 70
0
  9
$DIMSE2
 70
0
  9
$DIMTAD
 70
1
  9
$DIMZIN
 70
8
  9
$DIMBLK
  1

  9
$DIMASO
 70
1
  9
$DIMSHO
 70
1
  9
$DIMPOST
  1

  9
$DIMAPOST
  1

  9
$DIMALT
 70
0
  9
$DIMALTD
 70
3
  9
$DIMALTF
 40
0.03937007874
  9
$DIMLFAC
 40
1.0
  9
$DIMTOFL
 70
1
  9
$DIMTVP
 40
0.0
  9
$DIMTIX
 70
0
  9
$DIMSOXD
 70
0
  9
$DIMSAH
 70
0
  9
$DIMBLK1
  1

  9
$DIMBLK2
  1

  9
$DIMSTYLE
  2
ISO-25
  9
$DIMCLRD
 70
0
  9
$DIMCLRE
 70
0
  9
$DIMCLRT
 70
0
  9
$DIMTFAC
 40
1.0
  9
$DIMGAP
 40
0.625
  9
$DIMJUST
 70
0
  9
$DIMSD1
 70
0
  9
$DIMSD2
 70
0
  9
$DIMTOLJ
 70
0
  9
$DIMTZIN
 70
8
  9
$DIMALTZ
 70
0
  9
$DIMALTTZ
 70
0
  9
$DIMUPT
 70
0
  9
$DIMDEC
 70
2
  9
$DIMTDEC
 70
2
  9
$DIMALTU
 70
2
  9
$DIMALTTD
 70
3
  9
$DIMTXSTY
  7
Standard
  9
$DIMAUNIT
 70
0
  9
$DIMADEC
 70
0
  9
$DIMALTRND
 40
0.0
  9
$DIMAZIN
 70
0
  9
$DIMDSEP
 70
44
  9
$DIMATFIT
 70
3
  9
$DIMFRAC
 70
0
  9
$DIMLDRBLK
  1

  9
$DIMLUNIT
 70
2
  9
$DIMLWD
 70
-2
  9
$DIMLWE
 70
-2
  9
$DIMTMOVE
 70
0
  9
$DIMFXL
 40
1.0
  9
$DIMFXLON
 70
0
  9
$DIMJOGANG
 40
0.785398163397
  9
$DIMTFILL
 70
0
  9
$DIMTFILLCLR
 70
0
  9
$DIMARCSYM
 70
0
  9
$DIMLTYPE
  6

  9
$DIMLTEX1
  6

  9
$DIMLTEX2
  6

  9
$DIMTXTDIRECTION
 70
0
  9
$LUNITS
 70
2
  9
$LUPREC
 70
4
  9
$SKETCHINC
 40
1.0
  9
$FILLETRAD
 40
10.0
  9
$AUNITS
 70
0
  9
$AUPREC
 70
2
  9
$MENU
  1
.
  9
$ELEVATION
 40
0.0
  9
$PELEVATION
 40
0.0
  9
$THICKNESS
 40
0.0
  9
$LIMCHECK
 70
0
  9
$CHAMFERA
 40
0.0
  9
$CHAMFERB
 40
0.0
  9
$CHAMFERC
 40
0.0
  9
$CHAMFERD
 40
0.0
  9
$SKPOLY
 70
0
  9
$TDCREATE
 40
2460689.751354167
  9
$TDUCREATE
 40
2458532.153996898
  9
$TDUPDATE
 40
2460689.751365741
  9
$TDUUPDATE
 40
2458532.1544311
  9
$TDINDWG
 40
0.0
  9
$TDUSRTIMER
 40
0.0
  9
$USRTIMER
 70
1
  9
$ANGBASE
 50
0.0
  9
$ANGDIR
 70
0
  9
$PDMODE
 70
0
  9
$PDSIZE
 40
0.0
  9
$PLINEWID
 40
0.0
  9
$SPLFRAME
 70
0
  9
$SPLINETYPE
 70
6
  9
$SPLINESEGS
 70
8
  9
$HANDSEED
  5
744
  9
$SURFTAB1
 70
6
  9
$SURFTAB2
 70
6
  9
$SURFTYPE
 70
6
  9
$SURFU
 70
6
  9
$SURFV
 70
6
  9
$UCSBASE
  2

  9
$UCSNAME
  2

  9
$UCSORG
 10
0.0
 20
0.0
 30
0.0
  9
$UCSXDIR
 10
1.0
 20
0.0
 30
0.0
  9
$UCSYDIR
 10
0.0
 20
1.0
 30
0.0
  9
$UCSORTHOREF
  2

  9
$UCSORTHOVIEW
 70
0
  9
$UCSORGTOP
 10
0.0
 20
0.0
 30
0.0
  9
$UCSORGBOTTOM
 10
0.0
 20
0.0
 30
0.0
  9
$UCSORGLEFT
 10
0.0
 20
0.0
 30
0.0
  9
$UCSORGRIGHT
 10
0.0
 20
0.0
 30
0.0
  9
$UCSORGFRONT
 10
0.0
 20
0.0
 30
0.0
  9
$UCSORGBACK
 10
0.0
 20
0.0
 30
0.0
  9
$PUCSBASE
  2

  9
$PUCSNAME
  2

  9
$PUCSORG
 10
0.0
 20
0.0
 30
0.0
  9
$PUCSXDIR
 10
1.0
 20
0.0
 30
0.0
  9
$PUCSYDIR
 10
0.0
 20
1.0
 30
0.0
  9
$PUCSORTHOREF
  2

  9
$PUCSORTHOVIEW
 70
0
  9
$PUCSORGTOP
 10
0.0
 20
0.0
 30
0.0
  9
$PUCSORGBOTTOM
 10
0.0
 20
0.0
 30
0.0
  9
$PUCSORGLEFT
 10
0.0
 20
0.0
 30
0.0
  9
$PUCSORGRIGHT
 10
0.0
 20
0.0
 30
0.0
  9
$PUCSORGFRONT
 10
0.0
 20
0.0
 30
0.0
  9
$PUCSORGBACK
 10
0.0
 20
0.0
 30
0.0
  9
$USERI1
 70
0
  9
$USERI2
 70
0
  9
$USERI3
 70
0
  9
$USERI4
 70
0
  9
$USERI5
 70
0
  9
$USERR1
 40
0.0
  9
$USERR2
 40
0.0
  9
$USERR3
 40
0.0
  9
$USERR4
 40
0.0
  9
$USERR5
 40
0.0
  9
$WORLDVIEW
 70
1
  9
$SHADEDGE
 70
3
  9
$SHADEDIF
 70
70
  9
$TILEMODE
 70
1
  9
$MAXACTVP
 70
64
  9
$PINSBASE
 10
0.0
 20
0.0
 30
0.0
  9
$PLIMCHECK
 70
0
  9
$PEXTMIN
 10
1e+20
 20
1e+20
 30
1e+20
  9
$PEXTMAX
 10
-1e+20
 20
-1e+20
 30
-1e+20
  9
$PLIMMIN
 10
0.0
 20
0.0
  9
$PLIMMAX
 10
420.0
 20
297.0
  9
$UNITMODE
 70
0
  9
$VISRETAIN
 70
1
  9
$PLINEGEN
 70
0
  9
$PSLTSCALE
 70
1
  9
$TREEDEPTH
 70
3020
  9
$CMLSTYLE
  2
Standard
  9
$CMLJUST
 70
0
  9
$CMLSCALE
 40
20.0
  9
$PROXYGRAPHICS
 70
1
  9
$MEASUREMENT
 70
1
  9
$CELWEIGHT
370
-1
  9
$ENDCAPS
280
0
  9
$JOINSTYLE
280
0
  9
$LWDISPLAY
290
0
  9
$INSUNITS
 70
6
  9
$HYPERLINKBASE
  1

  9
$STYLESHEET
  1

  9
$XEDIT
290
1
  9
$CEPSNTYPE
380
0
  9
$PSTYLEMODE
290
1
  9
$FINGERPRINTGUID
  2
{1BE4E592-3C5C-422E-8C62-35633CB545BF}
  9
$VERSIONGUID
  2
{2590AAA7-4346-46F0-A80F-3EE9C2135591}
  9
$EXTNAMES
290
1
  9
$PSVPSCALE
 40
0.0
  9
$OLESTARTUP
290
0
  9
$SORTENTS
280
127
  9
$INDEXCTL
280
0
  9
$HIDETEXT
280
1
  9
$XCLIPFRAME
280
1
  9
$HALOGAP
280
0
  9
$OBSCOLOR
 70
257
  9
$OBSLTYPE
280
0
  9
$INTERSECTIONDISPLAY
280
0
  9
$INTERSECTIONCOLOR
 70
257
  9
$DIMASSOC
280
2
  9
$PROJECTNAME
  1

  9
$CAMERADISPLAY
290
0
  9
$LENSLENGTH
 40
50.0
  9
$CAMERAHEIGHT
 40
0.0
  9
$STEPSPERSEC
 40
24.0
  9
$STEPSIZE
 40
100.0
  9
$3DDWFPREC
 40
2.0
  9
$PSOLWIDTH
 40
0.005
  9
$PSOLHEIGHT
 40
0.08
  9
$LOFTANG1
 40
1.570796326795
  9
$LOFTANG2
 40
1.570796326795
  9
$LOFTMAG1
 40
0.0
  9
$LOFTMAG2
 40
0.0
  9
$LOFTPARAM
 70
7
  9
$LOFTNORMALS
280
1
  9
$LATITUDE
 40
37.795
  9
$LONGITUDE
 40
-122.394
  9
$NORTHDIRECTION
 40
0.0
  9
$TIMEZONE
 70
-8000
  9
$LIGHTGLYPHDISPLAY
280
1
  9
$TILEMODELIGHTSYNCH
280
1
  9
$CMATERIAL
347
20
  9
$SOLIDHIST
280
0
  9
$SHOWHIST
280
1
  9
$DWFFRAME
280
2
  9
$DGNFRAME
280
2
  9
$REALWORLDSCALE
290
1
  9
$INTERFERECOLOR
 62
256
  9
$CSHADOW
280
0
  9
$SHADOWPLANELOCATION
 40
0.0
  0
ENDSEC
  0
SECTION
  2
CLASSES
  0
CLASS
  1
ACDBDICTIONARYWDFLT
  2
AcDbDictionaryWithDefault
  3
ObjectDBX Classes
 90
0
 91
0
280
0
281
0
  0
CLASS
  1
SUN
  2
AcDbSun
  3
SCENEOE
 90
1153
 91
0
280
0
281
0
  0
CLASS
  1
VISUALSTYLE
  2
AcDbVisualStyle
  3
ObjectDBX Classes
 90
4095
 91
0
280
0
281
0
  0
CLASS
  1
MATERIAL
  2
AcDbMaterial
  3
ObjectDBX Classes
 90
1153
 91
0
280
0
281
0
  0
CLASS
  1
SCALE
  2
AcDbScale
  3
ObjectDBX Classes
 90
1153
 91
0
280
0
281
0
  0
CLASS
  1
TABLESTYLE
  2
AcDbTableStyle
  3
ObjectDBX Classes
 90
4095
 91
0
280
0
281
0
  0
CLASS
  1
MLEADERSTYLE
  2
AcDbMLeaderStyle
  3
ACDB_MLEADERSTYLE_CLASS
 90
4095
 91
0
280
0
281
0
  0
CLASS
  1
DICTIONARYVAR
  2
AcDbDictionaryVar
  3
ObjectDBX Classes
 90
0
 91
0
280
0
281
0
  0
CLASS
  1
CELLSTYLEMAP
  2
AcDbCellStyleMap
  3
ObjectDBX Classes
 90
1152
 91
0
280
0
281
0
  0
CLASS
  1
MENTALRAYRENDERSETTINGS
  2
AcDbMentalRayRenderSettings
  3
SCENEOE
 90
1024
 91
0
280
0
281
0
  0
CLASS
  1
ACDBDETAILVIEWSTYLE
  2
AcDbDetailViewStyle
  3
ObjectDBX Classes
 90
1025
 91
0
280
0
281
0
  0
CLASS
  1
ACDBSECTIONVIEWSTYLE
  2
AcDbSectionViewStyle
  3
ObjectDBX Classes
 90
1025
 91
0
280
0
281
0
  0
CLASS
  1
RASTERVARIABLES
  2
AcDbRasterVariables
  3
ISM
 90
0
 91
0
280
0
281
0
  0
CLASS
  1
ACDBPLACEHOLDER
  2
AcDbPlaceHolder
  3
ObjectDBX Classes
 90
0
 91
0
280
0
281
0
  0
CLASS
  1
LAYOUT
  2
AcDbLayout
  3
ObjectDBX Classes
 90
0
 91
0
280
0
281
0
  0
ENDSEC
  0
SECTION
  2
TABLES
  0
TABLE
  2
VPORT
  5
8
330
0
100
AcDbSymbolTable
 70
1
  0
VPORT
  5
23
330
8
100
AcDbSymbolTableRecord
100
AcDbViewportTableRecord
  2
*Active
 70
0
 10
0.0
 20
0.0
 11
1.0
 21
1.0
 12
0.0
 22
0.0
 13
0.0
 23
0.0
 14
0.5
 24
0.5
 15
0.5
 25
0.5
 16
0.0
 26
0.0
 36
1.0
 17
0.0
 27
0.0
 37
0.0
 40
1000.0
 41
1.34
 42
50.0
 43
0.0
 44
0.0
 50
0.0
 51
0.0
 71
0
 72
1000
 73
1
 74
3
 75
0
 76
0
 77
0
 78
0
281
0
 65
0
146
0.0
  0
ENDTAB
  0
TABLE
  2
LTYPE
  5
2
330
0
100
AcDbSymbolTable
 70
3
  0
LTYPE
  5
24
330
2
100
AcDbSymbolTableRecord
100
AcDbLinetypeTableRecord
  2
ByBlock
 70
0
  3

 72
65
 73
0
 40
0.0
  0
LTYPE
  5
25
330
2
100
AcDbSymbolTableRecord
100
AcDbLinetypeTableRecord
  2
ByLayer
 70
0
  3

 72
65
 73
0
 40
0.0
  0
LTYPE
  5
26
330
2
100
AcDbSymbolTableRecord
100
AcDbLinetypeTableRecord
  2
Continuous
 70
0
  3

 72
65
 73
0
 40
0.0
  0
ENDTAB
  0
TABLE
  2
LAYER
  5
1
330
0
100
AcDbSymbolTable
 70
2
  0
LAYER
  5
27
330
1
100
AcDbSymbolTableRecord
100
AcDbLayerTableRecord
  2
0
 70
0
 62
7
  6
Continuous
370
-3
390
13
347
21
  0
LAYER
  5
28
330
1
100
AcDbSymbolTableRecord
100
AcDbLayerTableRecord
  2
Defpoints
 70
0
 62
7
  6
Continuous
290
0
370
-3
390
13
347
21
  0
ENDTAB
  0
TABLE
  2
STYLE
  5
5
330
0
100
AcDbSymbolTable
 70
1
  0
STYLE
  5
29
330
5
100
AcDbSymbolTableRecord
100
AcDbTextStyleTableRecord
  2
Standard
 70
0
 40
0.0
 41
1.0
 50
0.0
 71
0
 42
2.5
  3
txt
  4

  0
ENDTAB
  0
TABLE
  2
VIEW
  5
7
330
0
100
AcDbSymbolTable
 70
0
  0
ENDTAB
  0
TABLE
  2
UCS
  5
6
330
0
100
AcDbSymbolTable
 70
0
  0
ENDTAB
  0
TABLE
  2
APPID
  5
3
330
0
100
AcDbSymbolTable
 70
3
  0
APPID
  5
2A
330
3
100
AcDbSymbolTableRecord
100
AcDbRegAppTableRecord
  2
ACAD
 70
0
  0
APPID
  5
6FF
330
3
100
AcDbSymbolTableRecord
100
AcDbRegAppTableRecord
  2
HATCHBACKGROUNDCOLOR
 70
0
  0
APPID
  5
700
330
3
100
AcDbSymbolTableRecord
100
AcDbRegAppTableRecord
  2
EZDXF
 70
0
  0
ENDTAB
  0
TABLE
  2
DIMSTYLE
  5
4
330
0
100
AcDbSymbolTable
 70
1
100
AcDbDimStyleTable
  0
DIMSTYLE
105
2B
330
4
100
AcDbSymbolTableRecord
100
AcDbDimStyleTableRecord
  2
Standard
 70
0
 40
1.0
 41
2.5
 42
0.625
 43
3.75
 44
1.25
 45
0.0
 46
0.0
 47
0.0
 48
0.0
 49
2.5
140
2.5
141
2.5
142
0.0
143
0.03937007874
144
1.0
145
0.0
146
1.0
147
0.625
148
0.0
 69
0
 70
0
 71
0
 72
0
 73
0
 74
0
 75
0
 76
0
 77
1
 78
8
 79
3
170
0
171
3
172
1
173
0
174
0
175
0
176
0
177
0
178
0
179
2
271
2
272
2
273
2
274
3
275
0
276
0
277
2
278
44
279
0
280
0
281
0
282
0
283
0
284
8
285
0
286
0
288
0
289
3
290
0
371
-2
372
-2
  0
ENDTAB
  0
TABLE
  2
BLOCK_RECORD
  5
9
330
0
100
AcDbSymbolTable
 70
2
  0
BLOCK_RECORD
  5
17
330
9
100
AcDbSymbolTableRecord
100
AcDbBlockTableRecord
  2
*Model_Space
340
1A
 70
0
280
1
281
0
  0
BLOCK_RECORD
  5
1B
330
9
100
AcDbSymbolTableRecord
100
AcDbBlockTableRecord
  2
*Paper_Space
340
1E
 70
0
280
1
281
0
  0
ENDTAB
  0
ENDSEC
  0
SECTION
  2
BLOCKS
  0
BLOCK
  5
18
330
17
100
AcDbEntity
  8
0
100
AcDbBlockBegin
  2
*Model_Space
 70
0
 10
0.0
 20
0.0
 30
0.0
  3
*Model_Space
  1

  0
ENDBLK
  5
19
330
17
100
AcDbEntity
  8
0
100
AcDbBlockEnd
  0
BLOCK
  5
1C
330
1B
100
AcDbEntity
  8
0
100
AcDbBlockBegin
  2
*Paper_Space
 70
0
 10
0.0
 20
0.0
 30
0.0
  3
*Paper_Space
  1

  0
ENDBLK
  5
1D
330
1B
100
AcDbEntity
  8
0
100
AcDbBlockEnd
  0
ENDSEC
  0
SECTION
  2
ENTITIES
  0
LWPOLYLINE
  5
702
330
17
100
AcDbEntity
  8
0
100
AcDbPolyline
 90
81
 70
0
 10
1760.0
 20
66.0
 10
1759.0
 20
65.0
 10
1758.0
 20
65.0
 10
1758.0
 20
64.0
 10
1757.0
 20
63.0
 10
1757.0
 20
60.0
 10
1756.0
 20
59.0
 10
1756.0
 20
54.0
 10
1757.0
 20
53.0
 10
1757.0
 20
48.0
 10
1756.0
 20
47.0
 10
1756.0
 20
43.0
 10
1757.0
 20
42.0
 10
1757.0
 20
32.0
 10
1758.0
 20
31.0
 10
1758.0
 20
27.0
 10
1757.0
 20
26.0
 10
1757.0
 20
25.0
 10
1756.0
 20
24.0
 10
1756.0
 20
20.0
 10
1757.0
 20
19.0
 10
1757.0
 20
5.0
 10
1758.0
 20
4.0
 10
1758.0
 20
1.0
 10
1758.0
 20
4.0
 10
1757.0
 20
5.0
 10
1757.0
 20
19.0
 10
1756.0
 20
20.0
 10
1756.0
 20
24.0
 10
1758.0
 20
26.0
 10
1758.0
 20
31.0
 10
1757.0
 20
32.0
 10
1757.0
 20
42.0
 10
1756.0
 20
43.0
 10
1756.0
 20
47.0
 10
1757.0
 20
48.0
 10
1757.0
 20
53.0
 10
1756.0
 20
54.0
 10
1756.0
 20
59.0
 10
1757.0
 20
60.0
 10
1757.0
 20
63.0
 10
1760.0
 20
66.0
 10
1762.0
 20
66.0
 10
1763.0
 20
65.0
 10
1763.0
 20
61.0
 10
1762.0
 20
60.0
 10
1762.0
 20
51.0
 10
1763.0
 20
50.0
 10
1763.0
 20
46.0
 10
1764.0
 20
45.0
 10
1764.0
 20
28.0
 10
1763.0
 20
27.0
 10
1763.0
 20
13.0
 10
1764.0
 20
12.0
 10
1764.0
 20
10.0
 10
1765.0
 20
9.0
 10
1765.0
 20
8.0
 10
1766.0
 20
7.0
 10
1766.0
 20
6.0
 10
1765.0
 20
5.0
 10
1765.0
 20
4.0
 10
1764.0
 20
3.0
 10
1764.0
 20
1.0
 10
1764.0
 20
3.0
 10
1766.0
 20
5.0
 10
1766.0
 20
7.0
 10
1765.0
 20
8.0
 10
1765.0
 20
9.0
 10
1764.0
 20
10.0
 10
1764.0
 20
12.0
 10
1763.0
 20
13.0
 10
1763.0
 20
27.0
 10
1764.0
 20
28.0
 10
1764.0
 20
45.0
 10
1763.0
 20
46.0
 10
1763.0
 20
50.0
 10
1762.0
 20
51.0
 10
1762.0
 20
60.0
 10
1763.0
 20
61.0
 10
1763.0
 20
65.0
 10
1762.0
 20
66.0
  0
LWPOLYLINE
  5
703
330
17
100
AcDbEntity
  8
0
100
AcDbPolyline
 90
55
 70
0
 10
550.0
 20
75.0
 10
549.0
 20
74.0
 10
548.0
 20
74.0
 10
548.0
 20
73.0
 10
547.0
 20
72.0
 10
545.0
 20
72.0
 10
544.0
 20
73.0
 10
543.0
 20
73.0
 10
542.0
 20
72.0
 10
505.0
 20
72.0
 10
504.0
 20
73.0
 10
494.0
 20
73.0
 10
493.0
 20
72.0
 10
493.0
 20
71.0
 10
493.0
 20
72.0
 10
494.0
 20
73.0
 10
504.0
 20
73.0
 10
505.0
 20
72.0
 10
542.0
 20
72.0
 10
543.0
 20
73.0
 10
544.0
 20
73.0
 10
545.0
 20
72.0
 10
547.0
 20
72.0
 10
548.0
 20
71.0
 10
550.0
 20
71.0
 10
551.0
 20
70.0
 10
572.0
 20
70.0
 10
551.0
 20
70.0
 10
550.0
 20
71.0
 10
550.0
 20
72.0
 10
549.0
 20
71.0
 10
548.0
 20
71.0
 10
547.0
 20
72.0
 10
550.0
 20
75.0
 10
553.0
 20
75.0
 10
554.0
 20
74.0
 10
559.0
 20
74.0
 10
560.0
 20
73.0
 10
576.0
 20
73.0
 10
577.0
 20
74.0
 10
583.0
 20
74.0
 10
584.0
 20
75.0
 10
674.0
 20
75.0
 10
675.0
 20
74.0
 10
675.0
 20
73.0
 10
675.0
 20
74.0
 10
674.0
 20
75.0
 10
584.0
 20
75.0
 10
583.0
 20
74.0
 10
577.0
 20
74.0
 10
576.0
 20
73.0
 10
560.0
 20
73.0
 10
559.0
 20
74.0
 10
554.0
 20
74.0
 10
553.0
 20
75.0
  0
LWPOLYLINE
  5
704
330
17
100
AcDbEntity
  8
0
100
AcDbPolyline
 90
200
 70
0
 10
1815.0
 20
80.0
 10
1814.0
 20
79.0
 10
1813.0
 20
79.0
 10
1813.0
 20
78.0
 10
1811.0
 20
76.0
 10
1794.0
 20
76.0
 10
1793.0
 20
75.0
 10
1792.0
 20
75.0
 10
1791.0
 20
74.0
 10
1790.0
 20
74.0
 10
1790.0
 20
72.0
 10
1793.0
 20
72.0
 10
1794.0
 20
71.0
 10
1806.0
 20
71.0
 10
1807.0
 20
72.0
 10
1811.0
 20
72.0
 10
1812.0
 20
71.0
 10
1823.0
 20
71.0
 10
1824.0
 20
72.0
 10
1833.0
 20
72.0
 10
1834.0
 20
71.0
 10
1837.0
 20
71.0
 10
1838.0
 20
72.0
 10
1856.0
 20
72.0
 10
1857.0
 20
73.0
 10
1858.0
 20
73.0
 10
1859.0
 20
72.0
 10
1881.0
 20
72.0
 10
1882.0
 20
73.0
 10
1884.0
 20
73.0
 10
1885.0
 20
72.0
 10
1895.0
 20
72.0
 10
1896.0
 20
73.0
 10
1910.0
 20
73.0
 10
1911.0
 20
72.0
 10
1912.0
 20
73.0
 10
1913.0
 20
72.0
 10
1920.0
 20
72.0
 10
1921.0
 20
73.0
 10
1929.0
 20
73.0
 10
1930.0
 20
74.0
 10
1933.0
 20
74.0
 10
1934.0
 20
73.0
 10
1954.0
 20
73.0
 10
1955.0
 20
74.0
 10
1958.0
 20
74.0
 10
1959.0
 20
73.0
 10
1963.0
 20
73.0
 10
1964.0
 20
72.0
 10
1966.0
 20
72.0
 10
1967.0
 20
73.0
 10
1980.0
 20
73.0
 10
1981.0
 20
74.0
 10
1984.0
 20
74.0
 10
1981.0
 20
74.0
 10
1980.0
 20
73.0
 10
1967.0
 20
73.0
 10
1966.0
 20
72.0
 10
1964.0
 20
72.0
 10
1963.0
 20
73.0
 10
1959.0
 20
73.0
 10
1958.0
 20
74.0
 10
1955.0
 20
74.0
 10
1954.0
 20
73.0
 10
1934.0
 20
73.0
 10
1933.0
 20
74.0
 10
1930.0
 20
74.0
 10
1929.0
 20
73.0
 10
1921.0
 20
73.0
 10
1920.0
 20
72.0
 10
1913.0
 20
72.0
 10
1912.0
 20
73.0
 10
1911.0
 20
72.0
 10
1910.0
 20
73.0
 10
1896.0
 20
73.0
 10
1895.0
 20
72.0
 10
1885.0
 20
72.0
 10
1884.0
 20
73.0
 10
1882.0
 20
73.0
 10
1881.0
 20
72.0
 10
1859.0
 20
72.0
 10
1858.0
 20
73.0
 10
1857.0
 20
73.0
 10
1856.0
 20
72.0
 10
1838.0
 20
72.0
 10
1837.0
 20
71.0
 10
1834.0
 20
71.0
 10
1833.0
 20
72.0
 10
1824.0
 20
72.0
 10
1823.0
 20
71.0
 10
1812.0
 20
71.0
 10
1811.0
 20
72.0
 10
1807.0
 20
72.0
 10
1806.0
 20
71.0
 10
1794.0
 20
71.0
 10
1793.0
 20
72.0
 10
1791.0
 20
72.0
 10
1790.0
 20
73.0
 10
1792.0
 20
75.0
 10
1793.0
 20
75.0
 10
1794.0
 20
76.0
 10
1812.0
 20
76.0
 10
1812.0
 20
77.0
 10
1815.0
 20
80.0
 10
1818.0
 20
77.0
 10
1819.0
 20
77.0
 10
1820.0
 20
76.0
 10
1823.0
 20
76.0
 10
1824.0
 20
77.0
 10
1838.0
 20
77.0
 10
1839.0
 20
78.0
 10
1840.0
 20
77.0
 10
1848.0
 20
77.0
 10
1849.0
 20
78.0
 10
1865.0
 20
78.0
 10
1866.0
 20
77.0
 10
1867.0
 20
78.0
 10
1868.0
 20
77.0
 10
1869.0
 20
78.0
 10
1872.0
 20
78.0
 10
1873.0
 20
77.0
 10
1880.0
 20
77.0
 10
1881.0
 20
78.0
 10
1882.0
 20
77.0
 10
1888.0
 20
77.0
 10
1889.0
 20
78.0
 10
1905.0
 20
78.0
 10
1906.0
 20
77.0
 10
1908.0
 20
77.0
 10
1908.0
 20
78.0
 10
1910.0
 20
80.0
 10
1911.0
 20
79.0
 10
1911.0
 20
78.0
 10
1912.0
 20
77.0
 10
1920.0
 20
77.0
 10
1921.0
 20
78.0
 10
1930.0
 20
78.0
 10
1931.0
 20
79.0
 10
1932.0
 20
78.0
 10
1933.0
 20
78.0
 10
1934.0
 20
77.0
 10
1960.0
 20
77.0
 10
1961.0
 20
76.0
 10
1962.0
 20
77.0
 10
1963.0
 20
76.0
 10
1964.0
 20
77.0
 10
1966.0
 20
77.0
 10
1968.0
 20
79.0
 10
1969.0
 20
78.0
 10
1981.0
 20
78.0
 10
1983.0
 20
76.0
 10
1984.0
 20
76.0
 10
1983.0
 20
77.0
 10
1982.0
 20
77.0
 10
1981.0
 20
78.0
 10
1969.0
 20
78.0
 10
1968.0
 20
79.0
 10
1966.0
 20
77.0
 10
1964.0
 20
77.0
 10
1963.0
 20
76.0
 10
1962.0
 20
77.0
 10
1961.0
 20
76.0
 10
1960.0
 20
77.0
 10
1935.0
 20
77.0
 10
1934.0
 20
78.0
 10
1932.0
 20
78.0
 10
1931.0
 20
79.0
 10
1930.0
 20
78.0
 10
1921.0
 20
78.0
 10
1920.0
 20
77.0
 10
1912.0
 20
77.0
 10
1911.0
 20
78.0
 10
1911.0
 20
80.0
 10
1909.0
 20
80.0
 10
1909.0
 20
79.0
 10
1907.0
 20
77.0
 10
1906.0
 20
77.0
 10
1905.0
 20
78.0
 10
1889.0
 20
78.0
 10
1888.0
 20
77.0
 10
1882.0
 20
77.0
 10
1881.0
 20
78.0
 10
1880.0
 20
77.0
 10
1873.0
 20
77.0
 10
1872.0
 20
78.0
 10
1869.0
 20
78.0
 10
1868.0
 20
77.0
 10
1867.0
 20
78.0
 10
1866.0
 20
77.0
 10
1865.0
 20
78.0
 10
1849.0
 20
78.0
 10
1848.0
 20
77.0
 10
1840.0
 20
77.0
 10
1839.0
 20
78.0
 10
1838.0
 20
77.0
 10
1824.0
 20
77.0
 10
1823.0
 20
76.0
 10
1820.0
 20
76.0
 10
1817.0
 20
79.0
 10
1816.0
 20
79.0
  0
LWPOLYLINE
  5
705
330
17
100
AcDbEntity
  8
0
100
AcDbPolyline
 90
128
 70
0
 10
1043.0
 20
81.0
 10
1042.0
 20
80.0
 10
1041.0
 20
80.0
 10
1041.0
 20
79.0
 10
1040.0
 20
78.0
 10
1009.0
 20
78.0
 10
1008.0
 20
77.0
 10
974.0
 20
77.0
 10
972.0
 20
79.0
 10
971.0
 20
78.0
 10
970.0
 20
78.0
 10
969.0
 20
77.0
 10
956.0
 20
77.0
 10
955.0
 20
78.0
 10
951.0
 20
78.0
 10
950.0
 20
79.0
 10
949.0
 20
78.0
 10
948.0
 20
78.0
 10
947.0
 20
77.0
 10
935.0
 20
77.0
 10
934.0
 20
78.0
 10
931.0
 20
78.0
 10
930.0
 20
77.0
 10
926.0
 20
77.0
 10
925.0
 20
78.0
 10
924.0
 20
78.0
 10
923.0
 20
77.0
 10
909.0
 20
77.0
 10
908.0
 20
78.0
 10
901.0
 20
78.0
 10
900.0
 20
77.0
 10
895.0
 20
77.0
 10
894.0
 20
78.0
 10
893.0
 20
77.0
 10
847.0
 20
77.0
 10
846.0
 20
76.0
 10
845.0
 20
76.0
 10
844.0
 20
75.0
 10
843.0
 20
75.0
 10
842.0
 20
76.0
 10
836.0
 20
76.0
 10
835.0
 20
75.0
 10
809.0
 20
75.0
 10
807.0
 20
77.0
 10
804.0
 20
77.0
 10
802.0
 20
75.0
 10
792.0
 20
75.0
 10
791.0
 20
76.0
 10
790.0
 20
76.0
 10
789.0
 20
77.0
 10
779.0
 20
77.0
 10
778.0
 20
76.0
 10
772.0
 20
76.0
 10
771.0
 20
77.0
 10
732.0
 20
77.0
 10
731.0
 20
76.0
 10
729.0
 20
76.0
 10
728.0
 20
77.0
 10
720.0
 20
77.0
 10
719.0
 20
76.0
 10
718.0
 20
76.0
 10
717.0
 20
75.0
 10
717.0
 20
74.0
 10
717.0
 20
75.0
 10
718.0
 20
76.0
 10
719.0
 20
76.0
 10
720.0
 20
77.0
 10
728.0
 20
77.0
 10
729.0
 20
76.0
 10
731.0
 20
76.0
 10
732.0
 20
77.0
 10
771.0
 20
77.0
 10
772.0
 20
76.0
 10
778.0
 20
76.0
 10
779.0
 20
77.0
 10
789.0
 20
77.0
 10
791.0
 20
75.0
 10
802.0
 20
75.0
 10
804.0
 20
77.0
 10
807.0
 20
77.0
 10
809.0
 20
75.0
 10
835.0
 20
75.0
 10
836.0
 20
76.0
 10
842.0
 20
76.0
 10
843.0
 20
75.0
 10
845.0
 20
75.0
 10
847.0
 20
77.0
 10
893.0
 20
77.0
 10
894.0
 20
78.0
 10
895.0
 20
77.0
 10
900.0
 20
77.0
 10
901.0
 20
78.0
 10
908.0
 20
78.0
 10
909.0
 20
77.0
 10
923.0
 20
77.0
 10
924.0
 20
78.0
 10
925.0
 20
78.0
 10
926.0
 20
77.0
 10
930.0
 20
77.0
 10
931.0
 20
78.0
 10
934.0
 20
78.0
 10
935.0
 20
77.0
 10
948.0
 20
77.0
 10
950.0
 20
79.0
 10
951.0
 20
78.0
 10
954.0
 20
78.0
 10
955.0
 20
77.0
 10
969.0
 20
77.0
 10
970.0
 20
78.0
 10
971.0
 20
78.0
 10
972.0
 20
79.0
 10
974.0
 20
77.0
 10
1008.0
 20
77.0
 10
1009.0
 20
78.0
 10
1040.0
 20
78.0
 10
1043.0
 20
81.0
 10
1044.0
 20
81.0
 10
1046.0
 20
79.0
 10
1046.0
 20
78.0
 10
1045.0
 20
77.0
 10
1044.0
 20
77.0
 10
1043.0
 20
76.0
 10
1041.0
 20
76.0
 10
1044.0
 20
76.0
 10
1046.0
 20
78.0
 10
1046.0
 20
80.0
 10
1045.0
 20
80.0
 10
1044.0
 20
81.0
  0
LWPOLYLINE
  5
706
330
17
100
AcDbEntity
  8
0
100
AcDbPolyline
 90
36
 70
0
 10
1145.0
 20
82.0
 10
1144.0
 20
81.0
 10
1109.0
 20
81.0
 10
1108.0
 20
80.0
 10
1108.0
 20
79.0
 10
1108.0
 20
80.0
 10
1109.0
 20
81.0
 10
1144.0
 20
81.0
 10
1145.0
 20
82.0
 10
1153.0
 20
82.0
 10
1154.0
 20
81.0
 10
1181.0
 20
81.0
 10
1182.0
 20
80.0
 10
1195.0
 20
80.0
 10
1196.0
 20
81.0
 10
1197.0
 20
80.0
 10
1226.0
 20
80.0
 10
1227.0
 20
81.0
 10
1232.0
 20
81.0
 10
1233.0
 20
80.0
 10
1239.0
 20
80.0
 10
1240.0
 20
79.0
 10
1240.0
 20
78.0
 10
1240.0
 20
79.0
 10
1239.0
 20
80.0
 10
1233.0
 20
80.0
 10
1232.0
 20
81.0
 10
1227.0
 20
81.0
 10
1226.0
 20
80.0
 10
1197.0
 20
80.0
 10
1196.0
 20
81.0
 10
1195.0
 20
80.0
 10
1182.0
 20
80.0
 10
1181.0
 20
81.0
 10
1154.0
 20
81.0
 10
1153.0
 20
82.0
  0
LWPOLYLINE
  5
707
330
17
100
AcDbEntity
  8
0
100
AcDbPolyline
 90
57
 70
0
 10
1380.0
 20
83.0
 10
1379.0
 20
82.0
 10
1342.0
 20
82.0
 10
1341.0
 20
81.0
 10
1339.0
 20
81.0
 10
1338.0
 20
82.0
 10
1305.0
 20
82.0
 10
1304.0
 20
81.0
 10
1304.0
 20
80.0
 10
1304.0
 20
81.0
 10
1305.0
 20
82.0
 10
1338.0
 20
82.0
 10
1339.0
 20
81.0
 10
1341.0
 20
81.0
 10
1342.0
 20
82.0
 10
1379.0
 20
82.0
 10
1380.0
 20
83.0
 10
1386.0
 20
83.0
 10
1387.0
 20
82.0
 10
1391.0
 20
82.0
 10
1392.0
 20
83.0
 10
1394.0
 20
83.0
 10
1395.0
 20
82.0
 10
1421.0
 20
82.0
 10
1422.0
 20
83.0
 10
1427.0
 20
83.0
 10
1428.0
 20
82.0
 10
1432.0
 20
82.0
 10
1433.0
 20
83.0
 10
1436.0
 20
83.0
 10
1437.0
 20
82.0
 10
1440.0
 20
82.0
 10
1441.0
 20
83.0
 10
1446.0
 20
83.0
 10
1448.0
 20
81.0
 10
1447.0
 20
80.0
 10
1440.0
 20
80.0
 10
1448.0
 20
80.0
 10
1448.0
 20
82.0
 10
1447.0
 20
82.0
 10
1446.0
 20
83.0
 10
1441.0
 20
83.0
 10
1440.0
 20
82.0
 10
1437.0
 20
82.0
 10
1436.0
 20
83.0
 10
1433.0
 20
83.0
 10
1432.0
 20
82.0
 10
1428.0
 20
82.0
 10
1427.0
 20
83.0
 10
1422.0
 20
83.0
 10
1421.0
 20
82.0
 10
1395.0
 20
82.0
 10
1394.0
 20
83.0
 10
1392.0
 20
83.0
 10
1391.0
 20
82.0
 10
1387.0
 20
82.0
 10
1386.0
 20
83.0
  0
LWPOLYLINE
  5
708
330
17
100
AcDbEntity
  8
0
100
AcDbPolyline
 90
43
 70
0
 10
1574.0
 20
126.0
 10
1573.0
 20
125.0
 10
1573.0
 20
121.0
 10
1574.0
 20
120.0
 10
1574.0
 20
113.0
 10
1573.0
 20
112.0
 10
1573.0
 20
92.0
 10
1574.0
 20
91.0
 10
1574.0
 20
88.0
 10
1571.0
 20
85.0
 10
1570.0
 20
85.0
 10
1568.0
 20
83.0
 10
1502.0
 20
83.0
 10
1501.0
 20
82.0
 10
1485.0
 20
82.0
 10
1484.0
 20
81.0
 10
1483.0
 20
81.0
 10
1483.0
 20
80.0
 10
1485.0
 20
82.0
 10
1501.0
 20
82.0
 10
1502.0
 20
83.0
 10
1569.0
 20
83.0
 10
1572.0
 20
86.0
 10
1573.0
 20
86.0
 10
1574.0
 20
87.0
 10
1574.0
 20
91.0
 10
1573.0
 20
92.0
 10
1573.0
 20
112.0
 10
1575.0
 20
114.0
 10
1576.0
 20
113.0
 10
1576.0
 20
108.0
 10
1576.0
 20
117.0
 10
1576.0
 20
115.0
 10
1575.0
 20
114.0
 10
1574.0
 20
115.0
 10
1574.0
 20
120.0
 10
1573.0
 20
121.0
 10
1573.0
 20
125.0
 10
1574.0
 20
126.0
 10
1575.0
 20
126.0
 10
1576.0
 20
125.0
 10
1576.0
 20
120.0
 10
1576.0
 20
126.0
  0
LWPOLYLINE
  5
709
330
17
100
AcDbEntity
  8
0
100
AcDbPolyline
 90
40
 70
0
 10
522.0
 20
239.0
 10
521.0
 20
238.0
 10
521.0
 20
237.0
 10
520.0
 20
236.0
 10
488.0
 20
236.0
 10
487.0
 20
237.0
 10
467.0
 20
237.0
 10
466.0
 20
238.0
 10
465.0
 20
238.0
 10
464.0
 20
237.0
 10
463.0
 20
237.0
 10
463.0
 20
236.0
 10
462.0
 20
235.0
 10
463.0
 20
234.0
 10
475.0
 20
234.0
 10
463.0
 20
234.0
 10
462.0
 20
235.0
 10
465.0
 20
238.0
 10
466.0
 20
238.0
 10
467.0
 20
237.0
 10
487.0
 20
237.0
 10
488.0
 20
236.0
 10
520.0
 20
236.0
 10
521.0
 20
237.0
 10
521.0
 20
238.0
 10
522.0
 20
239.0
 10
523.0
 20
238.0
 10
523.0
 20
237.0
 10
524.0
 20
236.0
 10
558.0
 20
236.0
 10
560.0
 20
234.0
 10
559.0
 20
233.0
 10
549.0
 20
233.0
 10
560.0
 20
233.0
 10
560.0
 20
235.0
 10
559.0
 20
235.0
 10
558.0
 20
236.0
 10
524.0
 20
236.0
 10
523.0
 20
237.0
 10
523.0
 20
238.0
  0
LWPOLYLINE
  5
70A
330
17
100
AcDbEntity
  8
0
100
AcDbPolyline
 90
30
 70
0
 10
832.0
 20
247.0
 10
832.0
 20
246.0
 10
837.0
 20
241.0
 10
837.0
 20
240.0
 10
839.0
 20
240.0
 10
840.0
 20
241.0
 10
870.0
 20
241.0
 10
871.0
 20
242.0
 10
872.0
 20
241.0
 10
940.0
 20
241.0
 10
941.0
 20
240.0
 10
949.0
 20
240.0
 10
950.0
 20
241.0
 10
987.0
 20
241.0
 10
988.0
 20
242.0
 10
1011.0
 20
242.0
 10
988.0
 20
242.0
 10
987.0
 20
241.0
 10
950.0
 20
241.0
 10
949.0
 20
240.0
 10
941.0
 20
240.0
 10
940.0
 20
241.0
 10
872.0
 20
241.0
 10
871.0
 20
242.0
 10
870.0
 20
241.0
 10
840.0
 20
241.0
 10
839.0
 20
240.0
 10
838.0
 20
240.0
 10
836.0
 20
242.0
 10
836.0
 20
243.0
  0
LWPOLYLINE
  5
70B
330
17
100
AcDbEntity
  8
0
100
AcDbPolyline
 90
96
 70
0
 10
1541.0
 20
250.0
 10
1540.0
 20
249.0
 10
1539.0
 20
249.0
 10
1538.0
 20
248.0
 10
1537.0
 20
248.0
 10
1533.0
 20
244.0
 10
1526.0
 20
244.0
 10
1525.0
 20
245.0
 10
1506.0
 20
245.0
 10
1505.0
 20
244.0
 10
1500.0
 20
244.0
 10
1499.0
 20
245.0
 10
1484.0
 20
245.0
 10
1483.0
 20
244.0
 10
1477.0
 20
244.0
 10
1476.0
 20
245.0
 10
1460.0
 20
245.0
 10
1459.0
 20
244.0
 10
1458.0
 20
244.0
 10
1458.0
 20
243.0
 10
1460.0
 20
245.0
 10
1476.0
 20
245.0
 10
1477.0
 20
244.0
 10
1481.0
 20
244.0
 10
1482.0
 20
243.0
 10
1481.0
 20
242.0
 10
1479.0
 20
242.0
 10
1500.0
 20
242.0
 10
1483.0
 20
242.0
 10
1482.0
 20
243.0
 10
1484.0
 20
245.0
 10
1499.0
 20
245.0
 10
1500.0
 20
244.0
 10
1505.0
 20
244.0
 10
1506.0
 20
245.0
 10
1525.0
 20
245.0
 10
1526.0
 20
244.0
 10
1534.0
 20
244.0
 10
1539.0
 20
249.0
 10
1540.0
 20
249.0
 10
1541.0
 20
250.0
 10
1543.0
 20
250.0
 10
1546.0
 20
247.0
 10
1546.0
 20
246.0
 10
1547.0
 20
245.0
 10
1547.0
 20
244.0
 10
1562.0
 20
244.0
 10
1563.0
 20
245.0
 10
1566.0
 20
245.0
 10
1570.0
 20
249.0
 10
1573.0
 20
249.0
 10
1576.0
 20
246.0
 10
1576.0
 20
245.0
 10
1577.0
 20
244.0
 10
1577.0
 20
241.0
 10
1576.0
 20
240.0
 10
1576.0
 20
239.0
 10
1575.0
 20
238.0
 10
1575.0
 20
237.0
 10
1574.0
 20
236.0
 10
1571.0
 20
236.0
 10
1568.0
 20
239.0
 10
1567.0
 20
239.0
 10
1565.0
 20
241.0
 10
1563.0
 20
241.0
 10
1562.0
 20
242.0
 10
1561.0
 20
241.0
 10
1562.0
 20
242.0
 10
1563.0
 20
241.0
 10
1564.0
 20
241.0
 10
1565.0
 20
240.0
 10
1566.0
 20
240.0
 10
1569.0
 20
237.0
 10
1570.0
 20
237.0
 10
1571.0
 20
236.0
 10
1574.0
 20
236.0
 10
1575.0
 20
237.0
 10
1575.0
 20
238.0
 10
1577.0
 20
240.0
 10
1577.0
 20
245.0
 10
1575.0
 20
247.0
 10
1575.0
 20
248.0
 10
1574.0
 20
249.0
 10
1570.0
 20
249.0
 10
1569.0
 20
248.0
 10
1568.0
 20
248.0
 10
1565.0
 20
245.0
 10
1563.0
 20
245.0
 10
1562.0
 20
244.0
 10
1548.0
 20
244.0
 10
1546.0
 20
246.0
 10
1546.0
 20
247.0
 10
1545.0
 20
248.0
 10
1545.0
 20
249.0
 10
1544.0
 20
249.0
 10
1543.0
 20
250.0
  0
LWPOLYLINE
  5
70C
330
17
100
AcDbEntity
  8
0
100
AcDbPolyline
 90
28
 70
0
 10
808.0
 20
263.0
 10
807.0
 20
262.0
 10
807.0
 20
257.0
 10
808.0
 20
256.0
 10
808.0
 20
251.0
 10
807.0
 20
250.0
 10
807.0
 20
247.0
 10
800.0
 20
240.0
 10
721.0
 20
240.0
 10
720.0
 20
239.0
 10
708.0
 20
239.0
 10
705.0
 20
242.0
 10
705.0
 20
243.0
 10
704.0
 20
243.0
 10
706.0
 20
241.0
 10
706.0
 20
240.0
 10
707.0
 20
239.0
 10
720.0
 20
239.0
 10
721.0
 20
240.0
 10
801.0
 20
240.0
 10
807.0
 20
246.0
 10
807.0
 20
250.0
 10
808.0
 20
251.0
 10
808.0
 20
256.0
 10
807.0
 20
257.0
 10
807.0
 20
262.0
 10
808.0
 20
263.0
 10
809.0
 20
263.0
  0
LWPOLYLINE
  5
70D
330
17
100
AcDbEntity
  8
0
100
AcDbPolyline
 90
80
 70
0
 10
1279.0
 20
457.0
 10
1278.0
 20
456.0
 10
1263.0
 20
456.0
 10
1262.0
 20
455.0
 10
1258.0
 20
455.0
 10
1257.0
 20
456.0
 10
1252.0
 20
456.0
 10
1251.0
 20
455.0
 10
1247.0
 20
455.0
 10
1246.0
 20
456.0
 10
1232.0
 20
456.0
 10
1231.0
 20
455.0
 10
1226.0
 20
455.0
 10
1225.0
 20
456.0
 10
1139.0
 20
456.0
 10
1138.0
 20
455.0
 10
1133.0
 20
455.0
 10
1132.0
 20
456.0
 10
1103.0
 20
456.0
 10
1102.0
 20
455.0
 10
960.0
 20
455.0
 10
959.0
 20
454.0
 10
956.0
 20
454.0
 10
955.0
 20
455.0
 10
918.0
 20
455.0
 10
917.0
 20
456.0
 10
898.0
 20
456.0
 10
897.0
 20
455.0
 10
824.0
 20
455.0
 10
823.0
 20
456.0
 10
820.0
 20
456.0
 10
819.0
 20
455.0
 10
801.0
 20
455.0
 10
800.0
 20
456.0
 10
799.0
 20
455.0
 10
784.0
 20
455.0
 10
783.0
 20
454.0
 10
774.0
 20
454.0
 10
783.0
 20
454.0
 10
784.0
 20
455.0
 10
799.0
 20
455.0
 10
800.0
 20
456.0
 10
801.0
 20
455.0
 10
819.0
 20
455.0
 10
820.0
 20
456.0
 10
823.0
 20
456.0
 10
824.0
 20
455.0
 10
897.0
 20
455.0
 10
898.0
 20
456.0
 10
917.0
 20
456.0
 10
918.0
 20
455.0
 10
955.0
 20
455.0
 10
956.0
 20
454.0
 10
959.0
 20
454.0
 10
960.0
 20
455.0
 10
1102.0
 20
455.0
 10
1103.0
 20
456.0
 10
1132.0
 20
456.0
 10
1133.0
 20
455.0
 10
1138.0
 20
455.0
 10
1139.0
 20
456.0
 10
1225.0
 20
456.0
 10
1226.0
 20
455.0
 10
1231.0
 20
455.0
 10
1232.0
 20
456.0
 10
1246.0
 20
456.0
 10
1247.0
 20
455.0
 10
1251.0
 20
455.0
 10
1252.0
 20
456.0
 10
1257.0
 20
456.0
 10
1258.0
 20
455.0
 10
1262.0
 20
455.0
 10
1263.0
 20
456.0
 10
1278.0
 20
456.0
 10
1279.0
 20
457.0
 10
1280.0
 20
457.0
 10
1281.0
 20
456.0
 10
1299.0
 20
456.0
 10
1281.0
 20
456.0
 10
1280.0
 20
457.0
  0
LWPOLYLINE
  5
70E
330
17
100
AcDbEntity
  8
0
100
AcDbPolyline
 90
122
 70
0
 10
1054.0
 20
562.0
 10
1053.0
 20
561.0
 10
1054.0
 20
560.0
 10
1054.0
 20
559.0
 10
1056.0
 20
557.0
 10
1056.0
 20
556.0
 10
1059.0
 20
553.0
 10
1059.0
 20
552.0
 10
1063.0
 20
548.0
 10
1063.0
 20
547.0
 10
1065.0
 20
545.0
 10
1065.0
 20
544.0
 10
1068.0
 20
541.0
 10
1068.0
 20
540.0
 10
1074.0
 20
534.0
 10
1074.0
 20
533.0
 10
1076.0
 20
531.0
 10
1076.0
 20
530.0
 10
1077.0
 20
529.0
 10
1077.0
 20
528.0
 10
1081.0
 20
524.0
 10
1081.0
 20
523.0
 10
1085.0
 20
519.0
 10
1085.0
 20
518.0
 10
1087.0
 20
516.0
 10
1087.0
 20
515.0
 10
1091.0
 20
511.0
 10
1091.0
 20
510.0
 10
1095.0
 20
506.0
 10
1095.0
 20
505.0
 10
1096.0
 20
505.0
 10
1097.0
 20
504.0
 10
1094.0
 20
507.0
 10
1094.0
 20
508.0
 10
1089.0
 20
513.0
 10
1089.0
 20
514.0
 10
1086.0
 20
517.0
 10
1086.0
 20
518.0
 10
1084.0
 20
520.0
 10
1084.0
 20
521.0
 10
1083.0
 20
521.0
 10
1082.0
 20
522.0
 10
1082.0
 20
523.0
 10
1079.0
 20
526.0
 10
1079.0
 20
527.0
 10
1076.0
 20
530.0
 10
1076.0
 20
531.0
 10
1074.0
 20
533.0
 10
1074.0
 20
534.0
 10
1072.0
 20
536.0
 10
1072.0
 20
537.0
 10
1067.0
 20
542.0
 10
1067.0
 20
543.0
 10
1064.0
 20
546.0
 10
1064.0
 20
547.0
 10
1062.0
 20
549.0
 10
1062.0
 20
550.0
 10
1058.0
 20
554.0
 10
1058.0
 20
555.0
 10
1055.0
 20
558.0
 10
1055.0
 20
559.0
 10
1053.0
 20
561.0
 10
1054.0
 20
562.0
 10
1055.0
 20
562.0
 10
1059.0
 20
558.0
 10
1059.0
 20
557.0
 10
1063.0
 20
553.0
 10
1064.0
 20
553.0
 10
1067.0
 20
550.0
 10
1067.0
 20
547.0
 10
1068.0
 20
546.0
 10
1068.0
 20
545.0
 10
1069.0
 20
544.0
 10
1069.0
 20
543.0
 10
1077.0
 20
535.0
 10
1077.0
 20
534.0
 10
1078.0
 20
533.0
 10
1078.0
 20
532.0
 10
1079.0
 20
531.0
 10
1079.0
 20
530.0
 10
1082.0
 20
527.0
 10
1082.0
 20
526.0
 10
1085.0
 20
523.0
 10
1086.0
 20
523.0
 10
1090.0
 20
519.0
 10
1090.0
 20
516.0
 10
1092.0
 20
514.0
 10
1092.0
 20
513.0
 10
1097.0
 20
508.0
 10
1097.0
 20
507.0
 10
1099.0
 20
505.0
 10
1097.0
 20
507.0
 10
1097.0
 20
508.0
 10
1096.0
 20
509.0
 10
1096.0
 20
510.0
 10
1090.0
 20
516.0
 10
1090.0
 20
519.0
 10
1089.0
 20
520.0
 10
1089.0
 20
521.0
 10
1088.0
 20
522.0
 10
1087.0
 20
522.0
 10
1086.0
 20
523.0
 10
1085.0
 20
523.0
 10
1083.0
 20
525.0
 10
1083.0
 20
526.0
 10
1080.0
 20
529.0
 10
1080.0
 20
530.0
 10
1078.0
 20
532.0
 10
1078.0
 20
533.0
 10
1077.0
 20
534.0
 10
1077.0
 20
535.0
 10
1073.0
 20
539.0
 10
1073.0
 20
540.0
 10
1068.0
 20
545.0
 10
1068.0
 20
546.0
 10
1067.0
 20
547.0
 10
1067.0
 20
551.0
 10
1066.0
 20
552.0
 10
1065.0
 20
552.0
 10
1058.0
 20
559.0
 10
1058.0
 20
560.0
 10
1056.0
 20
562.0
  0
LWPOLYLINE
  5
70F
330
17
100
AcDbEntity
  8
0
100
AcDbPolyline
 90
211
 70
0
 10
757.0
 20
563.0
 10
756.0
 20
562.0
 10
752.0
 20
562.0
 10
751.0
 20
561.0
 10
747.0
 20
561.0
 10
742.0
 20
556.0
 10
741.0
 20
556.0
 10
738.0
 20
553.0
 10
738.0
 20
552.0
 10
736.0
 20
550.0
 10
736.0
 20
549.0
 10
735.0
 20
548.0
 10
735.0
 20
546.0
 10
734.0
 20
545.0
 10
734.0
 20
544.0
 10
733.0
 20
543.0
 10
733.0
 20
542.0
 10
732.0
 20
541.0
 10
732.0
 20
540.0
 10
733.0
 20
539.0
 10
733.0
 20
536.0
 10
731.0
 20
534.0
 10
730.0
 20
534.0
 10
730.0
 20
532.0
 10
731.0
 20
531.0
 10
731.0
 20
530.0
 10
732.0
 20
529.0
 10
732.0
 20
524.0
 10
731.0
 20
523.0
 10
732.0
 20
522.0
 10
732.0
 20
521.0
 10
733.0
 20
520.0
 10
733.0
 20
516.0
 10
732.0
 20
515.0
 10
732.0
 20
514.0
 10
731.0
 20
513.0
 10
731.0
 20
511.0
 10
732.0
 20
510.0
 10
732.0
 20
508.0
 10
733.0
 20
507.0
 10
734.0
 20
507.0
 10
735.0
 20
506.0
 10
741.0
 20
506.0
 10
735.0
 20
506.0
 10
734.0
 20
507.0
 10
733.0
 20
507.0
 10
732.0
 20
508.0
 10
732.0
 20
511.0
 10
731.0
 20
512.0
 10
732.0
 20
513.0
 10
732.0
 20
515.0
 10
733.0
 20
516.0
 10
733.0
 20
521.0
 10
731.0
 20
523.0
 10
732.0
 20
524.0
 10
732.0
 20
529.0
 10
731.0
 20
530.0
 10
731.0
 20
531.0
 10
730.0
 20
532.0
 10
730.0
 20
533.0
 10
732.0
 20
535.0
 10
733.0
 20
535.0
 10
733.0
 20
539.0
 10
732.0
 20
540.0
 10
732.0
 20
541.0
 10
734.0
 20
543.0
 10
734.0
 20
545.0
 10
735.0
 20
546.0
 10
735.0
 20
548.0
 10
737.0
 20
550.0
 10
737.0
 20
551.0
 10
739.0
 20
553.0
 10
739.0
 20
554.0
 10
741.0
 20
556.0
 10
742.0
 20
556.0
 10
743.0
 20
557.0
 10
744.0
 20
557.0
 10
745.0
 20
558.0
 10
745.0
 20
559.0
 10
747.0
 20
561.0
 10
751.0
 20
561.0
 10
752.0
 20
562.0
 10
756.0
 20
562.0
 10
757.0
 20
563.0
 10
760.0
 20
563.0
 10
763.0
 20
560.0
 10
762.0
 20
559.0
 10
752.0
 20
559.0
 10
751.0
 20
558.0
 10
749.0
 20
558.0
 10
748.0
 20
557.0
 10
747.0
 20
557.0
 10
739.0
 20
549.0
 10
739.0
 20
548.0
 10
738.0
 20
547.0
 10
738.0
 20
545.0
 10
737.0
 20
544.0
 10
737.0
 20
542.0
 10
736.0
 20
541.0
 10
736.0
 20
537.0
 10
736.0
 20
541.0
 10
737.0
 20
542.0
 10
737.0
 20
544.0
 10
738.0
 20
545.0
 10
738.0
 20
547.0
 10
749.0
 20
558.0
 10
751.0
 20
558.0
 10
752.0
 20
559.0
 10
762.0
 20
559.0
 10
763.0
 20
558.0
 10
764.0
 20
558.0
 10
766.0
 20
556.0
 10
768.0
 20
556.0
 10
774.0
 20
550.0
 10
774.0
 20
549.0
 10
775.0
 20
548.0
 10
775.0
 20
546.0
 10
776.0
 20
545.0
 10
776.0
 20
544.0
 10
777.0
 20
543.0
 10
777.0
 20
542.0
 10
778.0
 20
541.0
 10
778.0
 20
518.0
 10
779.0
 20
517.0
 10
779.0
 20
515.0
 10
778.0
 20
514.0
 10
778.0
 20
510.0
 10
777.0
 20
509.0
 10
751.0
 20
509.0
 10
750.0
 20
510.0
 10
745.0
 20
510.0
 10
744.0
 20
509.0
 10
738.0
 20
509.0
 10
736.0
 20
511.0
 10
736.0
 20
535.0
 10
736.0
 20
511.0
 10
737.0
 20
510.0
 10
737.0
 20
509.0
 10
744.0
 20
509.0
 10
745.0
 20
510.0
 10
750.0
 20
510.0
 10
751.0
 20
509.0
 10
777.0
 20
509.0
 10
778.0
 20
510.0
 10
778.0
 20
514.0
 10
779.0
 20
515.0
 10
779.0
 20
517.0
 10
778.0
 20
518.0
 10
778.0
 20
541.0
 10
777.0
 20
542.0
 10
777.0
 20
543.0
 10
776.0
 20
544.0
 10
776.0
 20
545.0
 10
775.0
 20
546.0
 10
775.0
 20
549.0
 10
773.0
 20
551.0
 10
773.0
 20
552.0
 10
772.0
 20
552.0
 10
770.0
 20
554.0
 10
770.0
 20
555.0
 10
769.0
 20
555.0
 10
768.0
 20
556.0
 10
767.0
 20
556.0
 10
766.0
 20
557.0
 10
765.0
 20
557.0
 10
764.0
 20
558.0
 10
763.0
 20
558.0
 10
762.0
 20
559.0
 10
763.0
 20
560.0
 10
765.0
 20
560.0
 10
766.0
 20
559.0
 10
769.0
 20
559.0
 10
770.0
 20
558.0
 10
773.0
 20
558.0
 10
775.0
 20
556.0
 10
775.0
 20
555.0
 10
776.0
 20
554.0
 10
776.0
 20
553.0
 10
777.0
 20
552.0
 10
777.0
 20
551.0
 10
778.0
 20
550.0
 10
778.0
 20
549.0
 10
779.0
 20
549.0
 10
781.0
 20
547.0
 10
781.0
 20
546.0
 10
782.0
 20
545.0
 10
782.0
 20
537.0
 10
783.0
 20
536.0
 10
783.0
 20
535.0
 10
785.0
 20
535.0
 10
786.0
 20
534.0
 10
788.0
 20
534.0
 10
786.0
 20
534.0
 10
785.0
 20
535.0
 10
784.0
 20
535.0
 10
782.0
 20
537.0
 10
782.0
 20
546.0
 10
777.0
 20
551.0
 10
777.0
 20
553.0
 10
775.0
 20
555.0
 10
775.0
 20
557.0
 10
774.0
 20
557.0
 10
773.0
 20
558.0
 10
770.0
 20
558.0
 10
769.0
 20
559.0
 10
766.0
 20
559.0
 10
765.0
 20
560.0
 10
764.0
 20
560.0
 10
762.0
 20
562.0
 10
761.0
 20
562.0
 10
760.0
 20
563.0
  0
LWPOLYLINE
  5
710
330
17
100
AcDbEntity
  8
0
100
AcDbPolyline
 90
57
 70
0
 10
982.0
 20
574.0
 10
982.0
 20
571.0
 10
983.0
 20
570.0
 10
983.0
 20
561.0
 10
982.0
 20
560.0
 10
983.0
 20
559.0
 10
983.0
 20
550.0
 10
982.0
 20
549.0
 10
983.0
 20
548.0
 10
983.0
 20
538.0
 10
982.0
 20
537.0
 10
982.0
 20
532.0
 10
983.0
 20
531.0
 10
983.0
 20
507.0
 10
982.0
 20
506.0
 10
983.0
 20
505.0
 10
983.0
 20
502.0
 10
984.0
 20
501.0
 10
984.0
 20
498.0
 10
983.0
 20
497.0
 10
983.0
 20
496.0
 10
984.0
 20
495.0
 10
984.0
 20
486.0
 10
983.0
 20
485.0
 10
983.0
 20
483.0
 10
982.0
 20
482.0
 10
958.0
 20
482.0
 10
955.0
 20
485.0
 10
955.0
 20
490.0
 10
955.0
 20
485.0
 10
956.0
 20
484.0
 10
956.0
 20
483.0
 10
957.0
 20
482.0
 10
983.0
 20
482.0
 10
983.0
 20
485.0
 10
984.0
 20
486.0
 10
984.0
 20
495.0
 10
983.0
 20
496.0
 10
983.0
 20
497.0
 10
984.0
 20
498.0
 10
984.0
 20
501.0
 10
983.0
 20
502.0
 10
983.0
 20
505.0
 10
982.0
 20
506.0
 10
983.0
 20
507.0
 10
983.0
 20
531.0
 10
982.0
 20
532.0
 10
982.0
 20
537.0
 10
983.0
 20
538.0
 10
983.0
 20
548.0
 10
982.0
 20
549.0
 10
983.0
 20
550.0
 10
983.0
 20
559.0
 10
982.0
 20
560.0
 10
983.0
 20
561.0
 10
983.0
 20
570.0
 10
982.0
 20
571.0
  0
LWPOLYLINE
  5
711
330
17
100
AcDbEntity
  8
0
100
AcDbPolyline
 90
134
 70
0
 10
1018.0
 20
576.0
 10
1017.0
 20
575.0
 10
1016.0
 20
575.0
 10
1016.0
 20
574.0
 10
1015.0
 20
573.0
 10
1015.0
 20
528.0
 10
1016.0
 20
527.0
 10
1016.0
 20
521.0
 10
1016.0
 20
527.0
 10
1015.0
 20
528.0
 10
1015.0
 20
573.0
 10
1018.0
 20
576.0
 10
1030.0
 20
576.0
 10
1031.0
 20
575.0
 10
1032.0
 20
575.0
 10
1034.0
 20
573.0
 10
1034.0
 20
570.0
 10
1035.0
 20
569.0
 10
1035.0
 20
568.0
 10
1036.0
 20
567.0
 10
1036.0
 20
564.0
 10
1037.0
 20
563.0
 10
1037.0
 20
559.0
 10
1038.0
 20
558.0
 10
1038.0
 20
556.0
 10
1039.0
 20
555.0
 10
1039.0
 20
550.0
 10
1040.0
 20
549.0
 10
1040.0
 20
548.0
 10
1041.0
 20
547.0
 10
1041.0
 20
542.0
 10
1042.0
 20
541.0
 10
1042.0
 20
539.0
 10
1043.0
 20
538.0
 10
1043.0
 20
535.0
 10
1044.0
 20
534.0
 10
1044.0
 20
533.0
 10
1045.0
 20
532.0
 10
1045.0
 20
529.0
 10
1046.0
 20
528.0
 10
1046.0
 20
526.0
 10
1047.0
 20
525.0
 10
1047.0
 20
523.0
 10
1048.0
 20
522.0
 10
1048.0
 20
520.0
 10
1049.0
 20
519.0
 10
1049.0
 20
516.0
 10
1050.0
 20
515.0
 10
1050.0
 20
514.0
 10
1051.0
 20
513.0
 10
1051.0
 20
510.0
 10
1052.0
 20
509.0
 10
1052.0
 20
505.0
 10
1053.0
 20
504.0
 10
1053.0
 20
502.0
 10
1054.0
 20
501.0
 10
1054.0
 20
498.0
 10
1055.0
 20
497.0
 10
1055.0
 20
493.0
 10
1056.0
 20
492.0
 10
1056.0
 20
486.0
 10
1057.0
 20
485.0
 10
1057.0
 20
482.0
 10
1056.0
 20
481.0
 10
1052.0
 20
481.0
 10
1051.0
 20
482.0
 10
1040.0
 20
482.0
 10
1039.0
 20
481.0
 10
1037.0
 20
481.0
 10
1036.0
 20
482.0
 10
1034.0
 20
482.0
 10
1033.0
 20
481.0
 10
1022.0
 20
481.0
 10
1021.0
 20
482.0
 10
1017.0
 20
482.0
 10
1016.0
 20
483.0
 10
1016.0
 20
482.0
 10
1021.0
 20
482.0
 10
1022.0
 20
481.0
 10
1033.0
 20
481.0
 10
1034.0
 20
482.0
 10
1036.0
 20
482.0
 10
1037.0
 20
481.0
 10
1039.0
 20
481.0
 10
1040.0
 20
482.0
 10
1051.0
 20
482.0
 10
1052.0
 20
481.0
 10
1057.0
 20
481.0
 10
1057.0
 20
485.0
 10
1056.0
 20
486.0
 10
1056.0
 20
492.0
 10
1055.0
 20
493.0
 10
1055.0
 20
497.0
 10
1054.0
 20
498.0
 10
1054.0
 20
501.0
 10
1053.0
 20
502.0
 10
1053.0
 20
504.0
 10
1052.0
 20
505.0
 10
1052.0
 20
509.0
 10
1051.0
 20
510.0
 10
1051.0
 20
513.0
 10
1050.0
 20
514.0
 10
1050.0
 20
515.0
 10
1049.0
 20
516.0
 10
1049.0
 20
519.0
 10
1048.0
 20
520.0
 10
1048.0
 20
522.0
 10
1047.0
 20
523.0
 10
1047.0
 20
525.0
 10
1046.0
 20
526.0
 10
1046.0
 20
528.0
 10
1045.0
 20
529.0
 10
1045.0
 20
533.0
 10
1043.0
 20
535.0
 10
1043.0
 20
538.0
 10
1042.0
 20
539.0
 10
1042.0
 20
541.0
 10
1041.0
 20
542.0
 10
1041.0
 20
548.0
 10
1039.0
 20
550.0
 10
1039.0
 20
555.0
 10
1038.0
 20
556.0
 10
1038.0
 20
558.0
 10
1037.0
 20
559.0
 10
1037.0
 20
563.0
 10
1036.0
 20
564.0
 10
1036.0
 20
567.0
 10
1035.0
 20
568.0
 10
1035.0
 20
569.0
 10
1034.0
 20
570.0
 10
1034.0
 20
573.0
 10
1032.0
 20
575.0
 10
1031.0
 20
575.0
 10
1030.0
 20
576.0
  0
LWPOLYLINE
  5
712
330
17
100
AcDbEntity
  8
0
100
AcDbPolyline
 90
42
 70
0
 10
1005.0
 20
577.0
 10
1004.0
 20
576.0
 10
1002.0
 20
576.0
 10
1004.0
 20
576.0
 10
1005.0
 20
577.0
 10
1006.0
 20
576.0
 10
1009.0
 20
576.0
 10
1012.0
 20
573.0
 10
1012.0
 20
526.0
 10
1013.0
 20
525.0
 10
1013.0
 20
505.0
 10
1012.0
 20
504.0
 10
1012.0
 20
496.0
 10
1013.0
 20
495.0
 10
1013.0
 20
483.0
 10
1012.0
 20
482.0
 10
1005.0
 20
482.0
 10
1004.0
 20
481.0
 10
1001.0
 20
481.0
 10
1000.0
 20
482.0
 10
987.0
 20
482.0
 10
986.0
 20
483.0
 10
986.0
 20
486.0
 10
986.0
 20
483.0
 10
987.0
 20
482.0
 10
1000.0
 20
482.0
 10
1001.0
 20
481.0
 10
1004.0
 20
481.0
 10
1005.0
 20
482.0
 10
1013.0
 20
482.0
 10
1013.0
 20
495.0
 10
1012.0
 20
496.0
 10
1012.0
 20
504.0
 10
1013.0
 20
505.0
 10
1013.0
 20
525.0
 10
1012.0
 20
526.0
 10
1012.0
 20
573.0
 10
1011.0
 20
574.0
 10
1011.0
 20
575.0
 10
1010.0
 20
575.0
 10
1009.0
 20
576.0
 10
1006.0
 20
576.0
  0
LWPOLYLINE
  5
713
330
17
100
AcDbEntity
  8
0
100
AcDbPolyline
 90
145
 70
0
 10
705.0
 20
608.0
 10
705.0
 20
606.0
 10
704.0
 20
605.0
 10
704.0
 20
582.0
 10
705.0
 20
581.0
 10
705.0
 20
578.0
 10
704.0
 20
577.0
 10
704.0
 20
560.0
 10
705.0
 20
559.0
 10
705.0
 20
555.0
 10
704.0
 20
554.0
 10
704.0
 20
551.0
 10
705.0
 20
550.0
 10
705.0
 20
546.0
 10
704.0
 20
545.0
 10
704.0
 20
526.0
 10
705.0
 20
525.0
 10
705.0
 20
521.0
 10
704.0
 20
520.0
 10
704.0
 20
517.0
 10
705.0
 20
516.0
 10
705.0
 20
509.0
 10
704.0
 20
508.0
 10
704.0
 20
507.0
 10
705.0
 20
506.0
 10
705.0
 20
498.0
 10
704.0
 20
497.0
 10
704.0
 20
489.0
 10
705.0
 20
488.0
 10
709.0
 20
488.0
 10
710.0
 20
487.0
 10
715.0
 20
487.0
 10
716.0
 20
488.0
 10
718.0
 20
488.0
 10
720.0
 20
486.0
 10
718.0
 20
484.0
 10
717.0
 20
484.0
 10
716.0
 20
483.0
 10
716.0
 20
482.0
 10
715.0
 20
481.0
 10
715.0
 20
471.0
 10
716.0
 20
470.0
 10
716.0
 20
469.0
 10
717.0
 20
468.0
 10
720.0
 20
468.0
 10
721.0
 20
467.0
 10
721.0
 20
457.0
 10
722.0
 20
456.0
 10
733.0
 20
456.0
 10
734.0
 20
457.0
 10
738.0
 20
457.0
 10
739.0
 20
456.0
 10
739.0
 20
455.0
 10
738.0
 20
454.0
 10
733.0
 20
454.0
 10
744.0
 20
454.0
 10
747.0
 20
451.0
 10
747.0
 20
448.0
 10
747.0
 20
452.0
 10
746.0
 20
453.0
 10
745.0
 20
453.0
 10
744.0
 20
454.0
 10
740.0
 20
454.0
 10
739.0
 20
455.0
 10
740.0
 20
456.0
 10
743.0
 20
456.0
 10
744.0
 20
457.0
 10
748.0
 20
457.0
 10
749.0
 20
456.0
 10
774.0
 20
456.0
 10
775.0
 20
457.0
 10
775.0
 20
466.0
 10
778.0
 20
469.0
 10
782.0
 20
469.0
 10
782.0
 20
483.0
 10
781.0
 20
484.0
 10
780.0
 20
484.0
 10
779.0
 20
485.0
 10
778.0
 20
485.0
 10
779.0
 20
485.0
 10
782.0
 20
482.0
 10
782.0
 20
470.0
 10
781.0
 20
469.0
 10
778.0
 20
469.0
 10
777.0
 20
468.0
 10
776.0
 20
468.0
 10
776.0
 20
467.0
 10
775.0
 20
466.0
 10
775.0
 20
458.0
 10
773.0
 20
456.0
 10
749.0
 20
456.0
 10
748.0
 20
457.0
 10
744.0
 20
457.0
 10
743.0
 20
456.0
 10
739.0
 20
456.0
 10
738.0
 20
457.0
 10
734.0
 20
457.0
 10
733.0
 20
456.0
 10
722.0
 20
456.0
 10
721.0
 20
457.0
 10
721.0
 20
468.0
 10
717.0
 20
468.0
 10
716.0
 20
469.0
 10
716.0
 20
470.0
 10
715.0
 20
471.0
 10
715.0
 20
481.0
 10
719.0
 20
485.0
 10
720.0
 20
485.0
 10
720.0
 20
487.0
 10
719.0
 20
487.0
 10
718.0
 20
488.0
 10
716.0
 20
488.0
 10
715.0
 20
487.0
 10
710.0
 20
487.0
 10
709.0
 20
488.0
 10
705.0
 20
488.0
 10
704.0
 20
489.0
 10
704.0
 20
497.0
 10
705.0
 20
498.0
 10
705.0
 20
506.0
 10
704.0
 20
507.0
 10
704.0
 20
508.0
 10
705.0
 20
509.0
 10
705.0
 20
516.0
 10
704.0
 20
517.0
 10
704.0
 20
520.0
 10
705.0
 20
521.0
 10
705.0
 20
525.0
 10
704.0
 20
526.0
 10
704.0
 20
545.0
 10
705.0
 20
546.0
 10
705.0
 20
550.0
 10
704.0
 20
551.0
 10
704.0
 20
554.0
 10
705.0
 20
555.0
 10
705.0
 20
559.0
 10
704.0
 20
560.0
 10
704.0
 20
577.0
 10
705.0
 20
578.0
 10
705.0
 20
581.0
 10
704.0
 20
582.0
 10
704.0
 20
605.0
 10
705.0
 20
606.0
 10
705.0
 20
607.0
 10
706.0
 20
608.0
  0
LWPOLYLINE
  5
714
330
17
100
AcDbEntity
  8
0
100
AcDbPolyline
 90
47
 70
0
 10
1975.0
 20
637.0
 10
1974.0
 20
636.0
 10
1974.0
 20
588.0
 10
1975.0
 20
587.0
 10
1975.0
 20
559.0
 10
1976.0
 20
558.0
 10
1976.0
 20
546.0
 10
1977.0
 20
545.0
 10
1977.0
 20
543.0
 10
1978.0
 20
542.0
 10
1978.0
 20
541.0
 10
1980.0
 20
539.0
 10
1981.0
 20
539.0
 10
1981.0
 20
543.0
 10
1980.0
 20
544.0
 10
1980.0
 20
548.0
 10
1979.0
 20
549.0
 10
1979.0
 20
555.0
 10
1979.0
 20
549.0
 10
1980.0
 20
548.0
 10
1980.0
 20
544.0
 10
1981.0
 20
543.0
 10
1981.0
 20
540.0
 10
1980.0
 20
539.0
 10
1978.0
 20
541.0
 10
1978.0
 20
542.0
 10
1977.0
 20
543.0
 10
1977.0
 20
545.0
 10
1976.0
 20
546.0
 10
1976.0
 20
558.0
 10
1975.0
 20
559.0
 10
1975.0
 20
587.0
 10
1974.0
 20
588.0
 10
1974.0
 20
636.0
 10
1975.0
 20
637.0
 10
1976.0
 20
637.0
 10
1977.0
 20
636.0
 10
1977.0
 20
595.0
 10
1978.0
 20
594.0
 10
1978.0
 20
591.0
 10
1977.0
 20
590.0
 10
1977.0
 20
587.0
 10
1977.0
 20
590.0
 10
1978.0
 20
591.0
 10
1978.0
 20
594.0
 10
1977.0
 20
595.0
 10
1977.0
 20
637.0
  0
LWPOLYLINE
  5
715
330
17
100
AcDbEntity
  8
0
100
AcDbPolyline
 90
76
 70
0
 10
801.0
 20
691.0
 10
799.0
 20
689.0
 10
795.0
 20
689.0
 10
795.0
 20
688.0
 10
794.0
 20
687.0
 10
794.0
 20
686.0
 10
794.0
 20
687.0
 10
796.0
 20
689.0
 10
799.0
 20
689.0
 10
801.0
 20
691.0
 10
805.0
 20
691.0
 10
806.0
 20
690.0
 10
807.0
 20
690.0
 10
808.0
 20
689.0
 10
808.0
 20
684.0
 10
807.0
 20
683.0
 10
807.0
 20
554.0
 10
808.0
 20
553.0
 10
808.0
 20
524.0
 10
807.0
 20
523.0
 10
808.0
 20
522.0
 10
808.0
 20
513.0
 10
807.0
 20
512.0
 10
808.0
 20
511.0
 10
808.0
 20
500.0
 10
807.0
 20
499.0
 10
807.0
 20
497.0
 10
806.0
 20
496.0
 10
806.0
 20
495.0
 10
807.0
 20
494.0
 10
807.0
 20
488.0
 10
806.0
 20
487.0
 10
804.0
 20
487.0
 10
803.0
 20
488.0
 10
790.0
 20
488.0
 10
789.0
 20
489.0
 10
788.0
 20
489.0
 10
787.0
 20
488.0
 10
784.0
 20
488.0
 10
782.0
 20
490.0
 10
779.0
 20
490.0
 10
776.0
 20
487.0
 10
776.0
 20
486.0
 10
776.0
 20
487.0
 10
777.0
 20
488.0
 10
778.0
 20
488.0
 10
780.0
 20
490.0
 10
781.0
 20
490.0
 10
783.0
 20
488.0
 10
787.0
 20
488.0
 10
788.0
 20
489.0
 10
789.0
 20
489.0
 10
790.0
 20
488.0
 10
803.0
 20
488.0
 10
804.0
 20
487.0
 10
807.0
 20
487.0
 10
807.0
 20
494.0
 10
806.0
 20
495.0
 10
806.0
 20
496.0
 10
807.0
 20
497.0
 10
807.0
 20
499.0
 10
808.0
 20
500.0
 10
808.0
 20
511.0
 10
807.0
 20
512.0
 10
808.0
 20
513.0
 10
808.0
 20
522.0
 10
807.0
 20
523.0
 10
808.0
 20
524.0
 10
808.0
 20
553.0
 10
807.0
 20
554.0
 10
807.0
 20
683.0
 10
808.0
 20
684.0
 10
808.0
 20
689.0
 10
807.0
 20
690.0
 10
806.0
 20
690.0
 10
805.0
 20
691.0
  0
LWPOLYLINE
  5
716
330
17
100
AcDbEntity
  8
0
100
AcDbPolyline
 90
217
 70
0
 10
1135.0
 20
696.0
 10
1137.0
 20
694.0
 10
1137.0
 20
691.0
 10
1136.0
 20
690.0
 10
1136.0
 20
689.0
 10
1137.0
 20
688.0
 10
1137.0
 20
686.0
 10
1135.0
 20
684.0
 10
1131.0
 20
684.0
 10
1130.0
 20
683.0
 10
1129.0
 20
683.0
 10
1129.0
 20
682.0
 10
1128.0
 20
681.0
 10
1129.0
 20
680.0
 10
1132.0
 20
680.0
 10
1133.0
 20
681.0
 10
1134.0
 20
681.0
 10
1135.0
 20
682.0
 10
1136.0
 20
682.0
 10
1137.0
 20
681.0
 10
1137.0
 20
676.0
 10
1136.0
 20
675.0
 10
1136.0
 20
660.0
 10
1137.0
 20
659.0
 10
1137.0
 20
655.0
 10
1135.0
 20
653.0
 10
1134.0
 20
653.0
 10
1133.0
 20
652.0
 10
1132.0
 20
653.0
 10
1119.0
 20
653.0
 10
1118.0
 20
654.0
 10
1119.0
 20
655.0
 10
1121.0
 20
655.0
 10
1123.0
 20
657.0
 10
1122.0
 20
656.0
 10
1121.0
 20
656.0
 10
1120.0
 20
655.0
 10
1119.0
 20
655.0
 10
1118.0
 20
654.0
 10
1119.0
 20
653.0
 10
1132.0
 20
653.0
 10
1133.0
 20
652.0
 10
1133.0
 20
651.0
 10
1134.0
 20
651.0
 10
1136.0
 20
649.0
 10
1136.0
 20
648.0
 10
1137.0
 20
647.0
 10
1137.0
 20
636.0
 10
1136.0
 20
635.0
 10
1136.0
 20
621.0
 10
1135.0
 20
620.0
 10
1136.0
 20
619.0
 10
1136.0
 20
618.0
 10
1137.0
 20
617.0
 10
1137.0
 20
612.0
 10
1136.0
 20
611.0
 10
1136.0
 20
608.0
 10
1137.0
 20
607.0
 10
1137.0
 20
580.0
 10
1136.0
 20
579.0
 10
1134.0
 20
579.0
 10
1133.0
 20
580.0
 10
1132.0
 20
580.0
 10
1131.0
 20
581.0
 10
1130.0
 20
581.0
 10
1129.0
 20
582.0
 10
1127.0
 20
582.0
 10
1126.0
 20
583.0
 10
1125.0
 20
583.0
 10
1124.0
 20
584.0
 10
1123.0
 20
584.0
 10
1122.0
 20
585.0
 10
1121.0
 20
585.0
 10
1120.0
 20
586.0
 10
1119.0
 20
586.0
 10
1118.0
 20
587.0
 10
1116.0
 20
587.0
 10
1115.0
 20
588.0
 10
1114.0
 20
588.0
 10
1113.0
 20
589.0
 10
1112.0
 20
589.0
 10
1110.0
 20
591.0
 10
1109.0
 20
591.0
 10
1108.0
 20
592.0
 10
1105.0
 20
592.0
 10
1104.0
 20
593.0
 10
1101.0
 20
593.0
 10
1099.0
 20
595.0
 10
1098.0
 20
595.0
 10
1097.0
 20
596.0
 10
1095.0
 20
596.0
 10
1094.0
 20
597.0
 10
1092.0
 20
597.0
 10
1091.0
 20
598.0
 10
1090.0
 20
598.0
 10
1087.0
 20
601.0
 10
1086.0
 20
601.0
 10
1085.0
 20
602.0
 10
1083.0
 20
602.0
 10
1082.0
 20
603.0
 10
1079.0
 20
603.0
 10
1078.0
 20
604.0
 10
1077.0
 20
604.0
 10
1076.0
 20
605.0
 10
1074.0
 20
605.0
 10
1076.0
 20
605.0
 10
1077.0
 20
604.0
 10
1078.0
 20
604.0
 10
1079.0
 20
603.0
 10
1082.0
 20
603.0
 10
1083.0
 20
602.0
 10
1085.0
 20
602.0
 10
1089.0
 20
598.0
 10
1091.0
 20
598.0
 10
1092.0
 20
597.0
 10
1094.0
 20
597.0
 10
1095.0
 20
596.0
 10
1097.0
 20
596.0
 10
1099.0
 20
594.0
 10
1100.0
 20
594.0
 10
1101.0
 20
593.0
 10
1104.0
 20
593.0
 10
1105.0
 20
592.0
 10
1108.0
 20
592.0
 10
1111.0
 20
589.0
 10
1113.0
 20
589.0
 10
1114.0
 20
588.0
 10
1115.0
 20
588.0
 10
1116.0
 20
587.0
 10
1118.0
 20
587.0
 10
1119.0
 20
586.0
 10
1120.0
 20
586.0
 10
1121.0
 20
585.0
 10
1122.0
 20
585.0
 10
1123.0
 20
584.0
 10
1124.0
 20
584.0
 10
1125.0
 20
583.0
 10
1126.0
 20
583.0
 10
1127.0
 20
582.0
 10
1129.0
 20
582.0
 10
1130.0
 20
581.0
 10
1131.0
 20
581.0
 10
1132.0
 20
580.0
 10
1133.0
 20
580.0
 10
1134.0
 20
579.0
 10
1136.0
 20
579.0
 10
1137.0
 20
578.0
 10
1137.0
 20
534.0
 10
1136.0
 20
533.0
 10
1136.0
 20
531.0
 10
1137.0
 20
530.0
 10
1137.0
 20
482.0
 10
1136.0
 20
481.0
 10
1130.0
 20
481.0
 10
1129.0
 20
482.0
 10
1128.0
 20
482.0
 10
1127.0
 20
481.0
 10
1121.0
 20
481.0
 10
1120.0
 20
482.0
 10
1117.0
 20
482.0
 10
1110.0
 20
489.0
 10
1112.0
 20
487.0
 10
1112.0
 20
486.0
 10
1113.0
 20
485.0
 10
1114.0
 20
485.0
 10
1116.0
 20
483.0
 10
1116.0
 20
482.0
 10
1120.0
 20
482.0
 10
1121.0
 20
481.0
 10
1127.0
 20
481.0
 10
1128.0
 20
482.0
 10
1129.0
 20
482.0
 10
1130.0
 20
481.0
 10
1137.0
 20
481.0
 10
1137.0
 20
530.0
 10
1136.0
 20
531.0
 10
1136.0
 20
532.0
 10
1137.0
 20
533.0
 10
1137.0
 20
607.0
 10
1136.0
 20
608.0
 10
1136.0
 20
611.0
 10
1137.0
 20
612.0
 10
1137.0
 20
618.0
 10
1135.0
 20
620.0
 10
1136.0
 20
621.0
 10
1136.0
 20
635.0
 10
1137.0
 20
636.0
 10
1137.0
 20
647.0
 10
1136.0
 20
648.0
 10
1136.0
 20
650.0
 10
1135.0
 20
651.0
 10
1135.0
 20
652.0
 10
1136.0
 20
653.0
 10
1136.0
 20
654.0
 10
1137.0
 20
655.0
 10
1137.0
 20
659.0
 10
1136.0
 20
660.0
 10
1136.0
 20
675.0
 10
1137.0
 20
676.0
 10
1137.0
 20
681.0
 10
1136.0
 20
682.0
 10
1135.0
 20
682.0
 10
1134.0
 20
681.0
 10
1133.0
 20
681.0
 10
1132.0
 20
680.0
 10
1129.0
 20
680.0
 10
1128.0
 20
681.0
 10
1131.0
 20
684.0
 10
1136.0
 20
684.0
 10
1136.0
 20
685.0
 10
1137.0
 20
686.0
 10
1137.0
 20
688.0
 10
1136.0
 20
689.0
 10
1136.0
 20
690.0
 10
1137.0
 20
691.0
 10
1137.0
 20
695.0
 10
1136.0
 20
696.0
  0
LWPOLYLINE
  5
717
330
17
100
AcDbEntity
  8
0
100
AcDbPolyline
 90
64
 70
0
 10
689.0
 20
696.0
 10
691.0
 20
694.0
 10
691.0
 20
691.0
 10
692.0
 20
690.0
 10
692.0
 20
674.0
 10
691.0
 20
673.0
 10
692.0
 20
672.0
 10
692.0
 20
665.0
 10
691.0
 20
664.0
 10
691.0
 20
662.0
 10
692.0
 20
661.0
 10
692.0
 20
640.0
 10
691.0
 20
639.0
 10
691.0
 20
635.0
 10
692.0
 20
634.0
 10
692.0
 20
605.0
 10
690.0
 20
603.0
 10
689.0
 20
603.0
 10
684.0
 20
598.0
 10
683.0
 20
598.0
 10
683.0
 20
597.0
 10
679.0
 20
593.0
 10
679.0
 20
592.0
 10
678.0
 20
591.0
 10
679.0
 20
590.0
 10
679.0
 20
589.0
 10
682.0
 20
589.0
 10
683.0
 20
588.0
 10
685.0
 20
588.0
 10
686.0
 20
587.0
 10
687.0
 20
587.0
 10
688.0
 20
586.0
 10
692.0
 20
586.0
 10
688.0
 20
586.0
 10
687.0
 20
587.0
 10
686.0
 20
587.0
 10
685.0
 20
588.0
 10
683.0
 20
588.0
 10
682.0
 20
589.0
 10
680.0
 20
589.0
 10
678.0
 20
591.0
 10
679.0
 20
592.0
 10
679.0
 20
593.0
 10
681.0
 20
595.0
 10
682.0
 20
595.0
 10
682.0
 20
596.0
 10
685.0
 20
599.0
 10
686.0
 20
599.0
 10
692.0
 20
605.0
 10
692.0
 20
634.0
 10
691.0
 20
635.0
 10
691.0
 20
639.0
 10
692.0
 20
640.0
 10
692.0
 20
661.0
 10
691.0
 20
662.0
 10
691.0
 20
664.0
 10
692.0
 20
665.0
 10
692.0
 20
672.0
 10
691.0
 20
673.0
 10
692.0
 20
674.0
 10
692.0
 20
690.0
 10
691.0
 20
691.0
 10
691.0
 20
695.0
 10
690.0
 20
696.0
  0
LWPOLYLINE
  5
718
330
17
100
AcDbEntity
  8
0
100
AcDbPolyline
 90
168
 70
0
 10
678.0
 20
720.0
 10
689.0
 20
709.0
 10
702.0
 20
709.0
 10
704.0
 20
707.0
 10
704.0
 20
705.0
 10
705.0
 20
704.0
 10
705.0
 20
703.0
 10
727.0
 20
703.0
 10
728.0
 20
702.0
 10
729.0
 20
702.0
 10
730.0
 20
701.0
 10
730.0
 20
698.0
 10
731.0
 20
697.0
 10
731.0
 20
691.0
 10
732.0
 20
690.0
 10
732.0
 20
686.0
 10
731.0
 20
685.0
 10
730.0
 20
685.0
 10
729.0
 20
686.0
 10
729.0
 20
688.0
 10
728.0
 20
688.0
 10
727.0
 20
689.0
 10
726.0
 20
689.0
 10
725.0
 20
690.0
 10
722.0
 20
690.0
 10
721.0
 20
691.0
 10
720.0
 20
690.0
 10
709.0
 20
690.0
 10
708.0
 20
691.0
 10
706.0
 20
691.0
 10
705.0
 20
690.0
 10
704.0
 20
690.0
 10
704.0
 20
689.0
 10
703.0
 20
688.0
 10
703.0
 20
685.0
 10
704.0
 20
684.0
 10
704.0
 20
678.0
 10
703.0
 20
677.0
 10
703.0
 20
675.0
 10
704.0
 20
674.0
 10
704.0
 20
654.0
 10
705.0
 20
653.0
 10
705.0
 20
652.0
 10
715.0
 20
652.0
 10
716.0
 20
653.0
 10
717.0
 20
652.0
 10
724.0
 20
652.0
 10
725.0
 20
651.0
 10
727.0
 20
651.0
 10
729.0
 20
653.0
 10
732.0
 20
653.0
 10
733.0
 20
652.0
 10
734.0
 20
652.0
 10
737.0
 20
649.0
 10
738.0
 20
649.0
 10
739.0
 20
648.0
 10
739.0
 20
644.0
 10
738.0
 20
643.0
 10
738.0
 20
641.0
 10
739.0
 20
640.0
 10
739.0
 20
634.0
 10
738.0
 20
633.0
 10
739.0
 20
632.0
 10
739.0
 20
626.0
 10
738.0
 20
625.0
 10
738.0
 20
623.0
 10
739.0
 20
622.0
 10
739.0
 20
615.0
 10
738.0
 20
614.0
 10
738.0
 20
611.0
 10
736.0
 20
609.0
 10
735.0
 20
609.0
 10
733.0
 20
607.0
 10
733.0
 20
606.0
 10
731.0
 20
604.0
 10
730.0
 20
604.0
 10
728.0
 20
606.0
 10
728.0
 20
607.0
 10
727.0
 20
608.0
 10
722.0
 20
608.0
 10
721.0
 20
607.0
 10
721.0
 20
606.0
 10
721.0
 20
607.0
 10
722.0
 20
608.0
 10
727.0
 20
608.0
 10
728.0
 20
607.0
 10
728.0
 20
606.0
 10
730.0
 20
604.0
 10
732.0
 20
604.0
 10
732.0
 20
605.0
 10
737.0
 20
610.0
 10
738.0
 20
610.0
 10
738.0
 20
614.0
 10
739.0
 20
615.0
 10
739.0
 20
622.0
 10
738.0
 20
623.0
 10
738.0
 20
625.0
 10
739.0
 20
626.0
 10
739.0
 20
632.0
 10
738.0
 20
633.0
 10
739.0
 20
634.0
 10
739.0
 20
640.0
 10
738.0
 20
641.0
 10
738.0
 20
643.0
 10
739.0
 20
644.0
 10
739.0
 20
648.0
 10
736.0
 20
651.0
 10
735.0
 20
651.0
 10
734.0
 20
652.0
 10
733.0
 20
652.0
 10
732.0
 20
653.0
 10
729.0
 20
653.0
 10
728.0
 20
652.0
 10
727.0
 20
652.0
 10
726.0
 20
651.0
 10
725.0
 20
651.0
 10
724.0
 20
652.0
 10
717.0
 20
652.0
 10
716.0
 20
653.0
 10
715.0
 20
652.0
 10
706.0
 20
652.0
 10
704.0
 20
654.0
 10
704.0
 20
674.0
 10
703.0
 20
675.0
 10
703.0
 20
677.0
 10
704.0
 20
678.0
 10
704.0
 20
684.0
 10
703.0
 20
685.0
 10
703.0
 20
688.0
 10
706.0
 20
691.0
 10
708.0
 20
691.0
 10
709.0
 20
690.0
 10
720.0
 20
690.0
 10
721.0
 20
691.0
 10
722.0
 20
690.0
 10
725.0
 20
690.0
 10
726.0
 20
689.0
 10
727.0
 20
689.0
 10
729.0
 20
687.0
 10
729.0
 20
686.0
 10
730.0
 20
685.0
 10
730.0
 20
682.0
 10
732.0
 20
682.0
 10
733.0
 20
681.0
 10
732.0
 20
680.0
 10
732.0
 20
679.0
 10
734.0
 20
679.0
 10
734.0
 20
681.0
 10
733.0
 20
681.0
 10
732.0
 20
682.0
 10
732.0
 20
690.0
 10
731.0
 20
691.0
 10
731.0
 20
697.0
 10
730.0
 20
698.0
 10
730.0
 20
701.0
 10
729.0
 20
702.0
 10
728.0
 20
702.0
 10
727.0
 20
703.0
 10
706.0
 20
703.0
 10
704.0
 20
705.0
 10
704.0
 20
708.0
 10
703.0
 20
708.0
 10
702.0
 20
709.0
 10
689.0
 20
709.0
 10
686.0
 20
712.0
 10
686.0
 20
713.0
 10
683.0
 20
716.0
 10
682.0
 20
716.0
  0
LWPOLYLINE
  5
719
330
17
100
AcDbEntity
  8
0
100
AcDbPolyline
 90
126
 70
0
 10
1164.0
 20
726.0
 10
1163.0
 20
725.0
 10
1162.0
 20
725.0
 10
1162.0
 20
724.0
 10
1161.0
 20
723.0
 10
1161.0
 20
713.0
 10
1162.0
 20
712.0
 10
1162.0
 20
685.0
 10
1161.0
 20
684.0
 10
1162.0
 20
683.0
 10
1162.0
 20
678.0
 10
1161.0
 20
677.0
 10
1161.0
 20
672.0
 10
1162.0
 20
671.0
 10
1162.0
 20
627.0
 10
1163.0
 20
626.0
 10
1163.0
 20
623.0
 10
1162.0
 20
622.0
 10
1162.0
 20
609.0
 10
1163.0
 20
608.0
 10
1163.0
 20
600.0
 10
1162.0
 20
599.0
 10
1162.0
 20
592.0
 10
1163.0
 20
591.0
 10
1163.0
 20
564.0
 10
1162.0
 20
563.0
 10
1162.0
 20
556.0
 10
1163.0
 20
555.0
 10
1163.0
 20
552.0
 10
1164.0
 20
551.0
 10
1164.0
 20
548.0
 10
1163.0
 20
547.0
 10
1163.0
 20
513.0
 10
1162.0
 20
512.0
 10
1163.0
 20
511.0
 10
1163.0
 20
491.0
 10
1164.0
 20
490.0
 10
1164.0
 20
489.0
 10
1165.0
 20
488.0
 10
1170.0
 20
488.0
 10
1171.0
 20
487.0
 10
1199.0
 20
487.0
 10
1200.0
 20
488.0
 10
1205.0
 20
488.0
 10
1206.0
 20
487.0
 10
1230.0
 20
487.0
 10
1231.0
 20
486.0
 10
1238.0
 20
486.0
 10
1239.0
 20
487.0
 10
1240.0
 20
486.0
 10
1248.0
 20
486.0
 10
1249.0
 20
487.0
 10
1282.0
 20
487.0
 10
1283.0
 20
488.0
 10
1286.0
 20
488.0
 10
1287.0
 20
487.0
 10
1291.0
 20
487.0
 10
1292.0
 20
488.0
 10
1299.0
 20
488.0
 10
1300.0
 20
487.0
 10
1301.0
 20
487.0
 10
1300.0
 20
487.0
 10
1299.0
 20
488.0
 10
1292.0
 20
488.0
 10
1291.0
 20
487.0
 10
1287.0
 20
487.0
 10
1286.0
 20
488.0
 10
1283.0
 20
488.0
 10
1282.0
 20
487.0
 10
1249.0
 20
487.0
 10
1248.0
 20
486.0
 10
1240.0
 20
486.0
 10
1239.0
 20
487.0
 10
1238.0
 20
486.0
 10
1231.0
 20
486.0
 10
1230.0
 20
487.0
 10
1206.0
 20
487.0
 10
1205.0
 20
488.0
 10
1200.0
 20
488.0
 10
1199.0
 20
487.0
 10
1171.0
 20
487.0
 10
1170.0
 20
488.0
 10
1166.0
 20
488.0
 10
1163.0
 20
491.0
 10
1163.0
 20
511.0
 10
1162.0
 20
512.0
 10
1163.0
 20
513.0
 10
1163.0
 20
547.0
 10
1164.0
 20
548.0
 10
1164.0
 20
551.0
 10
1163.0
 20
552.0
 10
1163.0
 20
555.0
 10
1162.0
 20
556.0
 10
1162.0
 20
563.0
 10
1163.0
 20
564.0
 10
1163.0
 20
591.0
 10
1162.0
 20
592.0
 10
1162.0
 20
599.0
 10
1163.0
 20
600.0
 10
1163.0
 20
608.0
 10
1162.0
 20
609.0
 10
1162.0
 20
622.0
 10
1163.0
 20
623.0
 10
1163.0
 20
626.0
 10
1162.0
 20
627.0
 10
1162.0
 20
671.0
 10
1161.0
 20
672.0
 10
1161.0
 20
677.0
 10
1162.0
 20
678.0
 10
1162.0
 20
683.0
 10
1161.0
 20
684.0
 10
1162.0
 20
685.0
 10
1162.0
 20
712.0
 10
1161.0
 20
713.0
 10
1161.0
 20
723.0
 10
1164.0
 20
726.0
 10
1170.0
 20
726.0
 10
1172.0
 20
724.0
 10
1172.0
 20
712.0
 10
1173.0
 20
711.0
 10
1174.0
 20
711.0
 10
1173.0
 20
711.0
 10
1172.0
 20
712.0
 10
1172.0
 20
725.0
 10
1171.0
 20
725.0
 10
1170.0
 20
726.0
  0
LWPOLYLINE
  5
71A
330
17
100
AcDbEntity
  8
0
100
AcDbPolyline
 90
155
 70
0
 10
1269.0
 20
728.0
 10
1268.0
 20
727.0
 10
1260.0
 20
727.0
 10
1259.0
 20
726.0
 10
1258.0
 20
726.0
 10
1252.0
 20
720.0
 10
1251.0
 20
720.0
 10
1251.0
 20
719.0
 10
1249.0
 20
717.0
 10
1249.0
 20
716.0
 10
1250.0
 20
717.0
 10
1250.0
 20
718.0
 10
1253.0
 20
721.0
 10
1254.0
 20
721.0
 10
1260.0
 20
727.0
 10
1268.0
 20
727.0
 10
1269.0
 20
728.0
 10
1271.0
 20
728.0
 10
1272.0
 20
727.0
 10
1287.0
 20
727.0
 10
1288.0
 20
728.0
 10
1290.0
 20
728.0
 10
1291.0
 20
727.0
 10
1342.0
 20
727.0
 10
1343.0
 20
728.0
 10
1355.0
 20
728.0
 10
1356.0
 20
727.0
 10
1368.0
 20
727.0
 10
1369.0
 20
728.0
 10
1373.0
 20
728.0
 10
1374.0
 20
727.0
 10
1377.0
 20
727.0
 10
1378.0
 20
728.0
 10
1386.0
 20
728.0
 10
1387.0
 20
727.0
 10
1406.0
 20
727.0
 10
1407.0
 20
728.0
 10
1434.0
 20
728.0
 10
1435.0
 20
727.0
 10
1474.0
 20
727.0
 10
1475.0
 20
728.0
 10
1479.0
 20
728.0
 10
1480.0
 20
727.0
 10
1536.0
 20
727.0
 10
1537.0
 20
726.0
 10
1537.0
 20
716.0
 10
1538.0
 20
715.0
 10
1538.0
 20
624.0
 10
1539.0
 20
623.0
 10
1539.0
 20
592.0
 10
1538.0
 20
591.0
 10
1538.0
 20
590.0
 10
1539.0
 20
589.0
 10
1539.0
 20
576.0
 10
1538.0
 20
575.0
 10
1538.0
 20
574.0
 10
1539.0
 20
573.0
 10
1539.0
 20
489.0
 10
1538.0
 20
488.0
 10
1530.0
 20
488.0
 10
1529.0
 20
487.0
 10
1526.0
 20
487.0
 10
1525.0
 20
488.0
 10
1449.0
 20
488.0
 10
1448.0
 20
487.0
 10
1438.0
 20
487.0
 10
1437.0
 20
488.0
 10
1436.0
 20
487.0
 10
1429.0
 20
487.0
 10
1428.0
 20
488.0
 10
1410.0
 20
488.0
 10
1409.0
 20
487.0
 10
1409.0
 20
485.0
 10
1410.0
 20
484.0
 10
1410.0
 20
481.0
 10
1411.0
 20
480.0
 10
1411.0
 20
473.0
 10
1410.0
 20
472.0
 10
1405.0
 20
472.0
 10
1404.0
 20
473.0
 10
1403.0
 20
473.0
 10
1402.0
 20
472.0
 10
1389.0
 20
472.0
 10
1388.0
 20
473.0
 10
1387.0
 20
473.0
 10
1386.0
 20
472.0
 10
1385.0
 20
472.0
 10
1385.0
 20
471.0
 10
1387.0
 20
473.0
 10
1388.0
 20
473.0
 10
1389.0
 20
472.0
 10
1402.0
 20
472.0
 10
1403.0
 20
473.0
 10
1404.0
 20
473.0
 10
1405.0
 20
472.0
 10
1410.0
 20
472.0
 10
1411.0
 20
473.0
 10
1411.0
 20
480.0
 10
1410.0
 20
481.0
 10
1410.0
 20
485.0
 10
1409.0
 20
486.0
 10
1409.0
 20
487.0
 10
1410.0
 20
488.0
 10
1428.0
 20
488.0
 10
1429.0
 20
487.0
 10
1436.0
 20
487.0
 10
1437.0
 20
488.0
 10
1438.0
 20
487.0
 10
1448.0
 20
487.0
 10
1449.0
 20
488.0
 10
1525.0
 20
488.0
 10
1526.0
 20
487.0
 10
1529.0
 20
487.0
 10
1530.0
 20
488.0
 10
1539.0
 20
488.0
 10
1539.0
 20
573.0
 10
1538.0
 20
574.0
 10
1538.0
 20
575.0
 10
1539.0
 20
576.0
 10
1539.0
 20
589.0
 10
1538.0
 20
590.0
 10
1538.0
 20
591.0
 10
1539.0
 20
592.0
 10
1539.0
 20
623.0
 10
1538.0
 20
624.0
 10
1538.0
 20
715.0
 10
1537.0
 20
716.0
 10
1537.0
 20
726.0
 10
1536.0
 20
727.0
 10
1480.0
 20
727.0
 10
1479.0
 20
728.0
 10
1475.0
 20
728.0
 10
1474.0
 20
727.0
 10
1435.0
 20
727.0
 10
1434.0
 20
728.0
 10
1407.0
 20
728.0
 10
1406.0
 20
727.0
 10
1387.0
 20
727.0
 10
1386.0
 20
728.0
 10
1378.0
 20
728.0
 10
1377.0
 20
727.0
 10
1374.0
 20
727.0
 10
1373.0
 20
728.0
 10
1369.0
 20
728.0
 10
1368.0
 20
727.0
 10
1356.0
 20
727.0
 10
1355.0
 20
728.0
 10
1343.0
 20
728.0
 10
1342.0
 20
727.0
 10
1291.0
 20
727.0
 10
1290.0
 20
728.0
 10
1288.0
 20
728.0
 10
1287.0
 20
727.0
 10
1272.0
 20
727.0
 10
1271.0
 20
728.0
  0
LWPOLYLINE
  5
71B
330
17
100
AcDbEntity
  8
0
100
AcDbPolyline
 90
150
 70
0
 10
1567.0
 20
745.0
 10
1567.0
 20
740.0
 10
1568.0
 20
739.0
 10
1568.0
 20
736.0
 10
1567.0
 20
735.0
 10
1567.0
 20
727.0
 10
1568.0
 20
726.0
 10
1568.0
 20
715.0
 10
1567.0
 20
714.0
 10
1567.0
 20
697.0
 10
1568.0
 20
696.0
 10
1568.0
 20
634.0
 10
1569.0
 20
633.0
 10
1569.0
 20
557.0
 10
1568.0
 20
556.0
 10
1569.0
 20
555.0
 10
1569.0
 20
537.0
 10
1570.0
 20
536.0
 10
1570.0
 20
534.0
 10
1569.0
 20
533.0
 10
1569.0
 20
530.0
 10
1570.0
 20
529.0
 10
1570.0
 20
522.0
 10
1569.0
 20
521.0
 10
1569.0
 20
519.0
 10
1570.0
 20
518.0
 10
1570.0
 20
507.0
 10
1569.0
 20
506.0
 10
1569.0
 20
488.0
 10
1570.0
 20
487.0
 10
1570.0
 20
480.0
 10
1569.0
 20
479.0
 10
1569.0
 20
469.0
 10
1570.0
 20
468.0
 10
1570.0
 20
459.0
 10
1567.0
 20
456.0
 10
1564.0
 20
456.0
 10
1563.0
 20
457.0
 10
1555.0
 20
457.0
 10
1554.0
 20
456.0
 10
1552.0
 20
456.0
 10
1551.0
 20
457.0
 10
1538.0
 20
457.0
 10
1537.0
 20
458.0
 10
1535.0
 20
458.0
 10
1534.0
 20
457.0
 10
1524.0
 20
457.0
 10
1523.0
 20
458.0
 10
1521.0
 20
458.0
 10
1520.0
 20
457.0
 10
1493.0
 20
457.0
 10
1492.0
 20
458.0
 10
1491.0
 20
458.0
 10
1490.0
 20
457.0
 10
1478.0
 20
457.0
 10
1477.0
 20
458.0
 10
1476.0
 20
458.0
 10
1475.0
 20
457.0
 10
1463.0
 20
457.0
 10
1462.0
 20
458.0
 10
1461.0
 20
458.0
 10
1460.0
 20
457.0
 10
1426.0
 20
457.0
 10
1425.0
 20
456.0
 10
1420.0
 20
456.0
 10
1419.0
 20
457.0
 10
1413.0
 20
457.0
 10
1412.0
 20
456.0
 10
1405.0
 20
456.0
 10
1404.0
 20
457.0
 10
1404.0
 20
464.0
 10
1405.0
 20
465.0
 10
1405.0
 20
468.0
 10
1403.0
 20
470.0
 10
1401.0
 20
470.0
 10
1402.0
 20
470.0
 10
1405.0
 20
467.0
 10
1405.0
 20
465.0
 10
1404.0
 20
464.0
 10
1404.0
 20
457.0
 10
1405.0
 20
456.0
 10
1412.0
 20
456.0
 10
1413.0
 20
457.0
 10
1419.0
 20
457.0
 10
1420.0
 20
456.0
 10
1425.0
 20
456.0
 10
1426.0
 20
457.0
 10
1460.0
 20
457.0
 10
1461.0
 20
458.0
 10
1462.0
 20
458.0
 10
1463.0
 20
457.0
 10
1475.0
 20
457.0
 10
1476.0
 20
458.0
 10
1477.0
 20
458.0
 10
1478.0
 20
457.0
 10
1490.0
 20
457.0
 10
1491.0
 20
458.0
 10
1492.0
 20
458.0
 10
1493.0
 20
457.0
 10
1520.0
 20
457.0
 10
1521.0
 20
458.0
 10
1523.0
 20
458.0
 10
1524.0
 20
457.0
 10
1534.0
 20
457.0
 10
1535.0
 20
458.0
 10
1537.0
 20
458.0
 10
1538.0
 20
457.0
 10
1551.0
 20
457.0
 10
1552.0
 20
456.0
 10
1554.0
 20
456.0
 10
1555.0
 20
457.0
 10
1563.0
 20
457.0
 10
1564.0
 20
456.0
 10
1567.0
 20
456.0
 10
1568.0
 20
457.0
 10
1569.0
 20
457.0
 10
1570.0
 20
458.0
 10
1570.0
 20
468.0
 10
1569.0
 20
469.0
 10
1569.0
 20
479.0
 10
1570.0
 20
480.0
 10
1570.0
 20
487.0
 10
1569.0
 20
488.0
 10
1569.0
 20
506.0
 10
1570.0
 20
507.0
 10
1570.0
 20
518.0
 10
1569.0
 20
519.0
 10
1569.0
 20
521.0
 10
1570.0
 20
522.0
 10
1570.0
 20
529.0
 10
1569.0
 20
530.0
 10
1569.0
 20
533.0
 10
1570.0
 20
534.0
 10
1570.0
 20
536.0
 10
1569.0
 20
537.0
 10
1569.0
 20
555.0
 10
1568.0
 20
556.0
 10
1569.0
 20
557.0
 10
1569.0
 20
633.0
 10
1568.0
 20
634.0
 10
1568.0
 20
696.0
 10
1567.0
 20
697.0
 10
1567.0
 20
714.0
 10
1568.0
 20
715.0
 10
1568.0
 20
726.0
 10
1567.0
 20
727.0
 10
1567.0
 20
735.0
 10
1568.0
 20
736.0
 10
1568.0
 20
739.0
 10
1567.0
 20
740.0
  0
LWPOLYLINE
  5
71C
330
17
100
AcDbEntity
  8
0
100
AcDbPolyline
 90
131
 70
0
 10
1123.0
 20
769.0
 10
1121.0
 20
767.0
 10
1118.0
 20
767.0
 10
1117.0
 20
768.0
 10
1092.0
 20
768.0
 10
1091.0
 20
767.0
 10
1090.0
 20
767.0
 10
1089.0
 20
766.0
 10
1089.0
 20
765.0
 10
1088.0
 20
764.0
 10
1088.0
 20
763.0
 10
1086.0
 20
761.0
 10
1088.0
 20
763.0
 10
1088.0
 20
764.0
 10
1092.0
 20
768.0
 10
1117.0
 20
768.0
 10
1118.0
 20
767.0
 10
1121.0
 20
767.0
 10
1123.0
 20
769.0
 10
1133.0
 20
769.0
 10
1136.0
 20
766.0
 10
1136.0
 20
757.0
 10
1131.0
 20
752.0
 10
1130.0
 20
752.0
 10
1123.0
 20
745.0
 10
1122.0
 20
745.0
 10
1121.0
 20
744.0
 10
1120.0
 20
744.0
 10
1120.0
 20
743.0
 10
1111.0
 20
734.0
 10
1110.0
 20
734.0
 10
1109.0
 20
735.0
 10
1109.0
 20
737.0
 10
1107.0
 20
737.0
 10
1107.0
 20
734.0
 10
1108.0
 20
733.0
 10
1107.0
 20
732.0
 10
1107.0
 20
731.0
 10
1106.0
 20
730.0
 10
1106.0
 20
727.0
 10
1109.0
 20
727.0
 10
1109.0
 20
728.0
 10
1121.0
 20
740.0
 10
1122.0
 20
740.0
 10
1124.0
 20
742.0
 10
1125.0
 20
742.0
 10
1126.0
 20
741.0
 10
1129.0
 20
741.0
 10
1126.0
 20
741.0
 10
1125.0
 20
742.0
 10
1124.0
 20
742.0
 10
1123.0
 20
741.0
 10
1122.0
 20
741.0
 10
1113.0
 20
732.0
 10
1112.0
 20
732.0
 10
1110.0
 20
730.0
 10
1110.0
 20
729.0
 10
1108.0
 20
727.0
 10
1107.0
 20
727.0
 10
1106.0
 20
728.0
 10
1106.0
 20
730.0
 10
1107.0
 20
731.0
 10
1107.0
 20
732.0
 10
1108.0
 20
733.0
 10
1107.0
 20
734.0
 10
1108.0
 20
735.0
 10
1109.0
 20
735.0
 10
1110.0
 20
734.0
 10
1111.0
 20
734.0
 10
1118.0
 20
741.0
 10
1119.0
 20
741.0
 10
1119.0
 20
742.0
 10
1122.0
 20
745.0
 10
1124.0
 20
745.0
 10
1125.0
 20
746.0
 10
1127.0
 20
744.0
 10
1128.0
 20
744.0
 10
1129.0
 20
743.0
 10
1131.0
 20
743.0
 10
1132.0
 20
742.0
 10
1132.0
 20
741.0
 10
1132.0
 20
742.0
 10
1131.0
 20
743.0
 10
1129.0
 20
743.0
 10
1128.0
 20
744.0
 10
1127.0
 20
744.0
 10
1126.0
 20
745.0
 10
1128.0
 20
747.0
 10
1126.0
 20
745.0
 10
1125.0
 20
746.0
 10
1125.0
 20
747.0
 10
1130.0
 20
752.0
 10
1131.0
 20
752.0
 10
1133.0
 20
754.0
 10
1134.0
 20
754.0
 10
1135.0
 20
753.0
 10
1130.0
 20
748.0
 10
1135.0
 20
753.0
 10
1136.0
 20
752.0
 10
1136.0
 20
711.0
 10
1137.0
 20
710.0
 10
1137.0
 20
706.0
 10
1136.0
 20
705.0
 10
1136.0
 20
701.0
 10
1132.0
 20
697.0
 10
1131.0
 20
697.0
 10
1130.0
 20
696.0
 10
1129.0
 20
696.0
 10
1128.0
 20
695.0
 10
1127.0
 20
695.0
 10
1126.0
 20
694.0
 10
1127.0
 20
695.0
 10
1128.0
 20
695.0
 10
1129.0
 20
696.0
 10
1130.0
 20
696.0
 10
1131.0
 20
697.0
 10
1132.0
 20
697.0
 10
1133.0
 20
698.0
 10
1134.0
 20
698.0
 10
1136.0
 20
700.0
 10
1136.0
 20
705.0
 10
1137.0
 20
706.0
 10
1137.0
 20
710.0
 10
1136.0
 20
711.0
 10
1136.0
 20
752.0
 10
1134.0
 20
754.0
 10
1136.0
 20
756.0
 10
1136.0
 20
767.0
 10
1135.0
 20
768.0
 10
1134.0
 20
768.0
 10
1133.0
 20
769.0
  0
LWPOLYLINE
  5
71D
330
17
100
AcDbEntity
  8
0
100
AcDbPolyline
 90
105
 70
0
 10
1040.0
 20
769.0
 10
1039.0
 20
768.0
 10
1038.0
 20
768.0
 10
1037.0
 20
767.0
 10
1036.0
 20
767.0
 10
1036.0
 20
766.0
 10
1035.0
 20
765.0
 10
1035.0
 20
760.0
 10
1036.0
 20
759.0
 10
1036.0
 20
757.0
 10
1037.0
 20
756.0
 10
1037.0
 20
745.0
 10
1038.0
 20
744.0
 10
1052.0
 20
744.0
 10
1053.0
 20
743.0
 10
1053.0
 20
742.0
 10
1052.0
 20
741.0
 10
1033.0
 20
741.0
 10
1053.0
 20
741.0
 10
1053.0
 20
743.0
 10
1052.0
 20
744.0
 10
1038.0
 20
744.0
 10
1037.0
 20
745.0
 10
1037.0
 20
756.0
 10
1036.0
 20
757.0
 10
1036.0
 20
759.0
 10
1035.0
 20
760.0
 10
1035.0
 20
765.0
 10
1038.0
 20
768.0
 10
1039.0
 20
768.0
 10
1040.0
 20
769.0
 10
1041.0
 20
769.0
 10
1042.0
 20
768.0
 10
1045.0
 20
768.0
 10
1046.0
 20
769.0
 10
1064.0
 20
769.0
 10
1065.0
 20
768.0
 10
1072.0
 20
768.0
 10
1073.0
 20
769.0
 10
1079.0
 20
769.0
 10
1080.0
 20
768.0
 10
1081.0
 20
769.0
 10
1082.0
 20
768.0
 10
1083.0
 20
769.0
 10
1084.0
 20
769.0
 10
1086.0
 20
767.0
 10
1086.0
 20
765.0
 10
1085.0
 20
764.0
 10
1085.0
 20
763.0
 10
1084.0
 20
762.0
 10
1084.0
 20
761.0
 10
1083.0
 20
760.0
 10
1083.0
 20
759.0
 10
1082.0
 20
758.0
 10
1082.0
 20
757.0
 10
1078.0
 20
753.0
 10
1078.0
 20
752.0
 10
1077.0
 20
751.0
 10
1077.0
 20
749.0
 10
1076.0
 20
748.0
 10
1076.0
 20
747.0
 10
1074.0
 20
745.0
 10
1070.0
 20
745.0
 10
1069.0
 20
744.0
 10
1064.0
 20
744.0
 10
1062.0
 20
742.0
 10
1063.0
 20
741.0
 10
1065.0
 20
741.0
 10
1063.0
 20
741.0
 10
1062.0
 20
742.0
 10
1064.0
 20
744.0
 10
1069.0
 20
744.0
 10
1070.0
 20
745.0
 10
1075.0
 20
745.0
 10
1076.0
 20
746.0
 10
1076.0
 20
748.0
 10
1077.0
 20
749.0
 10
1077.0
 20
751.0
 10
1080.0
 20
754.0
 10
1080.0
 20
755.0
 10
1082.0
 20
757.0
 10
1082.0
 20
758.0
 10
1083.0
 20
759.0
 10
1083.0
 20
760.0
 10
1084.0
 20
761.0
 10
1084.0
 20
762.0
 10
1085.0
 20
763.0
 10
1085.0
 20
764.0
 10
1086.0
 20
765.0
 10
1086.0
 20
768.0
 10
1085.0
 20
768.0
 10
1084.0
 20
769.0
 10
1083.0
 20
769.0
 10
1082.0
 20
768.0
 10
1081.0
 20
769.0
 10
1080.0
 20
768.0
 10
1079.0
 20
769.0
 10
1073.0
 20
769.0
 10
1072.0
 20
768.0
 10
1065.0
 20
768.0
 10
1064.0
 20
769.0
 10
1046.0
 20
769.0
 10
1045.0
 20
768.0
 10
1042.0
 20
768.0
 10
1041.0
 20
769.0
  0
LWPOLYLINE
  5
71E
330
17
100
AcDbEntity
  8
0
100
AcDbPolyline
 90
104
 70
0
 10
1000.0
 20
769.0
 10
999.0
 20
768.0
 10
998.0
 20
768.0
 10
998.0
 20
767.0
 10
997.0
 20
766.0
 10
997.0
 20
765.0
 10
997.0
 20
766.0
 10
1000.0
 20
769.0
 10
1005.0
 20
769.0
 10
1007.0
 20
767.0
 10
1009.0
 20
767.0
 10
1011.0
 20
769.0
 10
1029.0
 20
769.0
 10
1031.0
 20
767.0
 10
1031.0
 20
761.0
 10
1030.0
 20
760.0
 10
1030.0
 20
754.0
 10
1029.0
 20
753.0
 10
1029.0
 20
747.0
 10
1028.0
 20
746.0
 10
1028.0
 20
736.0
 10
1027.0
 20
735.0
 10
1027.0
 20
733.0
 10
1026.0
 20
732.0
 10
1026.0
 20
725.0
 10
1025.0
 20
724.0
 10
1025.0
 20
722.0
 10
1024.0
 20
721.0
 10
1024.0
 20
714.0
 10
1023.0
 20
713.0
 10
1023.0
 20
707.0
 10
1022.0
 20
706.0
 10
1022.0
 20
703.0
 10
1021.0
 20
702.0
 10
1021.0
 20
695.0
 10
1020.0
 20
694.0
 10
1020.0
 20
688.0
 10
1019.0
 20
687.0
 10
1019.0
 20
679.0
 10
1018.0
 20
678.0
 10
1018.0
 20
677.0
 10
1017.0
 20
676.0
 10
1017.0
 20
675.0
 10
1016.0
 20
674.0
 10
1010.0
 20
674.0
 10
1009.0
 20
673.0
 10
1007.0
 20
673.0
 10
1006.0
 20
674.0
 10
999.0
 20
674.0
 10
998.0
 20
675.0
 10
998.0
 20
693.0
 10
999.0
 20
694.0
 10
999.0
 20
696.0
 10
998.0
 20
697.0
 10
998.0
 20
719.0
 10
998.0
 20
697.0
 10
999.0
 20
696.0
 10
999.0
 20
694.0
 10
998.0
 20
693.0
 10
998.0
 20
675.0
 10
999.0
 20
674.0
 10
1006.0
 20
674.0
 10
1007.0
 20
673.0
 10
1009.0
 20
673.0
 10
1010.0
 20
674.0
 10
1017.0
 20
674.0
 10
1017.0
 20
676.0
 10
1018.0
 20
677.0
 10
1018.0
 20
678.0
 10
1019.0
 20
679.0
 10
1019.0
 20
687.0
 10
1020.0
 20
688.0
 10
1020.0
 20
694.0
 10
1021.0
 20
695.0
 10
1021.0
 20
702.0
 10
1022.0
 20
703.0
 10
1022.0
 20
706.0
 10
1023.0
 20
707.0
 10
1023.0
 20
713.0
 10
1024.0
 20
714.0
 10
1024.0
 20
721.0
 10
1025.0
 20
722.0
 10
1025.0
 20
724.0
 10
1026.0
 20
725.0
 10
1026.0
 20
732.0
 10
1027.0
 20
733.0
 10
1027.0
 20
735.0
 10
1028.0
 20
736.0
 10
1028.0
 20
746.0
 10
1029.0
 20
747.0
 10
1029.0
 20
753.0
 10
1030.0
 20
754.0
 10
1030.0
 20
760.0
 10
1031.0
 20
761.0
 10
1031.0
 20
768.0
 10
1030.0
 20
768.0
 10
1029.0
 20
769.0
 10
1011.0
 20
769.0
 10
1010.0
 20
768.0
 10
1009.0
 20
768.0
 10
1008.0
 20
767.0
 10
1007.0
 20
768.0
 10
1006.0
 20
768.0
 10
1005.0
 20
769.0
  0
LWPOLYLINE
  5
71F
330
17
100
AcDbEntity
  8
0
100
AcDbPolyline
 90
56
 70
0
 10
843.0
 20
784.0
 10
841.0
 20
782.0
 10
840.0
 20
782.0
 10
840.0
 20
781.0
 10
838.0
 20
779.0
 10
813.0
 20
779.0
 10
811.0
 20
781.0
 10
808.0
 20
781.0
 10
805.0
 20
778.0
 10
805.0
 20
775.0
 10
806.0
 20
774.0
 10
806.0
 20
761.0
 10
807.0
 20
760.0
 10
807.0
 20
757.0
 10
806.0
 20
756.0
 10
806.0
 20
747.0
 10
807.0
 20
746.0
 10
807.0
 20
709.0
 10
808.0
 20
708.0
 10
808.0
 20
703.0
 10
806.0
 20
701.0
 10
801.0
 20
701.0
 10
800.0
 20
702.0
 10
794.0
 20
702.0
 10
793.0
 20
701.0
 10
792.0
 20
701.0
 10
792.0
 20
700.0
 10
791.0
 20
699.0
 10
791.0
 20
690.0
 10
792.0
 20
689.0
 10
792.0
 20
686.0
 10
792.0
 20
689.0
 10
791.0
 20
690.0
 10
791.0
 20
699.0
 10
794.0
 20
702.0
 10
800.0
 20
702.0
 10
801.0
 20
701.0
 10
807.0
 20
701.0
 10
808.0
 20
702.0
 10
808.0
 20
708.0
 10
807.0
 20
709.0
 10
807.0
 20
746.0
 10
806.0
 20
747.0
 10
806.0
 20
756.0
 10
807.0
 20
757.0
 10
807.0
 20
760.0
 10
806.0
 20
761.0
 10
806.0
 20
775.0
 10
805.0
 20
776.0
 10
805.0
 20
777.0
 10
809.0
 20
781.0
 10
810.0
 20
781.0
 10
812.0
 20
779.0
 10
838.0
 20
779.0
 10
842.0
 20
783.0
 10
843.0
 20
783.0
  0
LWPOLYLINE
  5
720
330
17
100
AcDbEntity
  8
0
100
AcDbPolyline
 90
42
 70
0
 10
1280.0
 20
785.0
 10
1279.0
 20
784.0
 10
1279.0
 20
766.0
 10
1278.0
 20
765.0
 10
1278.0
 20
764.0
 10
1279.0
 20
763.0
 10
1279.0
 20
750.0
 10
1278.0
 20
749.0
 10
1278.0
 20
742.0
 10
1279.0
 20
741.0
 10
1279.0
 20
740.0
 10
1280.0
 20
739.0
 10
1289.0
 20
739.0
 10
1290.0
 20
740.0
 10
1292.0
 20
740.0
 10
1293.0
 20
739.0
 10
1391.0
 20
739.0
 10
1391.0
 20
746.0
 10
1390.0
 20
747.0
 10
1390.0
 20
748.0
 10
1390.0
 20
747.0
 10
1391.0
 20
746.0
 10
1391.0
 20
740.0
 10
1390.0
 20
739.0
 10
1293.0
 20
739.0
 10
1291.0
 20
741.0
 10
1291.0
 20
742.0
 10
1290.0
 20
743.0
 10
1289.0
 20
742.0
 10
1289.0
 20
740.0
 10
1288.0
 20
739.0
 10
1280.0
 20
739.0
 10
1279.0
 20
740.0
 10
1279.0
 20
741.0
 10
1278.0
 20
742.0
 10
1278.0
 20
749.0
 10
1279.0
 20
750.0
 10
1279.0
 20
763.0
 10
1278.0
 20
764.0
 10
1278.0
 20
765.0
 10
1279.0
 20
766.0
 10
1279.0
 20
784.0
  0
LWPOLYLINE
  5
721
330
17
100
AcDbEntity
  8
0
100
AcDbPolyline
 90
189
 70
0
 10
845.0
 20
785.0
 10
846.0
 20
784.0
 10
846.0
 20
783.0
 10
844.0
 20
781.0
 10
844.0
 20
780.0
 10
842.0
 20
778.0
 10
841.0
 20
778.0
 10
839.0
 20
776.0
 10
839.0
 20
773.0
 10
838.0
 20
772.0
 10
838.0
 20
771.0
 10
835.0
 20
768.0
 10
834.0
 20
768.0
 10
834.0
 20
767.0
 10
833.0
 20
766.0
 10
833.0
 20
761.0
 10
832.0
 20
760.0
 10
832.0
 20
755.0
 10
833.0
 20
754.0
 10
833.0
 20
751.0
 10
832.0
 20
750.0
 10
832.0
 20
749.0
 10
833.0
 20
748.0
 10
833.0
 20
745.0
 10
832.0
 20
744.0
 10
832.0
 20
729.0
 10
833.0
 20
728.0
 10
833.0
 20
720.0
 10
832.0
 20
719.0
 10
832.0
 20
718.0
 10
833.0
 20
717.0
 10
833.0
 20
668.0
 10
834.0
 20
667.0
 10
834.0
 20
665.0
 10
833.0
 20
664.0
 10
833.0
 20
626.0
 10
834.0
 20
625.0
 10
834.0
 20
618.0
 10
833.0
 20
617.0
 10
833.0
 20
612.0
 10
834.0
 20
611.0
 10
834.0
 20
608.0
 10
833.0
 20
607.0
 10
833.0
 20
576.0
 10
834.0
 20
575.0
 10
834.0
 20
566.0
 10
833.0
 20
565.0
 10
833.0
 20
558.0
 10
834.0
 20
557.0
 10
834.0
 20
532.0
 10
833.0
 20
531.0
 10
833.0
 20
524.0
 10
834.0
 20
523.0
 10
834.0
 20
522.0
 10
836.0
 20
522.0
 10
837.0
 20
521.0
 10
837.0
 20
518.0
 10
836.0
 20
517.0
 10
834.0
 20
517.0
 10
834.0
 20
516.0
 10
835.0
 20
515.0
 10
835.0
 20
513.0
 10
836.0
 20
512.0
 10
836.0
 20
509.0
 10
835.0
 20
508.0
 10
835.0
 20
507.0
 10
834.0
 20
506.0
 10
834.0
 20
502.0
 10
835.0
 20
501.0
 10
835.0
 20
483.0
 10
838.0
 20
483.0
 10
839.0
 20
484.0
 10
859.0
 20
484.0
 10
860.0
 20
483.0
 10
920.0
 20
483.0
 10
921.0
 20
482.0
 10
952.0
 20
482.0
 10
952.0
 20
489.0
 10
953.0
 20
490.0
 10
953.0
 20
508.0
 10
952.0
 20
509.0
 10
953.0
 20
510.0
 10
952.0
 20
511.0
 10
953.0
 20
512.0
 10
952.0
 20
513.0
 10
952.0
 20
516.0
 10
953.0
 20
517.0
 10
953.0
 20
519.0
 10
952.0
 20
520.0
 10
952.0
 20
579.0
 10
956.0
 20
583.0
 10
957.0
 20
582.0
 10
965.0
 20
582.0
 10
966.0
 20
581.0
 10
967.0
 20
581.0
 10
966.0
 20
581.0
 10
965.0
 20
582.0
 10
957.0
 20
582.0
 10
956.0
 20
583.0
 10
955.0
 20
582.0
 10
954.0
 20
582.0
 10
953.0
 20
581.0
 10
953.0
 20
580.0
 10
952.0
 20
579.0
 10
952.0
 20
520.0
 10
953.0
 20
519.0
 10
953.0
 20
517.0
 10
952.0
 20
516.0
 10
952.0
 20
513.0
 10
953.0
 20
512.0
 10
952.0
 20
511.0
 10
953.0
 20
510.0
 10
952.0
 20
509.0
 10
953.0
 20
508.0
 10
953.0
 20
490.0
 10
952.0
 20
489.0
 10
952.0
 20
483.0
 10
951.0
 20
482.0
 10
921.0
 20
482.0
 10
920.0
 20
483.0
 10
860.0
 20
483.0
 10
859.0
 20
484.0
 10
839.0
 20
484.0
 10
838.0
 20
483.0
 10
836.0
 20
483.0
 10
835.0
 20
484.0
 10
835.0
 20
501.0
 10
834.0
 20
502.0
 10
834.0
 20
506.0
 10
836.0
 20
508.0
 10
836.0
 20
512.0
 10
835.0
 20
513.0
 10
835.0
 20
515.0
 10
834.0
 20
516.0
 10
835.0
 20
517.0
 10
837.0
 20
517.0
 10
837.0
 20
522.0
 10
835.0
 20
522.0
 10
833.0
 20
524.0
 10
833.0
 20
531.0
 10
834.0
 20
532.0
 10
834.0
 20
557.0
 10
833.0
 20
558.0
 10
833.0
 20
565.0
 10
834.0
 20
566.0
 10
834.0
 20
575.0
 10
833.0
 20
576.0
 10
833.0
 20
607.0
 10
834.0
 20
608.0
 10
834.0
 20
611.0
 10
833.0
 20
612.0
 10
833.0
 20
617.0
 10
834.0
 20
618.0
 10
834.0
 20
625.0
 10
833.0
 20
626.0
 10
833.0
 20
664.0
 10
834.0
 20
665.0
 10
834.0
 20
667.0
 10
833.0
 20
668.0
 10
833.0
 20
717.0
 10
832.0
 20
718.0
 10
832.0
 20
719.0
 10
833.0
 20
720.0
 10
833.0
 20
728.0
 10
832.0
 20
729.0
 10
832.0
 20
744.0
 10
833.0
 20
745.0
 10
833.0
 20
748.0
 10
832.0
 20
749.0
 10
832.0
 20
750.0
 10
833.0
 20
751.0
 10
833.0
 20
754.0
 10
832.0
 20
755.0
 10
832.0
 20
760.0
 10
833.0
 20
761.0
 10
833.0
 20
766.0
 10
836.0
 20
769.0
 10
837.0
 20
769.0
 10
838.0
 20
770.0
 10
838.0
 20
772.0
 10
839.0
 20
773.0
 10
839.0
 20
776.0
 10
841.0
 20
778.0
 10
842.0
 20
778.0
 10
843.0
 20
779.0
 10
844.0
 20
779.0
 10
844.0
 20
781.0
 10
846.0
 20
783.0
 10
846.0
 20
785.0
  0
LWPOLYLINE
  5
722
330
17
100
AcDbEntity
  8
0
100
AcDbPolyline
 90
87
 70
0
 10
1402.0
 20
786.0
 10
1401.0
 20
785.0
 10
1400.0
 20
785.0
 10
1399.0
 20
784.0
 10
1397.0
 20
784.0
 10
1396.0
 20
783.0
 10
1395.0
 20
783.0
 10
1395.0
 20
782.0
 10
1394.0
 20
781.0
 10
1394.0
 20
780.0
 10
1394.0
 20
781.0
 10
1397.0
 20
784.0
 10
1399.0
 20
784.0
 10
1400.0
 20
785.0
 10
1401.0
 20
785.0
 10
1402.0
 20
786.0
 10
1403.0
 20
785.0
 10
1411.0
 20
785.0
 10
1412.0
 20
786.0
 10
1413.0
 20
785.0
 10
1417.0
 20
785.0
 10
1418.0
 20
786.0
 10
1419.0
 20
786.0
 10
1420.0
 20
785.0
 10
1445.0
 20
785.0
 10
1446.0
 20
784.0
 10
1449.0
 20
784.0
 10
1451.0
 20
782.0
 10
1451.0
 20
781.0
 10
1452.0
 20
780.0
 10
1452.0
 20
759.0
 10
1453.0
 20
758.0
 10
1453.0
 20
756.0
 10
1452.0
 20
755.0
 10
1452.0
 20
740.0
 10
1451.0
 20
739.0
 10
1444.0
 20
739.0
 10
1443.0
 20
738.0
 10
1442.0
 20
738.0
 10
1441.0
 20
739.0
 10
1440.0
 20
738.0
 10
1439.0
 20
738.0
 10
1438.0
 20
739.0
 10
1437.0
 20
739.0
 10
1436.0
 20
740.0
 10
1432.0
 20
740.0
 10
1431.0
 20
739.0
 10
1396.0
 20
739.0
 10
1394.0
 20
741.0
 10
1394.0
 20
744.0
 10
1395.0
 20
745.0
 10
1395.0
 20
751.0
 10
1394.0
 20
752.0
 10
1394.0
 20
751.0
 10
1395.0
 20
750.0
 10
1395.0
 20
745.0
 10
1394.0
 20
744.0
 10
1394.0
 20
741.0
 10
1396.0
 20
739.0
 10
1431.0
 20
739.0
 10
1432.0
 20
740.0
 10
1436.0
 20
740.0
 10
1437.0
 20
739.0
 10
1438.0
 20
739.0
 10
1439.0
 20
738.0
 10
1440.0
 20
738.0
 10
1441.0
 20
739.0
 10
1442.0
 20
738.0
 10
1443.0
 20
738.0
 10
1444.0
 20
739.0
 10
1452.0
 20
739.0
 10
1452.0
 20
755.0
 10
1453.0
 20
756.0
 10
1453.0
 20
758.0
 10
1452.0
 20
759.0
 10
1452.0
 20
781.0
 10
1449.0
 20
784.0
 10
1446.0
 20
784.0
 10
1445.0
 20
785.0
 10
1420.0
 20
785.0
 10
1419.0
 20
786.0
 10
1418.0
 20
786.0
 10
1417.0
 20
785.0
 10
1413.0
 20
785.0
 10
1412.0
 20
786.0
 10
1411.0
 20
785.0
 10
1403.0
 20
785.0
  0
LWPOLYLINE
  5
723
330
17
100
AcDbEntity
  8
0
100
AcDbPolyline
 90
83
 70
0
 10
1269.0
 20
789.0
 10
1267.0
 20
787.0
 10
1267.0
 20
774.0
 10
1268.0
 20
773.0
 10
1268.0
 20
767.0
 10
1267.0
 20
766.0
 10
1267.0
 20
765.0
 10
1268.0
 20
764.0
 10
1268.0
 20
755.0
 10
1267.0
 20
754.0
 10
1268.0
 20
753.0
 10
1268.0
 20
740.0
 10
1267.0
 20
739.0
 10
1259.0
 20
739.0
 10
1258.0
 20
740.0
 10
1256.0
 20
738.0
 10
1256.0
 20
737.0
 10
1255.0
 20
736.0
 10
1255.0
 20
727.0
 10
1249.0
 20
721.0
 10
1248.0
 20
721.0
 10
1248.0
 20
720.0
 10
1247.0
 20
719.0
 10
1247.0
 20
716.0
 10
1247.0
 20
719.0
 10
1250.0
 20
722.0
 10
1251.0
 20
722.0
 10
1255.0
 20
726.0
 10
1255.0
 20
736.0
 10
1256.0
 20
737.0
 10
1256.0
 20
738.0
 10
1258.0
 20
740.0
 10
1259.0
 20
739.0
 10
1268.0
 20
739.0
 10
1268.0
 20
753.0
 10
1267.0
 20
754.0
 10
1268.0
 20
755.0
 10
1268.0
 20
764.0
 10
1267.0
 20
765.0
 10
1267.0
 20
766.0
 10
1268.0
 20
767.0
 10
1268.0
 20
773.0
 10
1267.0
 20
774.0
 10
1267.0
 20
787.0
 10
1269.0
 20
789.0
 10
1270.0
 20
789.0
 10
1271.0
 20
788.0
 10
1274.0
 20
788.0
 10
1275.0
 20
789.0
 10
1279.0
 20
789.0
 10
1280.0
 20
788.0
 10
1301.0
 20
788.0
 10
1302.0
 20
787.0
 10
1301.0
 20
786.0
 10
1292.0
 20
786.0
 10
1302.0
 20
786.0
 10
1303.0
 20
785.0
 10
1305.0
 20
785.0
 10
1306.0
 20
786.0
 10
1307.0
 20
786.0
 10
1306.0
 20
786.0
 10
1305.0
 20
785.0
 10
1304.0
 20
785.0
 10
1302.0
 20
787.0
 10
1304.0
 20
789.0
 10
1306.0
 20
789.0
 10
1307.0
 20
788.0
 10
1313.0
 20
788.0
 10
1314.0
 20
787.0
 10
1313.0
 20
786.0
 10
1310.0
 20
786.0
 10
1314.0
 20
786.0
 10
1314.0
 20
788.0
 10
1307.0
 20
788.0
 10
1306.0
 20
789.0
 10
1303.0
 20
789.0
 10
1302.0
 20
788.0
 10
1280.0
 20
788.0
 10
1279.0
 20
789.0
 10
1275.0
 20
789.0
 10
1274.0
 20
788.0
 10
1271.0
 20
788.0
 10
1270.0
 20
789.0
  0
LWPOLYLINE
  5
724
330
17
100
AcDbEntity
  8
0
100
AcDbPolyline
 90
113
 70
0
 10
1438.0
 20
790.0
 10
1437.0
 20
789.0
 10
1424.0
 20
789.0
 10
1423.0
 20
788.0
 10
1420.0
 20
788.0
 10
1419.0
 20
789.0
 10
1413.0
 20
789.0
 10
1412.0
 20
788.0
 10
1410.0
 20
788.0
 10
1409.0
 20
789.0
 10
1406.0
 20
789.0
 10
1405.0
 20
788.0
 10
1402.0
 20
788.0
 10
1401.0
 20
789.0
 10
1398.0
 20
789.0
 10
1397.0
 20
788.0
 10
1396.0
 20
788.0
 10
1395.0
 20
787.0
 10
1394.0
 20
787.0
 10
1393.0
 20
786.0
 10
1393.0
 20
785.0
 10
1392.0
 20
784.0
 10
1392.0
 20
782.0
 10
1391.0
 20
781.0
 10
1391.0
 20
773.0
 10
1392.0
 20
772.0
 10
1393.0
 20
772.0
 10
1392.0
 20
772.0
 10
1391.0
 20
773.0
 10
1391.0
 20
781.0
 10
1392.0
 20
782.0
 10
1392.0
 20
784.0
 10
1396.0
 20
788.0
 10
1398.0
 20
788.0
 10
1399.0
 20
789.0
 10
1401.0
 20
789.0
 10
1402.0
 20
788.0
 10
1405.0
 20
788.0
 10
1406.0
 20
789.0
 10
1409.0
 20
789.0
 10
1410.0
 20
788.0
 10
1412.0
 20
788.0
 10
1413.0
 20
789.0
 10
1419.0
 20
789.0
 10
1420.0
 20
788.0
 10
1423.0
 20
788.0
 10
1424.0
 20
789.0
 10
1437.0
 20
789.0
 10
1438.0
 20
790.0
 10
1439.0
 20
789.0
 10
1444.0
 20
789.0
 10
1445.0
 20
788.0
 10
1452.0
 20
788.0
 10
1453.0
 20
787.0
 10
1453.0
 20
786.0
 10
1455.0
 20
784.0
 10
1455.0
 20
783.0
 10
1456.0
 20
782.0
 10
1456.0
 20
774.0
 10
1457.0
 20
773.0
 10
1457.0
 20
770.0
 10
1456.0
 20
769.0
 10
1456.0
 20
764.0
 10
1457.0
 20
763.0
 10
1457.0
 20
762.0
 10
1458.0
 20
761.0
 10
1458.0
 20
760.0
 10
1457.0
 20
759.0
 10
1457.0
 20
758.0
 10
1456.0
 20
757.0
 10
1456.0
 20
744.0
 10
1455.0
 20
743.0
 10
1455.0
 20
740.0
 10
1456.0
 20
739.0
 10
1498.0
 20
739.0
 10
1499.0
 20
738.0
 10
1502.0
 20
738.0
 10
1503.0
 20
739.0
 10
1552.0
 20
739.0
 10
1553.0
 20
740.0
 10
1554.0
 20
740.0
 10
1554.0
 20
774.0
 10
1556.0
 20
776.0
 10
1555.0
 20
776.0
 10
1555.0
 20
775.0
 10
1554.0
 20
774.0
 10
1554.0
 20
741.0
 10
1552.0
 20
739.0
 10
1503.0
 20
739.0
 10
1502.0
 20
738.0
 10
1499.0
 20
738.0
 10
1498.0
 20
739.0
 10
1456.0
 20
739.0
 10
1455.0
 20
740.0
 10
1455.0
 20
743.0
 10
1456.0
 20
744.0
 10
1456.0
 20
757.0
 10
1457.0
 20
758.0
 10
1457.0
 20
759.0
 10
1458.0
 20
760.0
 10
1458.0
 20
762.0
 10
1456.0
 20
764.0
 10
1456.0
 20
769.0
 10
1457.0
 20
770.0
 10
1457.0
 20
773.0
 10
1456.0
 20
774.0
 10
1456.0
 20
783.0
 10
1454.0
 20
785.0
 10
1454.0
 20
786.0
 10
1452.0
 20
788.0
 10
1445.0
 20
788.0
 10
1444.0
 20
789.0
 10
1439.0
 20
789.0
  0
LWPOLYLINE
  5
725
330
17
100
AcDbEntity
  8
0
100
AcDbPolyline
 90
24
 70
0
 10
1973.0
 20
795.0
 10
1973.0
 20
794.0
 10
1972.0
 20
793.0
 10
1972.0
 20
787.0
 10
1973.0
 20
786.0
 10
1973.0
 20
694.0
 10
1974.0
 20
693.0
 10
1974.0
 20
679.0
 10
1975.0
 20
678.0
 10
1975.0
 20
677.0
 10
1977.0
 20
677.0
 10
1977.0
 20
687.0
 10
1977.0
 20
678.0
 10
1976.0
 20
677.0
 10
1974.0
 20
679.0
 10
1974.0
 20
693.0
 10
1973.0
 20
694.0
 10
1973.0
 20
786.0
 10
1972.0
 20
787.0
 10
1972.0
 20
793.0
 10
1974.0
 20
795.0
 10
1975.0
 20
794.0
 10
1975.0
 20
786.0
 10
1975.0
 20
795.0
  0
LWPOLYLINE
  5
726
330
17
100
AcDbEntity
  8
0
100
AcDbPolyline
 90
75
 70
0
 10
1543.0
 20
862.0
 10
1542.0
 20
861.0
 10
1541.0
 20
861.0
 10
1540.0
 20
860.0
 10
1539.0
 20
860.0
 10
1539.0
 20
859.0
 10
1541.0
 20
861.0
 10
1542.0
 20
861.0
 10
1543.0
 20
862.0
 10
1545.0
 20
862.0
 10
1546.0
 20
861.0
 10
1550.0
 20
861.0
 10
1551.0
 20
862.0
 10
1553.0
 20
862.0
 10
1554.0
 20
861.0
 10
1554.0
 20
857.0
 10
1555.0
 20
856.0
 10
1557.0
 20
856.0
 10
1558.0
 20
857.0
 10
1562.0
 20
857.0
 10
1564.0
 20
855.0
 10
1564.0
 20
833.0
 10
1563.0
 20
832.0
 10
1564.0
 20
831.0
 10
1564.0
 20
824.0
 10
1565.0
 20
823.0
 10
1565.0
 20
812.0
 10
1564.0
 20
811.0
 10
1564.0
 20
807.0
 10
1565.0
 20
806.0
 10
1565.0
 20
804.0
 10
1564.0
 20
803.0
 10
1564.0
 20
800.0
 10
1565.0
 20
799.0
 10
1565.0
 20
760.0
 10
1564.0
 20
759.0
 10
1564.0
 20
758.0
 10
1565.0
 20
757.0
 10
1565.0
 20
745.0
 10
1564.0
 20
744.0
 10
1558.0
 20
744.0
 10
1557.0
 20
745.0
 10
1557.0
 20
749.0
 10
1557.0
 20
744.0
 10
1565.0
 20
744.0
 10
1565.0
 20
757.0
 10
1564.0
 20
758.0
 10
1564.0
 20
759.0
 10
1565.0
 20
760.0
 10
1565.0
 20
800.0
 10
1564.0
 20
801.0
 10
1564.0
 20
803.0
 10
1565.0
 20
804.0
 10
1565.0
 20
806.0
 10
1564.0
 20
807.0
 10
1564.0
 20
811.0
 10
1565.0
 20
812.0
 10
1565.0
 20
823.0
 10
1564.0
 20
824.0
 10
1564.0
 20
831.0
 10
1563.0
 20
832.0
 10
1564.0
 20
833.0
 10
1564.0
 20
856.0
 10
1563.0
 20
856.0
 10
1562.0
 20
857.0
 10
1558.0
 20
857.0
 10
1557.0
 20
856.0
 10
1555.0
 20
856.0
 10
1554.0
 20
857.0
 10
1554.0
 20
861.0
 10
1553.0
 20
862.0
 10
1551.0
 20
862.0
 10
1550.0
 20
861.0
 10
1546.0
 20
861.0
 10
1545.0
 20
862.0
  0
LWPOLYLINE
  5
727
330
17
100
AcDbEntity
  8
0
100
AcDbPolyline
 90
151
 70
0
 10
938.0
 20
873.0
 10
937.0
 20
872.0
 10
938.0
 20
873.0
 10
939.0
 20
872.0
 10
939.0
 20
831.0
 10
940.0
 20
830.0
 10
940.0
 20
808.0
 10
939.0
 20
807.0
 10
940.0
 20
806.0
 10
940.0
 20
787.0
 10
941.0
 20
786.0
 10
941.0
 20
776.0
 10
940.0
 20
775.0
 10
940.0
 20
771.0
 10
941.0
 20
770.0
 10
941.0
 20
769.0
 10
963.0
 20
769.0
 10
964.0
 20
768.0
 10
964.0
 20
759.0
 10
963.0
 20
758.0
 10
963.0
 20
754.0
 10
962.0
 20
753.0
 10
962.0
 20
750.0
 10
963.0
 20
749.0
 10
963.0
 20
744.0
 10
964.0
 20
743.0
 10
964.0
 20
672.0
 10
965.0
 20
671.0
 10
965.0
 20
670.0
 10
966.0
 20
669.0
 10
966.0
 20
668.0
 10
998.0
 20
668.0
 10
999.0
 20
669.0
 10
1009.0
 20
669.0
 10
1010.0
 20
668.0
 10
1021.0
 20
668.0
 10
1022.0
 20
669.0
 10
1027.0
 20
669.0
 10
1030.0
 20
666.0
 10
1030.0
 20
663.0
 10
1033.0
 20
660.0
 10
1036.0
 20
660.0
 10
1039.0
 20
663.0
 10
1039.0
 20
664.0
 10
1045.0
 20
670.0
 10
1042.0
 20
667.0
 10
1041.0
 20
667.0
 10
1040.0
 20
666.0
 10
1040.0
 20
665.0
 10
1035.0
 20
660.0
 10
1034.0
 20
660.0
 10
1033.0
 20
661.0
 10
1032.0
 20
661.0
 10
1030.0
 20
663.0
 10
1030.0
 20
666.0
 10
1029.0
 20
667.0
 10
1029.0
 20
668.0
 10
1028.0
 20
668.0
 10
1027.0
 20
669.0
 10
1022.0
 20
669.0
 10
1021.0
 20
668.0
 10
1010.0
 20
668.0
 10
1009.0
 20
669.0
 10
999.0
 20
669.0
 10
998.0
 20
668.0
 10
967.0
 20
668.0
 10
965.0
 20
670.0
 10
965.0
 20
671.0
 10
964.0
 20
672.0
 10
964.0
 20
743.0
 10
963.0
 20
744.0
 10
963.0
 20
749.0
 10
962.0
 20
750.0
 10
962.0
 20
753.0
 10
963.0
 20
754.0
 10
963.0
 20
758.0
 10
964.0
 20
759.0
 10
964.0
 20
768.0
 10
963.0
 20
769.0
 10
942.0
 20
769.0
 10
940.0
 20
771.0
 10
940.0
 20
775.0
 10
941.0
 20
776.0
 10
941.0
 20
785.0
 10
942.0
 20
786.0
 10
943.0
 20
785.0
 10
943.0
 20
782.0
 10
944.0
 20
781.0
 10
944.0
 20
780.0
 10
965.0
 20
780.0
 10
966.0
 20
779.0
 10
975.0
 20
779.0
 10
976.0
 20
780.0
 10
977.0
 20
779.0
 10
1002.0
 20
779.0
 10
1007.0
 20
784.0
 10
1009.0
 20
784.0
 10
1010.0
 20
785.0
 10
1011.0
 20
785.0
 10
1011.0
 20
826.0
 10
1010.0
 20
827.0
 10
1010.0
 20
828.0
 10
1011.0
 20
829.0
 10
1011.0
 20
857.0
 10
1010.0
 20
858.0
 10
1010.0
 20
860.0
 10
1011.0
 20
861.0
 10
1011.0
 20
862.0
 10
1012.0
 20
863.0
 10
1013.0
 20
862.0
 10
1013.0
 20
857.0
 10
1013.0
 20
863.0
 10
1011.0
 20
863.0
 10
1011.0
 20
862.0
 10
1010.0
 20
861.0
 10
1010.0
 20
858.0
 10
1011.0
 20
857.0
 10
1011.0
 20
829.0
 10
1010.0
 20
828.0
 10
1010.0
 20
827.0
 10
1011.0
 20
826.0
 10
1011.0
 20
786.0
 10
1009.0
 20
784.0
 10
1007.0
 20
784.0
 10
1006.0
 20
783.0
 10
1005.0
 20
783.0
 10
1004.0
 20
782.0
 10
1004.0
 20
781.0
 10
1002.0
 20
779.0
 10
977.0
 20
779.0
 10
976.0
 20
780.0
 10
975.0
 20
779.0
 10
966.0
 20
779.0
 10
965.0
 20
780.0
 10
945.0
 20
780.0
 10
943.0
 20
782.0
 10
943.0
 20
806.0
 10
942.0
 20
807.0
 10
942.0
 20
808.0
 10
942.0
 20
807.0
 10
943.0
 20
806.0
 10
943.0
 20
787.0
 10
942.0
 20
786.0
 10
941.0
 20
786.0
 10
940.0
 20
787.0
 10
940.0
 20
806.0
 10
939.0
 20
807.0
 10
940.0
 20
808.0
 10
940.0
 20
830.0
 10
939.0
 20
831.0
 10
939.0
 20
872.0
  0
LWPOLYLINE
  5
728
330
17
100
AcDbEntity
  8
0
100
AcDbPolyline
 90
54
 70
0
 10
938.0
 20
877.0
 10
926.0
 20
865.0
 10
925.0
 20
865.0
 10
907.0
 20
847.0
 10
906.0
 20
847.0
 10
904.0
 20
845.0
 10
904.0
 20
844.0
 10
896.0
 20
836.0
 10
895.0
 20
836.0
 10
893.0
 20
834.0
 10
892.0
 20
834.0
 10
892.0
 20
833.0
 10
891.0
 20
832.0
 10
891.0
 20
830.0
 10
892.0
 20
829.0
 10
892.0
 20
825.0
 10
893.0
 20
824.0
 10
894.0
 20
824.0
 10
893.0
 20
824.0
 10
892.0
 20
825.0
 10
892.0
 20
829.0
 10
891.0
 20
830.0
 10
891.0
 20
832.0
 10
894.0
 20
835.0
 10
895.0
 20
835.0
 10
897.0
 20
837.0
 10
898.0
 20
837.0
 10
898.0
 20
838.0
 10
913.0
 20
853.0
 10
914.0
 20
853.0
 10
921.0
 20
860.0
 10
921.0
 20
861.0
 10
925.0
 20
865.0
 10
926.0
 20
865.0
 10
935.0
 20
874.0
 10
936.0
 20
874.0
 10
939.0
 20
877.0
 10
940.0
 20
877.0
 10
942.0
 20
875.0
 10
942.0
 20
838.0
 10
943.0
 20
837.0
 10
943.0
 20
835.0
 10
944.0
 20
834.0
 10
944.0
 20
831.0
 10
943.0
 20
830.0
 10
943.0
 20
829.0
 10
943.0
 20
830.0
 10
944.0
 20
831.0
 10
944.0
 20
834.0
 10
943.0
 20
835.0
 10
943.0
 20
837.0
 10
942.0
 20
838.0
 10
942.0
 20
875.0
 10
940.0
 20
877.0
  0
LWPOLYLINE
  5
729
330
17
100
AcDbEntity
  8
0
100
AcDbPolyline
 90
73
 70
0
 10
1478.0
 20
893.0
 10
1477.0
 20
892.0
 10
1471.0
 20
892.0
 10
1470.0
 20
891.0
 10
1468.0
 20
891.0
 10
1467.0
 20
892.0
 10
1430.0
 20
892.0
 10
1429.0
 20
891.0
 10
1423.0
 20
891.0
 10
1422.0
 20
892.0
 10
1401.0
 20
892.0
 10
1400.0
 20
891.0
 10
1400.0
 20
890.0
 10
1401.0
 20
889.0
 10
1410.0
 20
889.0
 10
1411.0
 20
888.0
 10
1415.0
 20
888.0
 10
1416.0
 20
889.0
 10
1417.0
 20
889.0
 10
1416.0
 20
889.0
 10
1415.0
 20
888.0
 10
1411.0
 20
888.0
 10
1410.0
 20
889.0
 10
1401.0
 20
889.0
 10
1400.0
 20
890.0
 10
1400.0
 20
891.0
 10
1401.0
 20
892.0
 10
1422.0
 20
892.0
 10
1423.0
 20
891.0
 10
1429.0
 20
891.0
 10
1430.0
 20
892.0
 10
1467.0
 20
892.0
 10
1468.0
 20
891.0
 10
1470.0
 20
891.0
 10
1471.0
 20
892.0
 10
1477.0
 20
892.0
 10
1478.0
 20
893.0
 10
1484.0
 20
893.0
 10
1485.0
 20
892.0
 10
1490.0
 20
892.0
 10
1491.0
 20
891.0
 10
1494.0
 20
891.0
 10
1495.0
 20
892.0
 10
1506.0
 20
892.0
 10
1507.0
 20
893.0
 10
1512.0
 20
893.0
 10
1513.0
 20
892.0
 10
1513.0
 20
891.0
 10
1512.0
 20
890.0
 10
1510.0
 20
890.0
 10
1509.0
 20
889.0
 10
1503.0
 20
889.0
 10
1502.0
 20
888.0
 10
1498.0
 20
888.0
 10
1497.0
 20
889.0
 10
1496.0
 20
889.0
 10
1497.0
 20
889.0
 10
1498.0
 20
888.0
 10
1502.0
 20
888.0
 10
1503.0
 20
889.0
 10
1509.0
 20
889.0
 10
1510.0
 20
890.0
 10
1513.0
 20
890.0
 10
1513.0
 20
892.0
 10
1512.0
 20
893.0
 10
1507.0
 20
893.0
 10
1506.0
 20
892.0
 10
1495.0
 20
892.0
 10
1494.0
 20
891.0
 10
1491.0
 20
891.0
 10
1490.0
 20
892.0
 10
1485.0
 20
892.0
 10
1484.0
 20
893.0
  0
LWPOLYLINE
  5
72A
330
17
100
AcDbEntity
  8
0
100
AcDbPolyline
 90
65
 70
0
 10
1362.0
 20
905.0
 10
1362.0
 20
870.0
 10
1361.0
 20
869.0
 10
1353.0
 20
869.0
 10
1352.0
 20
868.0
 10
1337.0
 20
868.0
 10
1336.0
 20
869.0
 10
1286.0
 20
869.0
 10
1285.0
 20
868.0
 10
1285.0
 20
867.0
 10
1286.0
 20
866.0
 10
1287.0
 20
866.0
 10
1288.0
 20
865.0
 10
1293.0
 20
865.0
 10
1294.0
 20
866.0
 10
1295.0
 20
866.0
 10
1296.0
 20
865.0
 10
1299.0
 20
865.0
 10
1300.0
 20
866.0
 10
1313.0
 20
866.0
 10
1314.0
 20
865.0
 10
1315.0
 20
865.0
 10
1317.0
 20
863.0
 10
1319.0
 20
863.0
 10
1322.0
 20
866.0
 10
1328.0
 20
866.0
 10
1331.0
 20
863.0
 10
1333.0
 20
863.0
 10
1334.0
 20
864.0
 10
1335.0
 20
864.0
 10
1336.0
 20
865.0
 10
1340.0
 20
865.0
 10
1336.0
 20
865.0
 10
1335.0
 20
864.0
 10
1333.0
 20
864.0
 10
1332.0
 20
863.0
 10
1330.0
 20
865.0
 10
1329.0
 20
865.0
 10
1328.0
 20
866.0
 10
1322.0
 20
866.0
 10
1321.0
 20
865.0
 10
1320.0
 20
865.0
 10
1320.0
 20
864.0
 10
1319.0
 20
863.0
 10
1317.0
 20
863.0
 10
1315.0
 20
865.0
 10
1314.0
 20
865.0
 10
1313.0
 20
866.0
 10
1300.0
 20
866.0
 10
1299.0
 20
865.0
 10
1296.0
 20
865.0
 10
1295.0
 20
866.0
 10
1294.0
 20
866.0
 10
1293.0
 20
865.0
 10
1288.0
 20
865.0
 10
1287.0
 20
866.0
 10
1286.0
 20
866.0
 10
1285.0
 20
867.0
 10
1285.0
 20
868.0
 10
1286.0
 20
869.0
 10
1336.0
 20
869.0
 10
1337.0
 20
868.0
 10
1352.0
 20
868.0
 10
1353.0
 20
869.0
 10
1362.0
 20
869.0
  0
LWPOLYLINE
  5
72B
330
17
100
AcDbEntity
  8
0
100
AcDbPolyline
 90
51
 70
0
 10
1973.0
 20
924.0
 10
1973.0
 20
923.0
 10
1972.0
 20
922.0
 10
1972.0
 20
879.0
 10
1973.0
 20
878.0
 10
1973.0
 20
858.0
 10
1972.0
 20
857.0
 10
1972.0
 20
840.0
 10
1971.0
 20
839.0
 10
1971.0
 20
837.0
 10
1970.0
 20
836.0
 10
1971.0
 20
835.0
 10
1971.0
 20
834.0
 10
1972.0
 20
833.0
 10
1972.0
 20
821.0
 10
1973.0
 20
820.0
 10
1973.0
 20
819.0
 10
1975.0
 20
819.0
 10
1975.0
 20
824.0
 10
1976.0
 20
825.0
 10
1976.0
 20
827.0
 10
1975.0
 20
828.0
 10
1975.0
 20
858.0
 10
1975.0
 20
828.0
 10
1976.0
 20
827.0
 10
1976.0
 20
825.0
 10
1975.0
 20
824.0
 10
1975.0
 20
820.0
 10
1974.0
 20
819.0
 10
1972.0
 20
821.0
 10
1972.0
 20
833.0
 10
1971.0
 20
834.0
 10
1971.0
 20
835.0
 10
1970.0
 20
836.0
 10
1971.0
 20
837.0
 10
1971.0
 20
839.0
 10
1972.0
 20
840.0
 10
1972.0
 20
857.0
 10
1973.0
 20
858.0
 10
1973.0
 20
878.0
 10
1972.0
 20
879.0
 10
1972.0
 20
922.0
 10
1974.0
 20
924.0
 10
1975.0
 20
923.0
 10
1975.0
 20
880.0
 10
1976.0
 20
879.0
 10
1976.0
 20
870.0
 10
1976.0
 20
879.0
 10
1975.0
 20
880.0
 10
1975.0
 20
923.0
 10
1974.0
 20
924.0
  0
LWPOLYLINE
  5
72C
330
17
100
AcDbEntity
  8
0
100
AcDbPolyline
 90
267
 70
0
 10
372.0
 20
947.0
 10
372.0
 20
946.0
 10
371.0
 20
945.0
 10
371.0
 20
944.0
 10
372.0
 20
943.0
 10
372.0
 20
871.0
 10
373.0
 20
870.0
 10
373.0
 20
862.0
 10
372.0
 20
861.0
 10
372.0
 20
859.0
 10
373.0
 20
858.0
 10
373.0
 20
855.0
 10
372.0
 20
854.0
 10
372.0
 20
723.0
 10
373.0
 20
722.0
 10
373.0
 20
717.0
 10
372.0
 20
716.0
 10
372.0
 20
701.0
 10
373.0
 20
700.0
 10
373.0
 20
618.0
 10
374.0
 20
617.0
 10
374.0
 20
614.0
 10
373.0
 20
613.0
 10
373.0
 20
597.0
 10
374.0
 20
596.0
 10
374.0
 20
592.0
 10
373.0
 20
591.0
 10
374.0
 20
590.0
 10
374.0
 20
584.0
 10
373.0
 20
583.0
 10
373.0
 20
517.0
 10
374.0
 20
516.0
 10
374.0
 20
497.0
 10
373.0
 20
496.0
 10
373.0
 20
479.0
 10
374.0
 20
478.0
 10
374.0
 20
471.0
 10
373.0
 20
470.0
 10
373.0
 20
455.0
 10
372.0
 20
454.0
 10
374.0
 20
452.0
 10
376.0
 20
452.0
 10
377.0
 20
453.0
 10
404.0
 20
453.0
 10
405.0
 20
454.0
 10
411.0
 20
454.0
 10
412.0
 20
453.0
 10
429.0
 20
453.0
 10
430.0
 20
454.0
 10
437.0
 20
454.0
 10
438.0
 20
453.0
 10
445.0
 20
453.0
 10
446.0
 20
454.0
 10
474.0
 20
454.0
 10
475.0
 20
453.0
 10
484.0
 20
453.0
 10
479.0
 20
453.0
 10
478.0
 20
454.0
 10
479.0
 20
455.0
 10
501.0
 20
455.0
 10
502.0
 20
456.0
 10
503.0
 20
455.0
 10
515.0
 20
455.0
 10
516.0
 20
456.0
 10
517.0
 20
455.0
 10
524.0
 20
455.0
 10
525.0
 20
456.0
 10
527.0
 20
456.0
 10
528.0
 20
455.0
 10
539.0
 20
455.0
 10
540.0
 20
456.0
 10
543.0
 20
456.0
 10
544.0
 20
457.0
 10
545.0
 20
456.0
 10
552.0
 20
456.0
 10
553.0
 20
455.0
 10
560.0
 20
455.0
 10
561.0
 20
456.0
 10
570.0
 20
456.0
 10
571.0
 20
455.0
 10
580.0
 20
455.0
 10
581.0
 20
456.0
 10
593.0
 20
456.0
 10
594.0
 20
455.0
 10
604.0
 20
455.0
 10
605.0
 20
454.0
 10
604.0
 20
453.0
 10
601.0
 20
453.0
 10
618.0
 20
453.0
 10
619.0
 20
454.0
 10
721.0
 20
454.0
 10
619.0
 20
454.0
 10
618.0
 20
453.0
 10
606.0
 20
453.0
 10
605.0
 20
454.0
 10
607.0
 20
456.0
 10
611.0
 20
456.0
 10
611.0
 20
462.0
 10
614.0
 20
465.0
 10
615.0
 20
465.0
 10
615.0
 20
484.0
 10
618.0
 20
487.0
 10
620.0
 20
487.0
 10
621.0
 20
488.0
 10
624.0
 20
488.0
 10
625.0
 20
487.0
 10
638.0
 20
487.0
 10
639.0
 20
488.0
 10
643.0
 20
488.0
 10
644.0
 20
487.0
 10
648.0
 20
487.0
 10
649.0
 20
488.0
 10
653.0
 20
488.0
 10
654.0
 20
487.0
 10
673.0
 20
487.0
 10
674.0
 20
488.0
 10
693.0
 20
488.0
 10
693.0
 20
493.0
 10
692.0
 20
494.0
 10
692.0
 20
495.0
 10
693.0
 20
496.0
 10
693.0
 20
503.0
 10
692.0
 20
504.0
 10
692.0
 20
506.0
 10
693.0
 20
507.0
 10
693.0
 20
533.0
 10
692.0
 20
534.0
 10
692.0
 20
536.0
 10
693.0
 20
537.0
 10
693.0
 20
584.0
 10
693.0
 20
537.0
 10
692.0
 20
536.0
 10
692.0
 20
534.0
 10
693.0
 20
533.0
 10
693.0
 20
507.0
 10
692.0
 20
506.0
 10
692.0
 20
504.0
 10
693.0
 20
503.0
 10
693.0
 20
496.0
 10
692.0
 20
495.0
 10
692.0
 20
494.0
 10
693.0
 20
493.0
 10
693.0
 20
489.0
 10
692.0
 20
488.0
 10
674.0
 20
488.0
 10
673.0
 20
487.0
 10
654.0
 20
487.0
 10
653.0
 20
488.0
 10
649.0
 20
488.0
 10
648.0
 20
487.0
 10
644.0
 20
487.0
 10
643.0
 20
488.0
 10
639.0
 20
488.0
 10
638.0
 20
487.0
 10
625.0
 20
487.0
 10
624.0
 20
488.0
 10
621.0
 20
488.0
 10
620.0
 20
487.0
 10
618.0
 20
487.0
 10
617.0
 20
486.0
 10
616.0
 20
486.0
 10
616.0
 20
485.0
 10
615.0
 20
484.0
 10
615.0
 20
466.0
 10
613.0
 20
464.0
 10
612.0
 20
464.0
 10
612.0
 20
463.0
 10
611.0
 20
462.0
 10
611.0
 20
457.0
 10
610.0
 20
456.0
 10
607.0
 20
456.0
 10
606.0
 20
455.0
 10
594.0
 20
455.0
 10
593.0
 20
456.0
 10
581.0
 20
456.0
 10
580.0
 20
455.0
 10
571.0
 20
455.0
 10
570.0
 20
456.0
 10
561.0
 20
456.0
 10
560.0
 20
455.0
 10
553.0
 20
455.0
 10
552.0
 20
456.0
 10
545.0
 20
456.0
 10
544.0
 20
457.0
 10
543.0
 20
456.0
 10
540.0
 20
456.0
 10
539.0
 20
455.0
 10
528.0
 20
455.0
 10
527.0
 20
456.0
 10
525.0
 20
456.0
 10
524.0
 20
455.0
 10
517.0
 20
455.0
 10
516.0
 20
456.0
 10
515.0
 20
455.0
 10
503.0
 20
455.0
 10
502.0
 20
456.0
 10
501.0
 20
455.0
 10
479.0
 20
455.0
 10
476.0
 20
458.0
 10
476.0
 20
459.0
 10
479.0
 20
462.0
 10
478.0
 20
462.0
 10
477.0
 20
461.0
 10
477.0
 20
460.0
 10
476.0
 20
459.0
 10
476.0
 20
458.0
 10
477.0
 20
457.0
 10
477.0
 20
456.0
 10
478.0
 20
455.0
 10
478.0
 20
454.0
 10
477.0
 20
453.0
 10
475.0
 20
453.0
 10
474.0
 20
454.0
 10
446.0
 20
454.0
 10
445.0
 20
453.0
 10
438.0
 20
453.0
 10
437.0
 20
454.0
 10
430.0
 20
454.0
 10
429.0
 20
453.0
 10
412.0
 20
453.0
 10
411.0
 20
454.0
 10
405.0
 20
454.0
 10
404.0
 20
453.0
 10
377.0
 20
453.0
 10
376.0
 20
452.0
 10
374.0
 20
452.0
 10
372.0
 20
454.0
 10
373.0
 20
455.0
 10
373.0
 20
470.0
 10
374.0
 20
471.0
 10
374.0
 20
478.0
 10
373.0
 20
479.0
 10
373.0
 20
496.0
 10
374.0
 20
497.0
 10
374.0
 20
516.0
 10
373.0
 20
517.0
 10
373.0
 20
583.0
 10
374.0
 20
584.0
 10
374.0
 20
590.0
 10
373.0
 20
591.0
 10
374.0
 20
592.0
 10
374.0
 20
596.0
 10
373.0
 20
597.0
 10
373.0
 20
613.0
 10
374.0
 20
614.0
 10
374.0
 20
617.0
 10
373.0
 20
618.0
 10
373.0
 20
700.0
 10
372.0
 20
701.0
 10
372.0
 20
716.0
 10
373.0
 20
717.0
 10
373.0
 20
722.0
 10
372.0
 20
723.0
 10
372.0
 20
854.0
 10
373.0
 20
855.0
 10
373.0
 20
858.0
 10
372.0
 20
859.0
 10
372.0
 20
861.0
 10
373.0
 20
862.0
 10
373.0
 20
870.0
 10
372.0
 20
871.0
 10
372.0
 20
943.0
 10
371.0
 20
944.0
 10
371.0
 20
945.0
 10
373.0
 20
947.0
 10
374.0
 20
946.0
 10
373.0
 20
947.0
  0
LWPOLYLINE
  5
72D
330
17
100
AcDbEntity
  8
0
100
AcDbPolyline
 90
60
 70
0
 10
1454.0
 20
952.0
 10
1453.0
 20
951.0
 10
1432.0
 20
951.0
 10
1431.0
 20
950.0
 10
1427.0
 20
950.0
 10
1426.0
 20
951.0
 10
1375.0
 20
951.0
 10
1426.0
 20
951.0
 10
1427.0
 20
950.0
 10
1431.0
 20
950.0
 10
1432.0
 20
951.0
 10
1453.0
 20
951.0
 10
1454.0
 20
952.0
 10
1455.0
 20
951.0
 10
1460.0
 20
951.0
 10
1461.0
 20
952.0
 10
1463.0
 20
952.0
 10
1464.0
 20
951.0
 10
1533.0
 20
951.0
 10
1535.0
 20
949.0
 10
1535.0
 20
944.0
 10
1536.0
 20
943.0
 10
1536.0
 20
886.0
 10
1534.0
 20
884.0
 10
1529.0
 20
884.0
 10
1528.0
 20
883.0
 10
1527.0
 20
884.0
 10
1524.0
 20
884.0
 10
1523.0
 20
885.0
 10
1509.0
 20
885.0
 10
1508.0
 20
884.0
 10
1507.0
 20
884.0
 10
1507.0
 20
883.0
 10
1509.0
 20
885.0
 10
1523.0
 20
885.0
 10
1524.0
 20
884.0
 10
1524.0
 20
883.0
 10
1523.0
 20
882.0
 10
1513.0
 20
882.0
 10
1526.0
 20
882.0
 10
1525.0
 20
882.0
 10
1524.0
 20
883.0
 10
1525.0
 20
884.0
 10
1527.0
 20
884.0
 10
1528.0
 20
883.0
 10
1528.0
 20
882.0
 10
1528.0
 20
883.0
 10
1529.0
 20
884.0
 10
1534.0
 20
884.0
 10
1536.0
 20
886.0
 10
1536.0
 20
943.0
 10
1535.0
 20
944.0
 10
1535.0
 20
950.0
 10
1534.0
 20
950.0
 10
1533.0
 20
951.0
 10
1464.0
 20
951.0
 10
1463.0
 20
952.0
 10
1461.0
 20
952.0
 10
1460.0
 20
951.0
 10
1455.0
 20
951.0
  0
LWPOLYLINE
  5
72E
330
17
100
AcDbEntity
  8
0
100
AcDbPolyline
 90
349
 70
0
 10
736.0
 20
958.0
 10
735.0
 20
957.0
 10
735.0
 20
956.0
 10
734.0
 20
955.0
 10
733.0
 20
955.0
 10
732.0
 20
956.0
 10
730.0
 20
954.0
 10
730.0
 20
949.0
 10
729.0
 20
948.0
 10
722.0
 20
948.0
 10
720.0
 20
950.0
 10
719.0
 20
950.0
 10
718.0
 20
951.0
 10
717.0
 20
950.0
 10
716.0
 20
950.0
 10
715.0
 20
949.0
 10
702.0
 20
949.0
 10
700.0
 20
947.0
 10
700.0
 20
946.0
 10
698.0
 20
944.0
 10
696.0
 20
946.0
 10
696.0
 20
948.0
 10
695.0
 20
948.0
 10
694.0
 20
949.0
 10
668.0
 20
949.0
 10
667.0
 20
950.0
 10
664.0
 20
950.0
 10
663.0
 20
949.0
 10
661.0
 20
949.0
 10
660.0
 20
948.0
 10
659.0
 20
948.0
 10
659.0
 20
947.0
 10
658.0
 20
946.0
 10
658.0
 20
922.0
 10
659.0
 20
921.0
 10
659.0
 20
916.0
 10
658.0
 20
915.0
 10
658.0
 20
887.0
 10
659.0
 20
886.0
 10
662.0
 20
886.0
 10
664.0
 20
884.0
 10
695.0
 20
884.0
 10
695.0
 20
887.0
 10
693.0
 20
889.0
 10
693.0
 20
891.0
 10
694.0
 20
892.0
 10
695.0
 20
891.0
 10
695.0
 20
890.0
 10
697.0
 20
888.0
 10
697.0
 20
885.0
 10
700.0
 20
882.0
 10
700.0
 20
881.0
 10
701.0
 20
880.0
 10
701.0
 20
873.0
 10
700.0
 20
872.0
 10
700.0
 20
798.0
 10
701.0
 20
797.0
 10
701.0
 20
796.0
 10
699.0
 20
794.0
 10
689.0
 20
794.0
 10
688.0
 20
793.0
 10
686.0
 20
793.0
 10
685.0
 20
794.0
 10
687.0
 20
796.0
 10
688.0
 20
796.0
 10
689.0
 20
797.0
 10
689.0
 20
807.0
 10
688.0
 20
807.0
 10
687.0
 20
808.0
 10
677.0
 20
808.0
 10
676.0
 20
807.0
 10
673.0
 20
807.0
 10
672.0
 20
808.0
 10
647.0
 20
808.0
 10
645.0
 20
810.0
 10
645.0
 20
835.0
 10
646.0
 20
836.0
 10
646.0
 20
849.0
 10
645.0
 20
850.0
 10
645.0
 20
860.0
 10
644.0
 20
861.0
 10
599.0
 20
861.0
 10
598.0
 20
862.0
 10
596.0
 20
862.0
 10
595.0
 20
861.0
 10
546.0
 20
861.0
 10
545.0
 20
862.0
 10
481.0
 20
862.0
 10
480.0
 20
861.0
 10
478.0
 20
861.0
 10
477.0
 20
862.0
 10
465.0
 20
862.0
 10
462.0
 20
859.0
 10
459.0
 20
859.0
 10
458.0
 20
860.0
 10
457.0
 20
860.0
 10
456.0
 20
861.0
 10
411.0
 20
861.0
 10
410.0
 20
862.0
 10
406.0
 20
862.0
 10
405.0
 20
861.0
 10
404.0
 20
861.0
 10
404.0
 20
860.0
 10
403.0
 20
859.0
 10
403.0
 20
858.0
 10
404.0
 20
857.0
 10
404.0
 20
854.0
 10
405.0
 20
853.0
 10
405.0
 20
846.0
 10
404.0
 20
845.0
 10
404.0
 20
844.0
 10
403.0
 20
843.0
 10
403.0
 20
838.0
 10
402.0
 20
837.0
 10
402.0
 20
822.0
 10
403.0
 20
821.0
 10
403.0
 20
762.0
 10
402.0
 20
761.0
 10
402.0
 20
760.0
 10
403.0
 20
759.0
 10
403.0
 20
727.0
 10
404.0
 20
726.0
 10
404.0
 20
723.0
 10
403.0
 20
722.0
 10
403.0
 20
715.0
 10
404.0
 20
714.0
 10
404.0
 20
668.0
 10
405.0
 20
667.0
 10
405.0
 20
656.0
 10
404.0
 20
655.0
 10
404.0
 20
642.0
 10
405.0
 20
641.0
 10
405.0
 20
512.0
 10
406.0
 20
511.0
 10
406.0
 20
510.0
 10
407.0
 20
509.0
 10
407.0
 20
508.0
 10
409.0
 20
506.0
 10
409.0
 20
504.0
 10
408.0
 20
503.0
 10
408.0
 20
502.0
 10
407.0
 20
501.0
 10
407.0
 20
492.0
 10
406.0
 20
491.0
 10
406.0
 20
488.0
 10
407.0
 20
487.0
 10
407.0
 20
486.0
 10
456.0
 20
486.0
 10
457.0
 20
487.0
 10
474.0
 20
487.0
 10
475.0
 20
486.0
 10
475.0
 20
485.0
 10
476.0
 20
484.0
 10
475.0
 20
483.0
 10
475.0
 20
482.0
 10
474.0
 20
481.0
 10
474.0
 20
468.0
 10
475.0
 20
467.0
 10
475.0
 20
466.0
 10
476.0
 20
465.0
 10
480.0
 20
465.0
 10
481.0
 20
464.0
 10
483.0
 20
464.0
 10
481.0
 20
464.0
 10
480.0
 20
465.0
 10
477.0
 20
465.0
 10
474.0
 20
468.0
 10
474.0
 20
481.0
 10
475.0
 20
482.0
 10
475.0
 20
483.0
 10
476.0
 20
484.0
 10
479.0
 20
484.0
 10
476.0
 20
484.0
 10
475.0
 20
485.0
 10
476.0
 20
486.0
 10
480.0
 20
486.0
 10
481.0
 20
487.0
 10
484.0
 20
487.0
 10
485.0
 20
488.0
 10
488.0
 20
488.0
 10
489.0
 20
487.0
 10
495.0
 20
487.0
 10
496.0
 20
486.0
 10
508.0
 20
486.0
 10
509.0
 20
487.0
 10
526.0
 20
487.0
 10
527.0
 20
486.0
 10
527.0
 20
485.0
 10
527.0
 20
486.0
 10
526.0
 20
487.0
 10
509.0
 20
487.0
 10
508.0
 20
486.0
 10
496.0
 20
486.0
 10
495.0
 20
487.0
 10
489.0
 20
487.0
 10
488.0
 20
488.0
 10
485.0
 20
488.0
 10
484.0
 20
487.0
 10
481.0
 20
487.0
 10
480.0
 20
486.0
 10
475.0
 20
486.0
 10
474.0
 20
487.0
 10
457.0
 20
487.0
 10
456.0
 20
486.0
 10
408.0
 20
486.0
 10
406.0
 20
488.0
 10
406.0
 20
491.0
 10
407.0
 20
492.0
 10
407.0
 20
501.0
 10
408.0
 20
502.0
 10
408.0
 20
503.0
 10
409.0
 20
504.0
 10
409.0
 20
506.0
 10
408.0
 20
507.0
 10
408.0
 20
508.0
 10
406.0
 20
510.0
 10
406.0
 20
511.0
 10
405.0
 20
512.0
 10
405.0
 20
641.0
 10
404.0
 20
642.0
 10
404.0
 20
655.0
 10
405.0
 20
656.0
 10
405.0
 20
667.0
 10
404.0
 20
668.0
 10
404.0
 20
714.0
 10
403.0
 20
715.0
 10
403.0
 20
722.0
 10
404.0
 20
723.0
 10
404.0
 20
726.0
 10
403.0
 20
727.0
 10
403.0
 20
759.0
 10
402.0
 20
760.0
 10
402.0
 20
761.0
 10
403.0
 20
762.0
 10
403.0
 20
821.0
 10
402.0
 20
822.0
 10
402.0
 20
837.0
 10
403.0
 20
838.0
 10
403.0
 20
843.0
 10
404.0
 20
844.0
 10
404.0
 20
845.0
 10
405.0
 20
846.0
 10
405.0
 20
853.0
 10
404.0
 20
854.0
 10
404.0
 20
857.0
 10
403.0
 20
858.0
 10
403.0
 20
859.0
 10
406.0
 20
862.0
 10
410.0
 20
862.0
 10
411.0
 20
861.0
 10
456.0
 20
861.0
 10
458.0
 20
859.0
 10
463.0
 20
859.0
 10
463.0
 20
860.0
 10
465.0
 20
862.0
 10
477.0
 20
862.0
 10
478.0
 20
861.0
 10
480.0
 20
861.0
 10
481.0
 20
862.0
 10
545.0
 20
862.0
 10
546.0
 20
861.0
 10
595.0
 20
861.0
 10
596.0
 20
862.0
 10
598.0
 20
862.0
 10
599.0
 20
861.0
 10
644.0
 20
861.0
 10
645.0
 20
860.0
 10
645.0
 20
850.0
 10
646.0
 20
849.0
 10
646.0
 20
836.0
 10
645.0
 20
835.0
 10
645.0
 20
810.0
 10
646.0
 20
809.0
 10
646.0
 20
808.0
 10
672.0
 20
808.0
 10
673.0
 20
807.0
 10
676.0
 20
807.0
 10
677.0
 20
808.0
 10
687.0
 20
808.0
 10
689.0
 20
806.0
 10
689.0
 20
797.0
 10
688.0
 20
796.0
 10
687.0
 20
796.0
 10
686.0
 20
795.0
 10
685.0
 20
795.0
 10
685.0
 20
794.0
 10
686.0
 20
793.0
 10
688.0
 20
793.0
 10
689.0
 20
794.0
 10
700.0
 20
794.0
 10
701.0
 20
795.0
 10
701.0
 20
797.0
 10
700.0
 20
798.0
 10
700.0
 20
872.0
 10
701.0
 20
873.0
 10
701.0
 20
880.0
 10
700.0
 20
881.0
 10
700.0
 20
883.0
 10
697.0
 20
886.0
 10
697.0
 20
888.0
 10
696.0
 20
889.0
 10
696.0
 20
890.0
 10
694.0
 20
892.0
 10
693.0
 20
892.0
 10
693.0
 20
889.0
 10
694.0
 20
888.0
 10
694.0
 20
887.0
 10
695.0
 20
886.0
 10
695.0
 20
885.0
 10
694.0
 20
884.0
 10
665.0
 20
884.0
 10
664.0
 20
885.0
 10
663.0
 20
885.0
 10
662.0
 20
886.0
 10
659.0
 20
886.0
 10
658.0
 20
887.0
 10
658.0
 20
915.0
 10
659.0
 20
916.0
 10
659.0
 20
921.0
 10
658.0
 20
922.0
 10
658.0
 20
946.0
 10
661.0
 20
949.0
 10
663.0
 20
949.0
 10
664.0
 20
950.0
 10
667.0
 20
950.0
 10
668.0
 20
949.0
 10
694.0
 20
949.0
 10
696.0
 20
947.0
 10
696.0
 20
946.0
 10
697.0
 20
945.0
 10
697.0
 20
944.0
 10
699.0
 20
944.0
 10
699.0
 20
945.0
 10
700.0
 20
946.0
 10
700.0
 20
947.0
 10
702.0
 20
949.0
 10
715.0
 20
949.0
 10
716.0
 20
950.0
 10
717.0
 20
950.0
 10
718.0
 20
951.0
 10
720.0
 20
949.0
 10
721.0
 20
949.0
 10
722.0
 20
948.0
 10
730.0
 20
948.0
 10
730.0
 20
954.0
 10
732.0
 20
956.0
 10
733.0
 20
955.0
 10
735.0
 20
955.0
 10
735.0
 20
957.0
  0
LWPOLYLINE
  5
72F
330
17
100
AcDbEntity
  8
0
100
AcDbPolyline
 90
86
 70
0
 10
1371.0
 20
961.0
 10
1370.0
 20
960.0
 10
1369.0
 20
960.0
 10
1368.0
 20
959.0
 10
1368.0
 20
958.0
 10
1367.0
 20
957.0
 10
1367.0
 20
956.0
 10
1368.0
 20
955.0
 10
1368.0
 20
954.0
 10
1369.0
 20
953.0
 10
1367.0
 20
951.0
 10
1366.0
 20
951.0
 10
1364.0
 20
949.0
 10
1362.0
 20
949.0
 10
1361.0
 20
950.0
 10
1360.0
 20
950.0
 10
1359.0
 20
951.0
 10
1355.0
 20
951.0
 10
1354.0
 20
952.0
 10
1278.0
 20
952.0
 10
1276.0
 20
950.0
 10
1276.0
 20
939.0
 10
1277.0
 20
938.0
 10
1277.0
 20
932.0
 10
1276.0
 20
931.0
 10
1276.0
 20
927.0
 10
1277.0
 20
926.0
 10
1277.0
 20
872.0
 10
1278.0
 20
871.0
 10
1278.0
 20
870.0
 10
1279.0
 20
869.0
 10
1279.0
 20
863.0
 10
1278.0
 20
862.0
 10
1278.0
 20
858.0
 10
1279.0
 20
857.0
 10
1279.0
 20
856.0
 10
1280.0
 20
855.0
 10
1280.0
 20
854.0
 10
1285.0
 20
849.0
 10
1285.0
 20
848.0
 10
1287.0
 20
846.0
 10
1286.0
 20
847.0
 10
1286.0
 20
848.0
 10
1284.0
 20
850.0
 10
1284.0
 20
851.0
 10
1279.0
 20
856.0
 10
1279.0
 20
857.0
 10
1278.0
 20
858.0
 10
1278.0
 20
862.0
 10
1279.0
 20
863.0
 10
1279.0
 20
869.0
 10
1278.0
 20
870.0
 10
1278.0
 20
871.0
 10
1277.0
 20
872.0
 10
1277.0
 20
926.0
 10
1276.0
 20
927.0
 10
1276.0
 20
931.0
 10
1277.0
 20
932.0
 10
1277.0
 20
938.0
 10
1276.0
 20
939.0
 10
1276.0
 20
950.0
 10
1278.0
 20
952.0
 10
1354.0
 20
952.0
 10
1355.0
 20
951.0
 10
1359.0
 20
951.0
 10
1360.0
 20
950.0
 10
1361.0
 20
950.0
 10
1362.0
 20
949.0
 10
1362.0
 20
946.0
 10
1364.0
 20
946.0
 10
1364.0
 20
947.0
 10
1363.0
 20
946.0
 10
1362.0
 20
947.0
 10
1362.0
 20
948.0
 10
1363.0
 20
949.0
 10
1365.0
 20
949.0
 10
1368.0
 20
952.0
 10
1369.0
 20
951.0
 10
1370.0
 20
951.0
 10
1369.0
 20
951.0
 10
1368.0
 20
952.0
 10
1369.0
 20
953.0
 10
1375.0
 20
953.0
 10
1375.0
 20
960.0
 10
1374.0
 20
960.0
 10
1373.0
 20
961.0
  0
LWPOLYLINE
  5
730
330
17
100
AcDbEntity
  8
0
100
AcDbPolyline
 90
28
 70
0
 10
802.0
 20
972.0
 10
808.0
 20
966.0
 10
808.0
 20
950.0
 10
809.0
 20
949.0
 10
832.0
 20
949.0
 10
833.0
 20
950.0
 10
835.0
 20
950.0
 10
836.0
 20
949.0
 10
865.0
 20
949.0
 10
866.0
 20
950.0
 10
869.0
 20
950.0
 10
870.0
 20
949.0
 10
940.0
 20
949.0
 10
870.0
 20
949.0
 10
869.0
 20
950.0
 10
866.0
 20
950.0
 10
865.0
 20
949.0
 10
836.0
 20
949.0
 10
835.0
 20
950.0
 10
833.0
 20
950.0
 10
832.0
 20
949.0
 10
809.0
 20
949.0
 10
808.0
 20
950.0
 10
808.0
 20
966.0
 10
807.0
 20
967.0
 10
807.0
 20
968.0
 10
806.0
 20
969.0
 10
805.0
 20
969.0
  0
LWPOLYLINE
  5
731
330
17
100
AcDbEntity
  8
0
100
AcDbPolyline
 90
189
 70
0
 10
655.0
 20
975.0
 10
653.0
 20
973.0
 10
647.0
 20
973.0
 10
645.0
 20
971.0
 10
645.0
 20
970.0
 10
644.0
 20
969.0
 10
644.0
 20
968.0
 10
643.0
 20
967.0
 10
643.0
 20
961.0
 10
644.0
 20
960.0
 10
644.0
 20
904.0
 10
645.0
 20
903.0
 10
645.0
 20
893.0
 10
644.0
 20
892.0
 10
644.0
 20
887.0
 10
645.0
 20
886.0
 10
645.0
 20
874.0
 10
644.0
 20
873.0
 10
583.0
 20
873.0
 10
582.0
 20
874.0
 10
573.0
 20
874.0
 10
572.0
 20
873.0
 10
563.0
 20
873.0
 10
562.0
 20
872.0
 10
559.0
 20
872.0
 10
558.0
 20
873.0
 10
550.0
 20
873.0
 10
549.0
 20
872.0
 10
546.0
 20
872.0
 10
545.0
 20
873.0
 10
515.0
 20
873.0
 10
514.0
 20
874.0
 10
513.0
 20
874.0
 10
512.0
 20
873.0
 10
510.0
 20
873.0
 10
509.0
 20
872.0
 10
506.0
 20
872.0
 10
505.0
 20
873.0
 10
503.0
 20
873.0
 10
502.0
 20
874.0
 10
496.0
 20
874.0
 10
495.0
 20
873.0
 10
492.0
 20
873.0
 10
491.0
 20
872.0
 10
484.0
 20
872.0
 10
483.0
 20
873.0
 10
480.0
 20
873.0
 10
479.0
 20
874.0
 10
472.0
 20
874.0
 10
471.0
 20
873.0
 10
412.0
 20
873.0
 10
411.0
 20
874.0
 10
410.0
 20
873.0
 10
403.0
 20
873.0
 10
402.0
 20
874.0
 10
402.0
 20
892.0
 10
403.0
 20
893.0
 10
403.0
 20
903.0
 10
402.0
 20
904.0
 10
402.0
 20
907.0
 10
403.0
 20
908.0
 10
403.0
 20
911.0
 10
402.0
 20
912.0
 10
402.0
 20
915.0
 10
402.0
 20
912.0
 10
403.0
 20
911.0
 10
403.0
 20
908.0
 10
402.0
 20
907.0
 10
402.0
 20
904.0
 10
403.0
 20
903.0
 10
403.0
 20
893.0
 10
402.0
 20
892.0
 10
402.0
 20
874.0
 10
403.0
 20
873.0
 10
410.0
 20
873.0
 10
411.0
 20
874.0
 10
412.0
 20
873.0
 10
471.0
 20
873.0
 10
472.0
 20
874.0
 10
479.0
 20
874.0
 10
480.0
 20
873.0
 10
483.0
 20
873.0
 10
484.0
 20
872.0
 10
491.0
 20
872.0
 10
492.0
 20
873.0
 10
495.0
 20
873.0
 10
496.0
 20
874.0
 10
502.0
 20
874.0
 10
503.0
 20
873.0
 10
505.0
 20
873.0
 10
506.0
 20
872.0
 10
509.0
 20
872.0
 10
510.0
 20
873.0
 10
512.0
 20
873.0
 10
513.0
 20
874.0
 10
514.0
 20
874.0
 10
515.0
 20
873.0
 10
545.0
 20
873.0
 10
546.0
 20
872.0
 10
549.0
 20
872.0
 10
550.0
 20
873.0
 10
558.0
 20
873.0
 10
559.0
 20
872.0
 10
562.0
 20
872.0
 10
563.0
 20
873.0
 10
572.0
 20
873.0
 10
573.0
 20
874.0
 10
582.0
 20
874.0
 10
583.0
 20
873.0
 10
645.0
 20
873.0
 10
645.0
 20
886.0
 10
644.0
 20
887.0
 10
644.0
 20
892.0
 10
645.0
 20
893.0
 10
645.0
 20
903.0
 10
644.0
 20
904.0
 10
644.0
 20
960.0
 10
643.0
 20
961.0
 10
643.0
 20
967.0
 10
644.0
 20
968.0
 10
644.0
 20
969.0
 10
648.0
 20
973.0
 10
653.0
 20
973.0
 10
654.0
 20
974.0
 10
655.0
 20
974.0
 10
656.0
 20
975.0
 10
658.0
 20
973.0
 10
665.0
 20
973.0
 10
666.0
 20
972.0
 10
673.0
 20
972.0
 10
674.0
 20
973.0
 10
677.0
 20
973.0
 10
678.0
 20
972.0
 10
682.0
 20
972.0
 10
683.0
 20
973.0
 10
685.0
 20
973.0
 10
686.0
 20
972.0
 10
714.0
 20
972.0
 10
715.0
 20
973.0
 10
716.0
 20
973.0
 10
718.0
 20
971.0
 10
718.0
 20
957.0
 10
719.0
 20
956.0
 10
721.0
 20
956.0
 10
723.0
 20
954.0
 10
723.0
 20
953.0
 10
724.0
 20
952.0
 10
724.0
 20
951.0
 10
726.0
 20
951.0
 10
726.0
 20
954.0
 10
730.0
 20
958.0
 10
731.0
 20
958.0
 10
732.0
 20
959.0
 10
733.0
 20
959.0
 10
734.0
 20
960.0
 10
736.0
 20
960.0
 10
734.0
 20
960.0
 10
733.0
 20
959.0
 10
732.0
 20
959.0
 10
731.0
 20
958.0
 10
730.0
 20
958.0
 10
729.0
 20
957.0
 10
728.0
 20
957.0
 10
727.0
 20
956.0
 10
727.0
 20
955.0
 10
726.0
 20
954.0
 10
726.0
 20
952.0
 10
725.0
 20
951.0
 10
723.0
 20
953.0
 10
723.0
 20
955.0
 10
722.0
 20
956.0
 10
719.0
 20
956.0
 10
718.0
 20
957.0
 10
718.0
 20
972.0
 10
717.0
 20
973.0
 10
714.0
 20
973.0
 10
713.0
 20
972.0
 10
686.0
 20
972.0
 10
685.0
 20
973.0
 10
683.0
 20
973.0
 10
682.0
 20
972.0
 10
678.0
 20
972.0
 10
677.0
 20
973.0
 10
674.0
 20
973.0
 10
673.0
 20
972.0
 10
666.0
 20
972.0
 10
665.0
 20
973.0
 10
659.0
 20
973.0
 10
657.0
 20
975.0
  0
LWPOLYLINE
  5
732
330
17
100
AcDbEntity
  8
0
100
AcDbPolyline
 90
54
 70
0
 10
1247.0
 20
978.0
 10
1247.0
 20
976.0
 10
1250.0
 20
973.0
 10
1250.0
 20
972.0
 10
1251.0
 20
972.0
 10
1254.0
 20
969.0
 10
1254.0
 20
954.0
 10
1255.0
 20
953.0
 10
1255.0
 20
952.0
 10
1263.0
 20
952.0
 10
1264.0
 20
953.0
 10
1266.0
 20
951.0
 10
1266.0
 20
901.0
 10
1267.0
 20
900.0
 10
1267.0
 20
895.0
 10
1266.0
 20
894.0
 10
1266.0
 20
883.0
 10
1267.0
 20
882.0
 10
1267.0
 20
854.0
 10
1268.0
 20
853.0
 10
1277.0
 20
853.0
 10
1278.0
 20
852.0
 10
1278.0
 20
851.0
 10
1279.0
 20
851.0
 10
1283.0
 20
847.0
 10
1283.0
 20
846.0
 10
1284.0
 20
845.0
 10
1284.0
 20
844.0
 10
1286.0
 20
844.0
 10
1285.0
 20
844.0
 10
1283.0
 20
846.0
 10
1283.0
 20
848.0
 10
1281.0
 20
850.0
 10
1280.0
 20
850.0
 10
1277.0
 20
853.0
 10
1268.0
 20
853.0
 10
1267.0
 20
854.0
 10
1267.0
 20
882.0
 10
1266.0
 20
883.0
 10
1266.0
 20
894.0
 10
1267.0
 20
895.0
 10
1267.0
 20
900.0
 10
1266.0
 20
901.0
 10
1266.0
 20
952.0
 10
1265.0
 20
952.0
 10
1264.0
 20
953.0
 10
1263.0
 20
952.0
 10
1256.0
 20
952.0
 10
1254.0
 20
954.0
 10
1254.0
 20
970.0
 10
1253.0
 20
970.0
 10
1247.0
 20
976.0
 10
1247.0
 20
977.0
 10
1248.0
 20
978.0
  0
LWPOLYLINE
  5
733
330
17
100
AcDbEntity
  8
0
100
AcDbPolyline
 90
62
 70
0
 10
376.0
 20
1030.0
 10
375.0
 20
1029.0
 10
374.0
 20
1029.0
 10
374.0
 20
1028.0
 10
376.0
 20
1030.0
 10
377.0
 20
1030.0
 10
380.0
 20
1027.0
 10
380.0
 20
1021.0
 10
379.0
 20
1020.0
 10
379.0
 20
1019.0
 10
380.0
 20
1018.0
 10
380.0
 20
1004.0
 10
379.0
 20
1003.0
 10
379.0
 20
1002.0
 10
380.0
 20
1001.0
 10
380.0
 20
973.0
 10
381.0
 20
972.0
 10
381.0
 20
963.0
 10
380.0
 20
962.0
 10
380.0
 20
960.0
 10
379.0
 20
959.0
 10
380.0
 20
958.0
 10
380.0
 20
953.0
 10
381.0
 20
952.0
 10
381.0
 20
948.0
 10
380.0
 20
947.0
 10
380.0
 20
937.0
 10
381.0
 20
936.0
 10
381.0
 20
923.0
 10
380.0
 20
922.0
 10
376.0
 20
922.0
 10
374.0
 20
924.0
 10
374.0
 20
928.0
 10
374.0
 20
923.0
 10
375.0
 20
923.0
 10
376.0
 20
922.0
 10
381.0
 20
922.0
 10
381.0
 20
936.0
 10
380.0
 20
937.0
 10
380.0
 20
947.0
 10
381.0
 20
948.0
 10
381.0
 20
952.0
 10
380.0
 20
953.0
 10
380.0
 20
958.0
 10
379.0
 20
959.0
 10
380.0
 20
960.0
 10
380.0
 20
962.0
 10
381.0
 20
963.0
 10
381.0
 20
972.0
 10
380.0
 20
973.0
 10
380.0
 20
1001.0
 10
379.0
 20
1002.0
 10
379.0
 20
1003.0
 10
380.0
 20
1004.0
 10
380.0
 20
1018.0
 10
379.0
 20
1019.0
 10
379.0
 20
1020.0
 10
380.0
 20
1021.0
 10
380.0
 20
1028.0
 10
379.0
 20
1029.0
 10
378.0
 20
1029.0
 10
377.0
 20
1030.0
  0
LWPOLYLINE
  5
734
330
17
100
AcDbEntity
  8
0
100
AcDbPolyline
 90
107
 70
0
 10
384.0
 20
1038.0
 10
382.0
 20
1036.0
 10
382.0
 20
1029.0
 10
382.0
 20
1036.0
 10
384.0
 20
1038.0
 10
394.0
 20
1038.0
 10
395.0
 20
1037.0
 10
396.0
 20
1037.0
 10
399.0
 20
1034.0
 10
399.0
 20
1033.0
 10
398.0
 20
1032.0
 10
398.0
 20
1028.0
 10
399.0
 20
1027.0
 10
399.0
 20
1018.0
 10
398.0
 20
1017.0
 10
398.0
 20
1008.0
 10
399.0
 20
1007.0
 10
399.0
 20
1005.0
 10
400.0
 20
1004.0
 10
400.0
 20
1001.0
 10
399.0
 20
1000.0
 10
399.0
 20
996.0
 10
398.0
 20
995.0
 10
398.0
 20
992.0
 10
399.0
 20
991.0
 10
399.0
 20
976.0
 10
398.0
 20
975.0
 10
394.0
 20
975.0
 10
393.0
 20
974.0
 10
394.0
 20
973.0
 10
398.0
 20
973.0
 10
400.0
 20
971.0
 10
400.0
 20
970.0
 10
399.0
 20
969.0
 10
399.0
 20
965.0
 10
400.0
 20
964.0
 10
400.0
 20
958.0
 10
399.0
 20
957.0
 10
399.0
 20
955.0
 10
400.0
 20
954.0
 10
400.0
 20
950.0
 10
399.0
 20
949.0
 10
399.0
 20
937.0
 10
400.0
 20
936.0
 10
400.0
 20
930.0
 10
401.0
 20
929.0
 10
401.0
 20
927.0
 10
400.0
 20
926.0
 10
400.0
 20
923.0
 10
399.0
 20
922.0
 10
399.0
 20
919.0
 10
400.0
 20
918.0
 10
400.0
 20
916.0
 10
399.0
 20
915.0
 10
385.0
 20
915.0
 10
383.0
 20
917.0
 10
383.0
 20
922.0
 10
383.0
 20
917.0
 10
384.0
 20
916.0
 10
384.0
 20
915.0
 10
400.0
 20
915.0
 10
400.0
 20
918.0
 10
399.0
 20
919.0
 10
399.0
 20
922.0
 10
400.0
 20
923.0
 10
400.0
 20
926.0
 10
401.0
 20
927.0
 10
401.0
 20
929.0
 10
400.0
 20
930.0
 10
400.0
 20
936.0
 10
399.0
 20
937.0
 10
399.0
 20
949.0
 10
400.0
 20
950.0
 10
400.0
 20
954.0
 10
399.0
 20
955.0
 10
399.0
 20
957.0
 10
400.0
 20
958.0
 10
400.0
 20
964.0
 10
399.0
 20
965.0
 10
399.0
 20
969.0
 10
400.0
 20
970.0
 10
400.0
 20
972.0
 10
398.0
 20
974.0
 10
398.0
 20
975.0
 10
399.0
 20
976.0
 10
399.0
 20
991.0
 10
398.0
 20
992.0
 10
398.0
 20
995.0
 10
399.0
 20
996.0
 10
399.0
 20
1000.0
 10
400.0
 20
1001.0
 10
400.0
 20
1004.0
 10
399.0
 20
1005.0
 10
399.0
 20
1007.0
 10
398.0
 20
1008.0
 10
398.0
 20
1017.0
 10
399.0
 20
1018.0
 10
399.0
 20
1027.0
 10
398.0
 20
1028.0
 10
398.0
 20
1032.0
 10
399.0
 20
1033.0
 10
399.0
 20
1035.0
 10
398.0
 20
1036.0
 10
397.0
 20
1036.0
 10
396.0
 20
1037.0
 10
395.0
 20
1037.0
 10
394.0
 20
1038.0
  0
LWPOLYLINE
  5
735
330
17
100
AcDbEntity
  8
0
100
AcDbPolyline
 90
68
 70
0
 10
139.0
 20
1118.0
 10
139.0
 20
1088.0
 10
140.0
 20
1087.0
 10
140.0
 20
1082.0
 10
139.0
 20
1081.0
 10
139.0
 20
1075.0
 10
140.0
 20
1074.0
 10
141.0
 20
1074.0
 10
142.0
 20
1073.0
 10
141.0
 20
1072.0
 10
140.0
 20
1072.0
 10
139.0
 20
1071.0
 10
139.0
 20
1070.0
 10
138.0
 20
1069.0
 10
138.0
 20
1061.0
 10
139.0
 20
1060.0
 10
139.0
 20
1052.0
 10
138.0
 20
1051.0
 10
138.0
 20
1049.0
 10
139.0
 20
1048.0
 10
139.0
 20
1039.0
 10
140.0
 20
1038.0
 10
140.0
 20
1028.0
 10
139.0
 20
1027.0
 10
139.0
 20
1021.0
 10
140.0
 20
1020.0
 10
140.0
 20
1016.0
 10
141.0
 20
1017.0
 10
142.0
 20
1016.0
 10
142.0
 20
1028.0
 10
142.0
 20
1021.0
 10
141.0
 20
1020.0
 10
140.0
 20
1020.0
 10
139.0
 20
1021.0
 10
139.0
 20
1027.0
 10
140.0
 20
1028.0
 10
140.0
 20
1038.0
 10
139.0
 20
1039.0
 10
139.0
 20
1048.0
 10
138.0
 20
1049.0
 10
138.0
 20
1051.0
 10
139.0
 20
1052.0
 10
139.0
 20
1060.0
 10
138.0
 20
1061.0
 10
138.0
 20
1069.0
 10
141.0
 20
1072.0
 10
142.0
 20
1071.0
 10
142.0
 20
1066.0
 10
141.0
 20
1065.0
 10
141.0
 20
1060.0
 10
141.0
 20
1065.0
 10
142.0
 20
1066.0
 10
142.0
 20
1071.0
 10
141.0
 20
1072.0
 10
142.0
 20
1073.0
 10
142.0
 20
1086.0
 10
142.0
 20
1075.0
 10
141.0
 20
1074.0
 10
140.0
 20
1074.0
 10
139.0
 20
1075.0
 10
139.0
 20
1081.0
 10
140.0
 20
1082.0
 10
140.0
 20
1087.0
 10
139.0
 20
1088.0
 10
139.0
 20
1117.0
 10
140.0
 20
1118.0
 10
141.0
 20
1117.0
 10
141.0
 20
1118.0
  0
LWPOLYLINE
  5
736
330
17
100
AcDbEntity
  8
0
100
AcDbPolyline
 90
225
 70
0
 10
1435.0
 20
1355.0
 10
1434.0
 20
1354.0
 10
1430.0
 20
1354.0
 10
1434.0
 20
1354.0
 10
1435.0
 20
1355.0
 10
1438.0
 20
1355.0
 10
1439.0
 20
1354.0
 10
1441.0
 20
1354.0
 10
1442.0
 20
1355.0
 10
1534.0
 20
1355.0
 10
1535.0
 20
1354.0
 10
1535.0
 20
1332.0
 10
1534.0
 20
1331.0
 10
1534.0
 20
1328.0
 10
1535.0
 20
1327.0
 10
1535.0
 20
1315.0
 10
1534.0
 20
1314.0
 10
1535.0
 20
1313.0
 10
1535.0
 20
1294.0
 10
1534.0
 20
1293.0
 10
1535.0
 20
1292.0
 10
1535.0
 20
1286.0
 10
1534.0
 20
1285.0
 10
1535.0
 20
1284.0
 10
1535.0
 20
1236.0
 10
1534.0
 20
1235.0
 10
1534.0
 20
1231.0
 10
1535.0
 20
1230.0
 10
1535.0
 20
1186.0
 10
1534.0
 20
1185.0
 10
1534.0
 20
1184.0
 10
1533.0
 20
1183.0
 10
1533.0
 20
1177.0
 10
1534.0
 20
1177.0
 10
1535.0
 20
1176.0
 10
1535.0
 20
1161.0
 10
1534.0
 20
1160.0
 10
1534.0
 20
1156.0
 10
1535.0
 20
1155.0
 10
1535.0
 20
1140.0
 10
1534.0
 20
1139.0
 10
1534.0
 20
1138.0
 10
1535.0
 20
1137.0
 10
1535.0
 20
1124.0
 10
1534.0
 20
1123.0
 10
1534.0
 20
1119.0
 10
1535.0
 20
1118.0
 10
1535.0
 20
1096.0
 10
1534.0
 20
1095.0
 10
1534.0
 20
1094.0
 10
1535.0
 20
1093.0
 10
1535.0
 20
1049.0
 10
1534.0
 20
1048.0
 10
1534.0
 20
1047.0
 10
1535.0
 20
1046.0
 10
1535.0
 20
1045.0
 10
1536.0
 20
1044.0
 10
1536.0
 20
1039.0
 10
1535.0
 20
1038.0
 10
1535.0
 20
998.0
 10
1536.0
 20
997.0
 10
1536.0
 20
991.0
 10
1535.0
 20
990.0
 10
1535.0
 20
977.0
 10
1536.0
 20
976.0
 10
1536.0
 20
971.0
 10
1535.0
 20
970.0
 10
1530.0
 20
970.0
 10
1529.0
 20
971.0
 10
1517.0
 20
971.0
 10
1516.0
 20
970.0
 10
1504.0
 20
970.0
 10
1503.0
 20
971.0
 10
1502.0
 20
971.0
 10
1501.0
 20
970.0
 10
1495.0
 20
970.0
 10
1494.0
 20
971.0
 10
1483.0
 20
971.0
 10
1482.0
 20
970.0
 10
1464.0
 20
970.0
 10
1463.0
 20
971.0
 10
1459.0
 20
971.0
 10
1458.0
 20
970.0
 10
1448.0
 20
970.0
 10
1447.0
 20
971.0
 10
1436.0
 20
971.0
 10
1435.0
 20
970.0
 10
1430.0
 20
970.0
 10
1429.0
 20
971.0
 10
1420.0
 20
971.0
 10
1419.0
 20
970.0
 10
1415.0
 20
970.0
 10
1414.0
 20
971.0
 10
1413.0
 20
971.0
 10
1412.0
 20
972.0
 10
1411.0
 20
971.0
 10
1362.0
 20
971.0
 10
1361.0
 20
970.0
 10
1353.0
 20
970.0
 10
1352.0
 20
971.0
 10
1351.0
 20
971.0
 10
1350.0
 20
970.0
 10
1343.0
 20
970.0
 10
1342.0
 20
971.0
 10
1299.0
 20
971.0
 10
1298.0
 20
972.0
 10
1295.0
 20
972.0
 10
1294.0
 20
971.0
 10
1282.0
 20
971.0
 10
1281.0
 20
972.0
 10
1268.0
 20
972.0
 10
1267.0
 20
973.0
 10
1265.0
 20
973.0
 10
1264.0
 20
972.0
 10
1254.0
 20
972.0
 10
1252.0
 20
974.0
 10
1252.0
 20
975.0
 10
1250.0
 20
977.0
 10
1251.0
 20
976.0
 10
1251.0
 20
975.0
 10
1254.0
 20
972.0
 10
1264.0
 20
972.0
 10
1265.0
 20
973.0
 10
1267.0
 20
973.0
 10
1268.0
 20
972.0
 10
1281.0
 20
972.0
 10
1282.0
 20
971.0
 10
1294.0
 20
971.0
 10
1295.0
 20
972.0
 10
1298.0
 20
972.0
 10
1299.0
 20
971.0
 10
1342.0
 20
971.0
 10
1343.0
 20
970.0
 10
1350.0
 20
970.0
 10
1351.0
 20
971.0
 10
1352.0
 20
971.0
 10
1353.0
 20
970.0
 10
1361.0
 20
970.0
 10
1362.0
 20
971.0
 10
1411.0
 20
971.0
 10
1412.0
 20
972.0
 10
1414.0
 20
970.0
 10
1419.0
 20
970.0
 10
1420.0
 20
971.0
 10
1429.0
 20
971.0
 10
1430.0
 20
970.0
 10
1435.0
 20
970.0
 10
1436.0
 20
971.0
 10
1447.0
 20
971.0
 10
1448.0
 20
970.0
 10
1458.0
 20
970.0
 10
1459.0
 20
971.0
 10
1463.0
 20
971.0
 10
1464.0
 20
970.0
 10
1482.0
 20
970.0
 10
1483.0
 20
971.0
 10
1494.0
 20
971.0
 10
1495.0
 20
970.0
 10
1501.0
 20
970.0
 10
1502.0
 20
971.0
 10
1503.0
 20
971.0
 10
1504.0
 20
970.0
 10
1516.0
 20
970.0
 10
1517.0
 20
971.0
 10
1529.0
 20
971.0
 10
1530.0
 20
970.0
 10
1535.0
 20
970.0
 10
1536.0
 20
971.0
 10
1536.0
 20
976.0
 10
1535.0
 20
977.0
 10
1535.0
 20
990.0
 10
1536.0
 20
991.0
 10
1536.0
 20
997.0
 10
1535.0
 20
998.0
 10
1535.0
 20
1038.0
 10
1536.0
 20
1039.0
 10
1536.0
 20
1044.0
 10
1535.0
 20
1045.0
 10
1535.0
 20
1046.0
 10
1534.0
 20
1047.0
 10
1534.0
 20
1048.0
 10
1535.0
 20
1049.0
 10
1535.0
 20
1093.0
 10
1534.0
 20
1094.0
 10
1534.0
 20
1095.0
 10
1535.0
 20
1096.0
 10
1535.0
 20
1118.0
 10
1534.0
 20
1119.0
 10
1534.0
 20
1123.0
 10
1535.0
 20
1124.0
 10
1535.0
 20
1137.0
 10
1534.0
 20
1138.0
 10
1534.0
 20
1139.0
 10
1535.0
 20
1140.0
 10
1535.0
 20
1155.0
 10
1534.0
 20
1156.0
 10
1534.0
 20
1160.0
 10
1535.0
 20
1161.0
 10
1535.0
 20
1176.0
 10
1533.0
 20
1178.0
 10
1533.0
 20
1183.0
 10
1535.0
 20
1185.0
 10
1535.0
 20
1230.0
 10
1534.0
 20
1231.0
 10
1534.0
 20
1235.0
 10
1535.0
 20
1236.0
 10
1535.0
 20
1284.0
 10
1534.0
 20
1285.0
 10
1535.0
 20
1286.0
 10
1535.0
 20
1292.0
 10
1534.0
 20
1293.0
 10
1535.0
 20
1294.0
 10
1535.0
 20
1313.0
 10
1534.0
 20
1314.0
 10
1535.0
 20
1315.0
 10
1535.0
 20
1327.0
 10
1534.0
 20
1328.0
 10
1534.0
 20
1331.0
 10
1535.0
 20
1332.0
 10
1535.0
 20
1354.0
 10
1534.0
 20
1355.0
 10
1442.0
 20
1355.0
 10
1441.0
 20
1354.0
 10
1439.0
 20
1354.0
 10
1438.0
 20
1355.0
  0
LWPOLYLINE
  5
737
330
17
100
AcDbEntity
  8
0
100
AcDbPolyline
 90
171
 70
0
 10
959.0
 20
1357.0
 10
958.0
 20
1356.0
 10
938.0
 20
1356.0
 10
937.0
 20
1355.0
 10
934.0
 20
1355.0
 10
933.0
 20
1356.0
 10
920.0
 20
1356.0
 10
919.0
 20
1355.0
 10
914.0
 20
1355.0
 10
913.0
 20
1356.0
 10
912.0
 20
1356.0
 10
913.0
 20
1356.0
 10
914.0
 20
1355.0
 10
919.0
 20
1355.0
 10
920.0
 20
1356.0
 10
933.0
 20
1356.0
 10
934.0
 20
1355.0
 10
937.0
 20
1355.0
 10
938.0
 20
1356.0
 10
958.0
 20
1356.0
 10
959.0
 20
1357.0
 10
960.0
 20
1357.0
 10
961.0
 20
1356.0
 10
964.0
 20
1356.0
 10
965.0
 20
1355.0
 10
970.0
 20
1355.0
 10
971.0
 20
1356.0
 10
994.0
 20
1356.0
 10
995.0
 20
1355.0
 10
1008.0
 20
1355.0
 10
1009.0
 20
1356.0
 10
1023.0
 20
1356.0
 10
1024.0
 20
1355.0
 10
1088.0
 20
1355.0
 10
1090.0
 20
1353.0
 10
1090.0
 20
1346.0
 10
1089.0
 20
1345.0
 10
1089.0
 20
1326.0
 10
1090.0
 20
1325.0
 10
1090.0
 20
1321.0
 10
1089.0
 20
1320.0
 10
1089.0
 20
1310.0
 10
1090.0
 20
1309.0
 10
1090.0
 20
1303.0
 10
1089.0
 20
1302.0
 10
1089.0
 20
1301.0
 10
1090.0
 20
1300.0
 10
1090.0
 20
1193.0
 10
1091.0
 20
1192.0
 10
1091.0
 20
1185.0
 10
1090.0
 20
1184.0
 10
1090.0
 20
1180.0
 10
1091.0
 20
1179.0
 10
1091.0
 20
1146.0
 10
1092.0
 20
1145.0
 10
1092.0
 20
1136.0
 10
1091.0
 20
1135.0
 10
1091.0
 20
1106.0
 10
1092.0
 20
1105.0
 10
1092.0
 20
1059.0
 10
1091.0
 20
1058.0
 10
1091.0
 20
1044.0
 10
1092.0
 20
1043.0
 10
1092.0
 20
1023.0
 10
1091.0
 20
1022.0
 10
1091.0
 20
1019.0
 10
1092.0
 20
1018.0
 10
1092.0
 20
1010.0
 10
1091.0
 20
1009.0
 10
1091.0
 20
1004.0
 10
1092.0
 20
1003.0
 10
1092.0
 20
976.0
 10
1093.0
 20
975.0
 10
1093.0
 20
972.0
 10
1092.0
 20
971.0
 10
950.0
 20
971.0
 10
949.0
 20
970.0
 10
930.0
 20
970.0
 10
929.0
 20
971.0
 10
926.0
 20
971.0
 10
925.0
 20
970.0
 10
922.0
 20
970.0
 10
921.0
 20
971.0
 10
907.0
 20
971.0
 10
906.0
 20
970.0
 10
882.0
 20
970.0
 10
881.0
 20
971.0
 10
880.0
 20
971.0
 10
879.0
 20
970.0
 10
856.0
 20
970.0
 10
855.0
 20
971.0
 10
846.0
 20
971.0
 10
845.0
 20
970.0
 10
831.0
 20
970.0
 10
830.0
 20
971.0
 10
806.0
 20
971.0
 10
803.0
 20
974.0
 10
806.0
 20
971.0
 10
830.0
 20
971.0
 10
831.0
 20
970.0
 10
845.0
 20
970.0
 10
846.0
 20
971.0
 10
855.0
 20
971.0
 10
856.0
 20
970.0
 10
879.0
 20
970.0
 10
880.0
 20
971.0
 10
881.0
 20
971.0
 10
882.0
 20
970.0
 10
906.0
 20
970.0
 10
907.0
 20
971.0
 10
921.0
 20
971.0
 10
922.0
 20
970.0
 10
925.0
 20
970.0
 10
926.0
 20
971.0
 10
929.0
 20
971.0
 10
930.0
 20
970.0
 10
949.0
 20
970.0
 10
950.0
 20
971.0
 10
1093.0
 20
971.0
 10
1093.0
 20
975.0
 10
1092.0
 20
976.0
 10
1092.0
 20
1003.0
 10
1091.0
 20
1004.0
 10
1091.0
 20
1009.0
 10
1092.0
 20
1010.0
 10
1092.0
 20
1018.0
 10
1091.0
 20
1019.0
 10
1091.0
 20
1022.0
 10
1092.0
 20
1023.0
 10
1092.0
 20
1043.0
 10
1091.0
 20
1044.0
 10
1091.0
 20
1058.0
 10
1092.0
 20
1059.0
 10
1092.0
 20
1105.0
 10
1091.0
 20
1106.0
 10
1091.0
 20
1135.0
 10
1092.0
 20
1136.0
 10
1092.0
 20
1145.0
 10
1091.0
 20
1146.0
 10
1091.0
 20
1179.0
 10
1090.0
 20
1180.0
 10
1090.0
 20
1184.0
 10
1091.0
 20
1185.0
 10
1091.0
 20
1192.0
 10
1090.0
 20
1193.0
 10
1090.0
 20
1300.0
 10
1089.0
 20
1301.0
 10
1089.0
 20
1302.0
 10
1090.0
 20
1303.0
 10
1090.0
 20
1309.0
 10
1089.0
 20
1310.0
 10
1089.0
 20
1320.0
 10
1090.0
 20
1321.0
 10
1090.0
 20
1325.0
 10
1089.0
 20
1326.0
 10
1089.0
 20
1345.0
 10
1090.0
 20
1346.0
 10
1090.0
 20
1353.0
 10
1088.0
 20
1355.0
 10
1024.0
 20
1355.0
 10
1023.0
 20
1356.0
 10
1009.0
 20
1356.0
 10
1008.0
 20
1355.0
 10
995.0
 20
1355.0
 10
994.0
 20
1356.0
 10
971.0
 20
1356.0
 10
970.0
 20
1355.0
 10
965.0
 20
1355.0
 10
964.0
 20
1356.0
 10
961.0
 20
1356.0
 10
960.0
 20
1357.0
  0
LWPOLYLINE
  5
738
330
17
100
AcDbEntity
  8
0
100
AcDbPolyline
 90
45
 70
0
 10
1972.0
 20
1361.0
 10
1972.0
 20
1360.0
 10
1971.0
 20
1359.0
 10
1971.0
 20
1357.0
 10
1972.0
 20
1356.0
 10
1972.0
 20
1330.0
 10
1971.0
 20
1329.0
 10
1971.0
 20
1324.0
 10
1972.0
 20
1323.0
 10
1972.0
 20
1309.0
 10
1971.0
 20
1308.0
 10
1971.0
 20
1300.0
 10
1972.0
 20
1299.0
 10
1972.0
 20
1284.0
 10
1971.0
 20
1283.0
 10
1971.0
 20
1248.0
 10
1972.0
 20
1247.0
 10
1972.0
 20
1242.0
 10
1971.0
 20
1241.0
 10
1971.0
 20
1240.0
 10
1972.0
 20
1239.0
 10
1972.0
 20
1199.0
 10
1972.0
 20
1239.0
 10
1971.0
 20
1240.0
 10
1971.0
 20
1241.0
 10
1972.0
 20
1242.0
 10
1972.0
 20
1247.0
 10
1971.0
 20
1248.0
 10
1971.0
 20
1283.0
 10
1972.0
 20
1284.0
 10
1972.0
 20
1299.0
 10
1971.0
 20
1300.0
 10
1971.0
 20
1308.0
 10
1972.0
 20
1309.0
 10
1972.0
 20
1323.0
 10
1971.0
 20
1324.0
 10
1971.0
 20
1329.0
 10
1972.0
 20
1330.0
 10
1972.0
 20
1356.0
 10
1971.0
 20
1357.0
 10
1971.0
 20
1359.0
 10
1973.0
 20
1361.0
 10
1974.0
 20
1360.0
 10
1974.0
 20
1356.0
 10
1974.0
 20
1361.0
  0
LWPOLYLINE
  5
739
330
17
100
AcDbEntity
  8
0
100
AcDbPolyline
 90
58
 70
0
 10
1291.0
 20
1374.0
 10
1291.0
 20
1373.0
 10
1290.0
 20
1372.0
 10
1290.0
 20
1363.0
 10
1291.0
 20
1362.0
 10
1291.0
 20
1361.0
 10
1292.0
 20
1360.0
 10
1296.0
 20
1360.0
 10
1297.0
 20
1359.0
 10
1325.0
 20
1359.0
 10
1326.0
 20
1358.0
 10
1331.0
 20
1358.0
 10
1332.0
 20
1359.0
 10
1340.0
 20
1359.0
 10
1341.0
 20
1358.0
 10
1349.0
 20
1358.0
 10
1350.0
 20
1359.0
 10
1362.0
 20
1359.0
 10
1363.0
 20
1358.0
 10
1385.0
 20
1358.0
 10
1386.0
 20
1359.0
 10
1392.0
 20
1359.0
 10
1393.0
 20
1358.0
 10
1418.0
 20
1358.0
 10
1419.0
 20
1357.0
 10
1430.0
 20
1357.0
 10
1431.0
 20
1358.0
 10
1431.0
 20
1372.0
 10
1430.0
 20
1373.0
 10
1425.0
 20
1373.0
 10
1429.0
 20
1373.0
 10
1431.0
 20
1371.0
 10
1431.0
 20
1359.0
 10
1429.0
 20
1357.0
 10
1419.0
 20
1357.0
 10
1418.0
 20
1358.0
 10
1393.0
 20
1358.0
 10
1392.0
 20
1359.0
 10
1386.0
 20
1359.0
 10
1385.0
 20
1358.0
 10
1363.0
 20
1358.0
 10
1362.0
 20
1359.0
 10
1350.0
 20
1359.0
 10
1349.0
 20
1358.0
 10
1341.0
 20
1358.0
 10
1340.0
 20
1359.0
 10
1332.0
 20
1359.0
 10
1331.0
 20
1358.0
 10
1326.0
 20
1358.0
 10
1325.0
 20
1359.0
 10
1297.0
 20
1359.0
 10
1296.0
 20
1360.0
 10
1292.0
 20
1360.0
 10
1291.0
 20
1361.0
 10
1291.0
 20
1362.0
 10
1290.0
 20
1363.0
 10
1290.0
 20
1372.0
 10
1292.0
 20
1374.0
  0
LWPOLYLINE
  5
73A
330
17
100
AcDbEntity
  8
0
100
AcDbPolyline
 90
98
 70
0
 10
665.0
 20
1378.0
 10
664.0
 20
1377.0
 10
664.0
 20
1376.0
 10
663.0
 20
1375.0
 10
663.0
 20
1365.0
 10
664.0
 20
1364.0
 10
664.0
 20
1363.0
 10
667.0
 20
1363.0
 10
668.0
 20
1362.0
 10
707.0
 20
1362.0
 10
708.0
 20
1361.0
 10
715.0
 20
1361.0
 10
716.0
 20
1362.0
 10
719.0
 20
1362.0
 10
720.0
 20
1361.0
 10
727.0
 20
1361.0
 10
728.0
 20
1360.0
 10
732.0
 20
1360.0
 10
733.0
 20
1361.0
 10
735.0
 20
1361.0
 10
736.0
 20
1362.0
 10
739.0
 20
1362.0
 10
740.0
 20
1361.0
 10
747.0
 20
1361.0
 10
748.0
 20
1362.0
 10
749.0
 20
1361.0
 10
769.0
 20
1361.0
 10
770.0
 20
1360.0
 10
786.0
 20
1360.0
 10
788.0
 20
1362.0
 10
789.0
 20
1361.0
 10
790.0
 20
1361.0
 10
791.0
 20
1360.0
 10
846.0
 20
1360.0
 10
847.0
 20
1359.0
 10
906.0
 20
1359.0
 10
907.0
 20
1358.0
 10
912.0
 20
1358.0
 10
913.0
 20
1359.0
 10
918.0
 20
1359.0
 10
919.0
 20
1358.0
 10
921.0
 20
1358.0
 10
921.0
 20
1361.0
 10
922.0
 20
1362.0
 10
922.0
 20
1374.0
 10
921.0
 20
1375.0
 10
914.0
 20
1375.0
 10
921.0
 20
1375.0
 10
922.0
 20
1374.0
 10
922.0
 20
1362.0
 10
921.0
 20
1361.0
 10
921.0
 20
1359.0
 10
920.0
 20
1358.0
 10
919.0
 20
1358.0
 10
918.0
 20
1359.0
 10
913.0
 20
1359.0
 10
912.0
 20
1358.0
 10
907.0
 20
1358.0
 10
906.0
 20
1359.0
 10
847.0
 20
1359.0
 10
846.0
 20
1360.0
 10
791.0
 20
1360.0
 10
790.0
 20
1361.0
 10
789.0
 20
1361.0
 10
788.0
 20
1362.0
 10
787.0
 20
1361.0
 10
786.0
 20
1361.0
 10
785.0
 20
1360.0
 10
770.0
 20
1360.0
 10
769.0
 20
1361.0
 10
749.0
 20
1361.0
 10
748.0
 20
1362.0
 10
747.0
 20
1361.0
 10
740.0
 20
1361.0
 10
739.0
 20
1362.0
 10
736.0
 20
1362.0
 10
735.0
 20
1361.0
 10
733.0
 20
1361.0
 10
732.0
 20
1360.0
 10
728.0
 20
1360.0
 10
727.0
 20
1361.0
 10
720.0
 20
1361.0
 10
719.0
 20
1362.0
 10
716.0
 20
1362.0
 10
715.0
 20
1361.0
 10
708.0
 20
1361.0
 10
707.0
 20
1362.0
 10
668.0
 20
1362.0
 10
667.0
 20
1363.0
 10
665.0
 20
1363.0
 10
663.0
 20
1365.0
 10
663.0
 20
1375.0
 10
666.0
 20
1378.0
 10
669.0
 20
1378.0
 10
670.0
 20
1377.0
 10
672.0
 20
1377.0
 10
670.0
 20
1377.0
 10
669.0
 20
1378.0
  0
LWPOLYLINE
  5
73B
330
17
100
AcDbEntity
  8
0
100
AcDbPolyline
 90
79
 70
0
 10
1285.0
 20
1385.0
 10
1284.0
 20
1384.0
 10
1283.0
 20
1384.0
 10
1282.0
 20
1383.0
 10
1282.0
 20
1382.0
 10
1281.0
 20
1381.0
 10
1281.0
 20
1380.0
 10
1282.0
 20
1379.0
 10
1282.0
 20
1378.0
 10
1283.0
 20
1378.0
 10
1284.0
 20
1377.0
 10
1312.0
 20
1377.0
 10
1313.0
 20
1376.0
 10
1313.0
 20
1375.0
 10
1312.0
 20
1374.0
 10
1302.0
 20
1374.0
 10
1332.0
 20
1374.0
 10
1314.0
 20
1374.0
 10
1313.0
 20
1375.0
 10
1314.0
 20
1376.0
 10
1316.0
 20
1376.0
 10
1317.0
 20
1377.0
 10
1331.0
 20
1377.0
 10
1332.0
 20
1376.0
 10
1350.0
 20
1376.0
 10
1351.0
 20
1377.0
 10
1352.0
 20
1377.0
 10
1353.0
 20
1376.0
 10
1355.0
 20
1376.0
 10
1356.0
 20
1377.0
 10
1357.0
 20
1376.0
 10
1377.0
 20
1376.0
 10
1378.0
 20
1377.0
 10
1393.0
 20
1377.0
 10
1394.0
 20
1376.0
 10
1401.0
 20
1376.0
 10
1402.0
 20
1375.0
 10
1410.0
 20
1375.0
 10
1411.0
 20
1376.0
 10
1420.0
 20
1376.0
 10
1421.0
 20
1375.0
 10
1425.0
 20
1375.0
 10
1425.0
 20
1381.0
 10
1424.0
 20
1382.0
 10
1425.0
 20
1381.0
 10
1425.0
 20
1376.0
 10
1424.0
 20
1375.0
 10
1421.0
 20
1375.0
 10
1420.0
 20
1376.0
 10
1411.0
 20
1376.0
 10
1410.0
 20
1375.0
 10
1402.0
 20
1375.0
 10
1401.0
 20
1376.0
 10
1394.0
 20
1376.0
 10
1393.0
 20
1377.0
 10
1378.0
 20
1377.0
 10
1377.0
 20
1376.0
 10
1357.0
 20
1376.0
 10
1356.0
 20
1377.0
 10
1355.0
 20
1376.0
 10
1353.0
 20
1376.0
 10
1352.0
 20
1377.0
 10
1351.0
 20
1377.0
 10
1350.0
 20
1376.0
 10
1332.0
 20
1376.0
 10
1331.0
 20
1377.0
 10
1317.0
 20
1377.0
 10
1316.0
 20
1376.0
 10
1313.0
 20
1376.0
 10
1312.0
 20
1377.0
 10
1284.0
 20
1377.0
 10
1281.0
 20
1380.0
 10
1281.0
 20
1381.0
 10
1285.0
 20
1385.0
 10
1303.0
 20
1385.0
 10
1304.0
 20
1384.0
 10
1309.0
 20
1384.0
 10
1304.0
 20
1384.0
 10
1303.0
 20
1385.0
  0
LWPOLYLINE
  5
73C
330
17
100
AcDbEntity
  8
0
100
AcDbPolyline
 90
78
 70
0
 10
663.0
 20
1389.0
 10
662.0
 20
1388.0
 10
661.0
 20
1388.0
 10
661.0
 20
1387.0
 10
660.0
 20
1386.0
 10
660.0
 20
1383.0
 10
661.0
 20
1382.0
 10
661.0
 20
1381.0
 10
670.0
 20
1381.0
 10
671.0
 20
1380.0
 10
677.0
 20
1380.0
 10
678.0
 20
1381.0
 10
683.0
 20
1381.0
 10
684.0
 20
1380.0
 10
733.0
 20
1380.0
 10
734.0
 20
1379.0
 10
741.0
 20
1379.0
 10
742.0
 20
1380.0
 10
743.0
 20
1379.0
 10
777.0
 20
1379.0
 10
778.0
 20
1378.0
 10
785.0
 20
1378.0
 10
787.0
 20
1380.0
 10
788.0
 20
1379.0
 10
812.0
 20
1379.0
 10
813.0
 20
1378.0
 10
818.0
 20
1378.0
 10
819.0
 20
1379.0
 10
821.0
 20
1379.0
 10
822.0
 20
1378.0
 10
840.0
 20
1378.0
 10
841.0
 20
1377.0
 10
844.0
 20
1377.0
 10
841.0
 20
1377.0
 10
840.0
 20
1378.0
 10
822.0
 20
1378.0
 10
821.0
 20
1379.0
 10
819.0
 20
1379.0
 10
818.0
 20
1378.0
 10
813.0
 20
1378.0
 10
812.0
 20
1379.0
 10
789.0
 20
1379.0
 10
788.0
 20
1380.0
 10
788.0
 20
1385.0
 10
789.0
 20
1386.0
 10
795.0
 20
1386.0
 10
789.0
 20
1386.0
 10
788.0
 20
1385.0
 10
788.0
 20
1381.0
 10
787.0
 20
1380.0
 10
786.0
 20
1381.0
 10
786.0
 20
1385.0
 10
785.0
 20
1386.0
 10
784.0
 20
1386.0
 10
783.0
 20
1387.0
 10
742.0
 20
1387.0
 10
783.0
 20
1387.0
 10
786.0
 20
1384.0
 10
786.0
 20
1380.0
 10
784.0
 20
1378.0
 10
778.0
 20
1378.0
 10
777.0
 20
1379.0
 10
743.0
 20
1379.0
 10
742.0
 20
1380.0
 10
741.0
 20
1379.0
 10
734.0
 20
1379.0
 10
733.0
 20
1380.0
 10
684.0
 20
1380.0
 10
683.0
 20
1381.0
 10
678.0
 20
1381.0
 10
677.0
 20
1380.0
 10
671.0
 20
1380.0
 10
670.0
 20
1381.0
 10
662.0
 20
1381.0
 10
660.0
 20
1383.0
 10
660.0
 20
1386.0
 10
663.0
 20
1389.0
 10
664.0
 20
1389.0
  0
LWPOLYLINE
  5
73D
330
17
100
AcDbEntity
  8
0
100
AcDbPolyline
 90
122
 70
0
 10
569.0
 20
1390.0
 10
568.0
 20
1389.0
 10
567.0
 20
1389.0
 10
567.0
 20
1388.0
 10
566.0
 20
1387.0
 10
566.0
 20
1379.0
 10
565.0
 20
1378.0
 10
563.0
 20
1378.0
 10
562.0
 20
1377.0
 10
561.0
 20
1377.0
 10
561.0
 20
1376.0
 10
560.0
 20
1375.0
 10
560.0
 20
1371.0
 10
561.0
 20
1370.0
 10
561.0
 20
1361.0
 10
560.0
 20
1360.0
 10
546.0
 20
1360.0
 10
545.0
 20
1361.0
 10
509.0
 20
1361.0
 10
508.0
 20
1360.0
 10
451.0
 20
1360.0
 10
450.0
 20
1361.0
 10
447.0
 20
1361.0
 10
446.0
 20
1362.0
 10
434.0
 20
1362.0
 10
433.0
 20
1363.0
 10
423.0
 20
1363.0
 10
422.0
 20
1364.0
 10
405.0
 20
1364.0
 10
404.0
 20
1365.0
 10
399.0
 20
1365.0
 10
397.0
 20
1363.0
 10
397.0
 20
1307.0
 10
398.0
 20
1306.0
 10
398.0
 20
1291.0
 10
397.0
 20
1290.0
 10
398.0
 20
1289.0
 10
398.0
 20
1248.0
 10
399.0
 20
1247.0
 10
399.0
 20
1243.0
 10
398.0
 20
1242.0
 10
398.0
 20
1218.0
 10
399.0
 20
1217.0
 10
399.0
 20
1210.0
 10
398.0
 20
1209.0
 10
398.0
 20
1194.0
 10
399.0
 20
1193.0
 10
399.0
 20
1145.0
 10
400.0
 20
1144.0
 10
400.0
 20
1140.0
 10
399.0
 20
1139.0
 10
399.0
 20
1128.0
 10
400.0
 20
1127.0
 10
400.0
 20
1118.0
 10
399.0
 20
1117.0
 10
399.0
 20
1109.0
 10
400.0
 20
1108.0
 10
400.0
 20
1074.0
 10
401.0
 20
1073.0
 10
401.0
 20
1069.0
 10
400.0
 20
1068.0
 10
400.0
 20
1065.0
 10
401.0
 20
1064.0
 10
401.0
 20
1040.0
 10
402.0
 20
1039.0
 10
402.0
 20
1005.0
 10
402.0
 20
1039.0
 10
401.0
 20
1040.0
 10
401.0
 20
1064.0
 10
400.0
 20
1065.0
 10
400.0
 20
1068.0
 10
401.0
 20
1069.0
 10
401.0
 20
1073.0
 10
400.0
 20
1074.0
 10
400.0
 20
1108.0
 10
399.0
 20
1109.0
 10
399.0
 20
1117.0
 10
400.0
 20
1118.0
 10
400.0
 20
1127.0
 10
399.0
 20
1128.0
 10
399.0
 20
1139.0
 10
400.0
 20
1140.0
 10
400.0
 20
1144.0
 10
399.0
 20
1145.0
 10
399.0
 20
1193.0
 10
398.0
 20
1194.0
 10
398.0
 20
1209.0
 10
399.0
 20
1210.0
 10
399.0
 20
1217.0
 10
398.0
 20
1218.0
 10
398.0
 20
1242.0
 10
399.0
 20
1243.0
 10
399.0
 20
1247.0
 10
398.0
 20
1248.0
 10
398.0
 20
1289.0
 10
397.0
 20
1290.0
 10
398.0
 20
1291.0
 10
398.0
 20
1306.0
 10
397.0
 20
1307.0
 10
397.0
 20
1363.0
 10
399.0
 20
1365.0
 10
404.0
 20
1365.0
 10
405.0
 20
1364.0
 10
422.0
 20
1364.0
 10
423.0
 20
1363.0
 10
433.0
 20
1363.0
 10
434.0
 20
1362.0
 10
446.0
 20
1362.0
 10
447.0
 20
1361.0
 10
450.0
 20
1361.0
 10
451.0
 20
1360.0
 10
508.0
 20
1360.0
 10
509.0
 20
1361.0
 10
545.0
 20
1361.0
 10
546.0
 20
1360.0
 10
561.0
 20
1360.0
 10
561.0
 20
1370.0
 10
560.0
 20
1371.0
 10
560.0
 20
1375.0
 10
563.0
 20
1378.0
 10
566.0
 20
1378.0
 10
566.0
 20
1387.0
  0
LWPOLYLINE
  5
73E
330
17
100
AcDbEntity
  8
0
100
AcDbPolyline
 90
267
 70
0
 10
788.0
 20
1391.0
 10
789.0
 20
1390.0
 10
792.0
 20
1390.0
 10
793.0
 20
1389.0
 10
848.0
 20
1389.0
 10
849.0
 20
1388.0
 10
910.0
 20
1388.0
 10
911.0
 20
1387.0
 10
963.0
 20
1387.0
 10
964.0
 20
1386.0
 10
988.0
 20
1386.0
 10
989.0
 20
1387.0
 10
991.0
 20
1387.0
 10
992.0
 20
1386.0
 10
1071.0
 20
1386.0
 10
1072.0
 20
1387.0
 10
1073.0
 20
1387.0
 10
1074.0
 20
1386.0
 10
1126.0
 20
1386.0
 10
1127.0
 20
1387.0
 10
1129.0
 20
1387.0
 10
1130.0
 20
1386.0
 10
1168.0
 20
1386.0
 10
1169.0
 20
1387.0
 10
1190.0
 20
1387.0
 10
1191.0
 20
1388.0
 10
1198.0
 20
1388.0
 10
1199.0
 20
1387.0
 10
1199.0
 20
1386.0
 10
1197.0
 20
1384.0
 10
1197.0
 20
1383.0
 10
1196.0
 20
1382.0
 10
1196.0
 20
1376.0
 10
1192.0
 20
1372.0
 10
1191.0
 20
1372.0
 10
1191.0
 20
1371.0
 10
1190.0
 20
1370.0
 10
1190.0
 20
1357.0
 10
1189.0
 20
1356.0
 10
1161.0
 20
1356.0
 10
1160.0
 20
1355.0
 10
1155.0
 20
1355.0
 10
1154.0
 20
1356.0
 10
1129.0
 20
1356.0
 10
1128.0
 20
1355.0
 10
1119.0
 20
1355.0
 10
1118.0
 20
1356.0
 10
1109.0
 20
1356.0
 10
1108.0
 20
1355.0
 10
1103.0
 20
1355.0
 10
1101.0
 20
1353.0
 10
1101.0
 20
1322.0
 10
1102.0
 20
1321.0
 10
1102.0
 20
1303.0
 10
1101.0
 20
1302.0
 10
1101.0
 20
1301.0
 10
1102.0
 20
1300.0
 10
1102.0
 20
1184.0
 10
1103.0
 20
1183.0
 10
1103.0
 20
1180.0
 10
1102.0
 20
1179.0
 10
1102.0
 20
1177.0
 10
1103.0
 20
1176.0
 10
1103.0
 20
1159.0
 10
1102.0
 20
1158.0
 10
1102.0
 20
1153.0
 10
1103.0
 20
1152.0
 10
1103.0
 20
1046.0
 10
1104.0
 20
1045.0
 10
1104.0
 20
1041.0
 10
1103.0
 20
1040.0
 10
1103.0
 20
1014.0
 10
1104.0
 20
1013.0
 10
1104.0
 20
999.0
 10
1103.0
 20
998.0
 10
1103.0
 20
997.0
 10
1104.0
 20
996.0
 10
1104.0
 20
992.0
 10
1105.0
 20
991.0
 10
1107.0
 20
991.0
 10
1108.0
 20
990.0
 10
1108.0
 20
986.0
 10
1107.0
 20
985.0
 10
1107.0
 20
978.0
 10
1106.0
 20
977.0
 10
1106.0
 20
975.0
 10
1105.0
 20
974.0
 10
1105.0
 20
973.0
 10
1106.0
 20
972.0
 10
1106.0
 20
971.0
 10
1158.0
 20
971.0
 10
1159.0
 20
972.0
 10
1159.0
 20
974.0
 10
1160.0
 20
975.0
 10
1161.0
 20
974.0
 10
1161.0
 20
973.0
 10
1162.0
 20
972.0
 10
1162.0
 20
971.0
 10
1164.0
 20
971.0
 10
1165.0
 20
972.0
 10
1166.0
 20
971.0
 10
1166.0
 20
969.0
 10
1165.0
 20
968.0
 10
1165.0
 20
961.0
 10
1164.0
 20
960.0
 10
1164.0
 20
958.0
 10
1165.0
 20
957.0
 10
1165.0
 20
956.0
 10
1166.0
 20
955.0
 10
1166.0
 20
952.0
 10
1164.0
 20
950.0
 10
1162.0
 20
950.0
 10
1161.0
 20
951.0
 10
1149.0
 20
951.0
 10
1148.0
 20
950.0
 10
1147.0
 20
951.0
 10
1146.0
 20
950.0
 10
1145.0
 20
951.0
 10
1140.0
 20
951.0
 10
1139.0
 20
950.0
 10
1138.0
 20
951.0
 10
1137.0
 20
950.0
 10
1136.0
 20
951.0
 10
1078.0
 20
951.0
 10
1077.0
 20
950.0
 10
1057.0
 20
950.0
 10
1056.0
 20
949.0
 10
1019.0
 20
949.0
 10
1018.0
 20
948.0
 10
1017.0
 20
948.0
 10
1013.0
 20
944.0
 10
1013.0
 20
943.0
 10
1012.0
 20
942.0
 10
1012.0
 20
940.0
 10
1012.0
 20
942.0
 10
1019.0
 20
949.0
 10
1056.0
 20
949.0
 10
1057.0
 20
950.0
 10
1077.0
 20
950.0
 10
1078.0
 20
951.0
 10
1136.0
 20
951.0
 10
1137.0
 20
950.0
 10
1138.0
 20
951.0
 10
1139.0
 20
950.0
 10
1140.0
 20
951.0
 10
1145.0
 20
951.0
 10
1146.0
 20
950.0
 10
1147.0
 20
951.0
 10
1148.0
 20
950.0
 10
1149.0
 20
951.0
 10
1161.0
 20
951.0
 10
1162.0
 20
950.0
 10
1164.0
 20
950.0
 10
1165.0
 20
951.0
 10
1166.0
 20
951.0
 10
1166.0
 20
955.0
 10
1165.0
 20
956.0
 10
1165.0
 20
957.0
 10
1164.0
 20
958.0
 10
1164.0
 20
960.0
 10
1165.0
 20
961.0
 10
1165.0
 20
968.0
 10
1166.0
 20
969.0
 10
1166.0
 20
972.0
 10
1164.0
 20
972.0
 10
1163.0
 20
971.0
 10
1161.0
 20
973.0
 10
1161.0
 20
976.0
 10
1160.0
 20
975.0
 10
1159.0
 20
975.0
 10
1158.0
 20
976.0
 10
1160.0
 20
978.0
 10
1161.0
 20
978.0
 10
1160.0
 20
978.0
 10
1158.0
 20
976.0
 10
1159.0
 20
975.0
 10
1159.0
 20
972.0
 10
1158.0
 20
971.0
 10
1107.0
 20
971.0
 10
1105.0
 20
973.0
 10
1105.0
 20
974.0
 10
1106.0
 20
975.0
 10
1106.0
 20
977.0
 10
1107.0
 20
978.0
 10
1107.0
 20
985.0
 10
1108.0
 20
986.0
 10
1108.0
 20
993.0
 10
1107.0
 20
994.0
 10
1108.0
 20
993.0
 10
1108.0
 20
992.0
 10
1107.0
 20
991.0
 10
1105.0
 20
991.0
 10
1104.0
 20
992.0
 10
1104.0
 20
996.0
 10
1103.0
 20
997.0
 10
1103.0
 20
998.0
 10
1104.0
 20
999.0
 10
1104.0
 20
1013.0
 10
1103.0
 20
1014.0
 10
1103.0
 20
1040.0
 10
1104.0
 20
1041.0
 10
1104.0
 20
1045.0
 10
1103.0
 20
1046.0
 10
1103.0
 20
1152.0
 10
1102.0
 20
1153.0
 10
1102.0
 20
1158.0
 10
1103.0
 20
1159.0
 10
1103.0
 20
1176.0
 10
1102.0
 20
1177.0
 10
1102.0
 20
1179.0
 10
1103.0
 20
1180.0
 10
1103.0
 20
1183.0
 10
1102.0
 20
1184.0
 10
1102.0
 20
1300.0
 10
1101.0
 20
1301.0
 10
1101.0
 20
1302.0
 10
1102.0
 20
1303.0
 10
1102.0
 20
1321.0
 10
1101.0
 20
1322.0
 10
1101.0
 20
1353.0
 10
1103.0
 20
1355.0
 10
1108.0
 20
1355.0
 10
1109.0
 20
1356.0
 10
1118.0
 20
1356.0
 10
1119.0
 20
1355.0
 10
1128.0
 20
1355.0
 10
1129.0
 20
1356.0
 10
1154.0
 20
1356.0
 10
1155.0
 20
1355.0
 10
1160.0
 20
1355.0
 10
1161.0
 20
1356.0
 10
1190.0
 20
1356.0
 10
1190.0
 20
1370.0
 10
1193.0
 20
1373.0
 10
1194.0
 20
1373.0
 10
1195.0
 20
1374.0
 10
1195.0
 20
1375.0
 10
1196.0
 20
1376.0
 10
1196.0
 20
1382.0
 10
1199.0
 20
1385.0
 10
1199.0
 20
1387.0
 10
1198.0
 20
1388.0
 10
1191.0
 20
1388.0
 10
1190.0
 20
1387.0
 10
1169.0
 20
1387.0
 10
1168.0
 20
1386.0
 10
1130.0
 20
1386.0
 10
1129.0
 20
1387.0
 10
1127.0
 20
1387.0
 10
1126.0
 20
1386.0
 10
1074.0
 20
1386.0
 10
1073.0
 20
1387.0
 10
1072.0
 20
1387.0
 10
1071.0
 20
1386.0
 10
992.0
 20
1386.0
 10
991.0
 20
1387.0
 10
989.0
 20
1387.0
 10
988.0
 20
1386.0
 10
964.0
 20
1386.0
 10
963.0
 20
1387.0
 10
911.0
 20
1387.0
 10
910.0
 20
1388.0
 10
849.0
 20
1388.0
 10
848.0
 20
1389.0
 10
793.0
 20
1389.0
 10
792.0
 20
1390.0
 10
789.0
 20
1390.0
  0
LWPOLYLINE
  5
73F
330
17
100
AcDbEntity
  8
0
100
AcDbPolyline
 90
84
 70
0
 10
1234.0
 20
1434.0
 10
1233.0
 20
1433.0
 10
1233.0
 20
1422.0
 10
1232.0
 20
1421.0
 10
1232.0
 20
1415.0
 10
1233.0
 20
1414.0
 10
1233.0
 20
1403.0
 10
1232.0
 20
1402.0
 10
1233.0
 20
1401.0
 10
1233.0
 20
1390.0
 10
1232.0
 20
1389.0
 10
1228.0
 20
1389.0
 10
1227.0
 20
1390.0
 10
1226.0
 20
1389.0
 10
1215.0
 20
1389.0
 10
1214.0
 20
1388.0
 10
1206.0
 20
1388.0
 10
1205.0
 20
1387.0
 10
1204.0
 20
1387.0
 10
1204.0
 20
1386.0
 10
1206.0
 20
1388.0
 10
1214.0
 20
1388.0
 10
1215.0
 20
1389.0
 10
1226.0
 20
1389.0
 10
1227.0
 20
1390.0
 10
1228.0
 20
1389.0
 10
1233.0
 20
1389.0
 10
1233.0
 20
1400.0
 10
1234.0
 20
1401.0
 10
1235.0
 20
1400.0
 10
1235.0
 20
1390.0
 10
1236.0
 20
1389.0
 10
1245.0
 20
1389.0
 10
1246.0
 20
1390.0
 10
1257.0
 20
1390.0
 10
1258.0
 20
1389.0
 10
1280.0
 20
1389.0
 10
1281.0
 20
1388.0
 10
1298.0
 20
1388.0
 10
1299.0
 20
1389.0
 10
1300.0
 20
1388.0
 10
1305.0
 20
1388.0
 10
1306.0
 20
1387.0
 10
1314.0
 20
1387.0
 10
1315.0
 20
1388.0
 10
1317.0
 20
1386.0
 10
1317.0
 20
1384.0
 10
1316.0
 20
1383.0
 10
1314.0
 20
1383.0
 10
1313.0
 20
1384.0
 10
1312.0
 20
1384.0
 10
1313.0
 20
1383.0
 10
1317.0
 20
1383.0
 10
1317.0
 20
1386.0
 10
1315.0
 20
1388.0
 10
1314.0
 20
1387.0
 10
1306.0
 20
1387.0
 10
1305.0
 20
1388.0
 10
1300.0
 20
1388.0
 10
1299.0
 20
1389.0
 10
1298.0
 20
1388.0
 10
1281.0
 20
1388.0
 10
1280.0
 20
1389.0
 10
1258.0
 20
1389.0
 10
1257.0
 20
1390.0
 10
1246.0
 20
1390.0
 10
1245.0
 20
1389.0
 10
1236.0
 20
1389.0
 10
1235.0
 20
1390.0
 10
1235.0
 20
1403.0
 10
1235.0
 20
1402.0
 10
1234.0
 20
1401.0
 10
1233.0
 20
1401.0
 10
1232.0
 20
1402.0
 10
1233.0
 20
1403.0
 10
1233.0
 20
1414.0
 10
1232.0
 20
1415.0
 10
1232.0
 20
1421.0
 10
1233.0
 20
1422.0
 10
1233.0
 20
1433.0
 10
1234.0
 20
1434.0
 10
1235.0
 20
1433.0
 10
1235.0
 20
1430.0
 10
1235.0
 20
1433.0
  0
LWPOLYLINE
  5
740
330
17
100
AcDbEntity
  8
0
100
AcDbPolyline
 90
454
 70
0
 10
396.0
 20
1530.0
 10
396.0
 20
1526.0
 10
395.0
 20
1525.0
 10
395.0
 20
1506.0
 10
394.0
 20
1505.0
 10
394.0
 20
1500.0
 10
395.0
 20
1499.0
 10
395.0
 20
1488.0
 10
396.0
 20
1487.0
 10
396.0
 20
1484.0
 10
395.0
 20
1483.0
 10
395.0
 20
1453.0
 10
396.0
 20
1452.0
 10
396.0
 20
1442.0
 10
395.0
 20
1441.0
 10
396.0
 20
1440.0
 10
396.0
 20
1398.0
 10
397.0
 20
1397.0
 10
398.0
 20
1397.0
 10
399.0
 20
1396.0
 10
406.0
 20
1396.0
 10
407.0
 20
1395.0
 10
420.0
 20
1395.0
 10
421.0
 20
1394.0
 10
433.0
 20
1394.0
 10
434.0
 20
1393.0
 10
442.0
 20
1393.0
 10
443.0
 20
1392.0
 10
452.0
 20
1392.0
 10
453.0
 20
1391.0
 10
458.0
 20
1391.0
 10
459.0
 20
1390.0
 10
497.0
 20
1390.0
 10
498.0
 20
1391.0
 10
504.0
 20
1391.0
 10
505.0
 20
1392.0
 10
564.0
 20
1392.0
 10
565.0
 20
1393.0
 10
568.0
 20
1393.0
 10
569.0
 20
1392.0
 10
576.0
 20
1392.0
 10
577.0
 20
1393.0
 10
578.0
 20
1392.0
 10
612.0
 20
1392.0
 10
613.0
 20
1393.0
 10
614.0
 20
1392.0
 10
663.0
 20
1392.0
 10
664.0
 20
1391.0
 10
692.0
 20
1391.0
 10
693.0
 20
1390.0
 10
700.0
 20
1390.0
 10
701.0
 20
1391.0
 10
715.0
 20
1391.0
 10
716.0
 20
1390.0
 10
782.0
 20
1390.0
 10
783.0
 20
1389.0
 10
785.0
 20
1389.0
 10
786.0
 20
1390.0
 10
786.0
 20
1392.0
 10
785.0
 20
1393.0
 10
785.0
 20
1395.0
 10
786.0
 20
1396.0
 10
786.0
 20
1405.0
 10
785.0
 20
1406.0
 10
785.0
 20
1407.0
 10
787.0
 20
1409.0
 10
786.0
 20
1409.0
 10
786.0
 20
1408.0
 10
785.0
 20
1407.0
 10
785.0
 20
1406.0
 10
786.0
 20
1405.0
 10
786.0
 20
1396.0
 10
785.0
 20
1395.0
 10
785.0
 20
1393.0
 10
786.0
 20
1392.0
 10
786.0
 20
1391.0
 10
784.0
 20
1389.0
 10
783.0
 20
1389.0
 10
782.0
 20
1390.0
 10
716.0
 20
1390.0
 10
715.0
 20
1391.0
 10
701.0
 20
1391.0
 10
700.0
 20
1390.0
 10
693.0
 20
1390.0
 10
692.0
 20
1391.0
 10
664.0
 20
1391.0
 10
663.0
 20
1392.0
 10
614.0
 20
1392.0
 10
613.0
 20
1393.0
 10
612.0
 20
1392.0
 10
578.0
 20
1392.0
 10
577.0
 20
1393.0
 10
576.0
 20
1392.0
 10
569.0
 20
1392.0
 10
568.0
 20
1393.0
 10
565.0
 20
1393.0
 10
564.0
 20
1392.0
 10
505.0
 20
1392.0
 10
504.0
 20
1391.0
 10
498.0
 20
1391.0
 10
497.0
 20
1390.0
 10
459.0
 20
1390.0
 10
458.0
 20
1391.0
 10
453.0
 20
1391.0
 10
452.0
 20
1392.0
 10
443.0
 20
1392.0
 10
442.0
 20
1393.0
 10
434.0
 20
1393.0
 10
433.0
 20
1394.0
 10
421.0
 20
1394.0
 10
420.0
 20
1395.0
 10
407.0
 20
1395.0
 10
406.0
 20
1396.0
 10
399.0
 20
1396.0
 10
398.0
 20
1397.0
 10
397.0
 20
1397.0
 10
396.0
 20
1398.0
 10
396.0
 20
1440.0
 10
395.0
 20
1441.0
 10
396.0
 20
1442.0
 10
396.0
 20
1452.0
 10
395.0
 20
1453.0
 10
395.0
 20
1483.0
 10
396.0
 20
1484.0
 10
396.0
 20
1487.0
 10
395.0
 20
1488.0
 10
395.0
 20
1499.0
 10
394.0
 20
1500.0
 10
394.0
 20
1505.0
 10
395.0
 20
1506.0
 10
395.0
 20
1525.0
 10
398.0
 20
1528.0
 10
399.0
 20
1527.0
 10
408.0
 20
1527.0
 10
409.0
 20
1526.0
 10
420.0
 20
1526.0
 10
421.0
 20
1525.0
 10
436.0
 20
1525.0
 10
437.0
 20
1524.0
 10
445.0
 20
1524.0
 10
446.0
 20
1523.0
 10
453.0
 20
1523.0
 10
454.0
 20
1522.0
 10
463.0
 20
1522.0
 10
464.0
 20
1521.0
 10
470.0
 20
1521.0
 10
471.0
 20
1522.0
 10
516.0
 20
1522.0
 10
517.0
 20
1521.0
 10
519.0
 20
1521.0
 10
520.0
 20
1522.0
 10
537.0
 20
1522.0
 10
538.0
 20
1523.0
 10
542.0
 20
1523.0
 10
543.0
 20
1524.0
 10
547.0
 20
1524.0
 10
548.0
 20
1523.0
 10
555.0
 20
1523.0
 10
556.0
 20
1524.0
 10
557.0
 20
1523.0
 10
559.0
 20
1523.0
 10
560.0
 20
1524.0
 10
561.0
 20
1523.0
 10
563.0
 20
1523.0
 10
564.0
 20
1524.0
 10
589.0
 20
1524.0
 10
590.0
 20
1523.0
 10
597.0
 20
1523.0
 10
598.0
 20
1524.0
 10
608.0
 20
1524.0
 10
609.0
 20
1525.0
 10
619.0
 20
1525.0
 10
620.0
 20
1524.0
 10
666.0
 20
1524.0
 10
667.0
 20
1523.0
 10
711.0
 20
1523.0
 10
712.0
 20
1524.0
 10
718.0
 20
1524.0
 10
719.0
 20
1523.0
 10
758.0
 20
1523.0
 10
759.0
 20
1522.0
 10
767.0
 20
1522.0
 10
768.0
 20
1523.0
 10
770.0
 20
1523.0
 10
771.0
 20
1522.0
 10
798.0
 20
1522.0
 10
799.0
 20
1521.0
 10
849.0
 20
1521.0
 10
850.0
 20
1520.0
 10
866.0
 20
1520.0
 10
867.0
 20
1521.0
 10
881.0
 20
1521.0
 10
882.0
 20
1520.0
 10
902.0
 20
1520.0
 10
903.0
 20
1521.0
 10
904.0
 20
1520.0
 10
907.0
 20
1520.0
 10
908.0
 20
1521.0
 10
918.0
 20
1521.0
 10
919.0
 20
1520.0
 10
934.0
 20
1520.0
 10
935.0
 20
1519.0
 10
946.0
 20
1519.0
 10
947.0
 20
1520.0
 10
951.0
 20
1520.0
 10
952.0
 20
1519.0
 10
984.0
 20
1519.0
 10
985.0
 20
1518.0
 10
1015.0
 20
1518.0
 10
1016.0
 20
1517.0
 10
1040.0
 20
1517.0
 10
1041.0
 20
1516.0
 10
1043.0
 20
1516.0
 10
1044.0
 20
1517.0
 10
1046.0
 20
1517.0
 10
1047.0
 20
1516.0
 10
1049.0
 20
1516.0
 10
1050.0
 20
1517.0
 10
1053.0
 20
1517.0
 10
1054.0
 20
1518.0
 10
1072.0
 20
1518.0
 10
1073.0
 20
1519.0
 10
1102.0
 20
1519.0
 10
1103.0
 20
1518.0
 10
1118.0
 20
1518.0
 10
1119.0
 20
1517.0
 10
1136.0
 20
1517.0
 10
1137.0
 20
1518.0
 10
1144.0
 20
1518.0
 10
1145.0
 20
1517.0
 10
1168.0
 20
1517.0
 10
1169.0
 20
1518.0
 10
1188.0
 20
1518.0
 10
1189.0
 20
1519.0
 10
1217.0
 20
1519.0
 10
1218.0
 20
1520.0
 10
1219.0
 20
1519.0
 10
1228.0
 20
1519.0
 10
1229.0
 20
1520.0
 10
1234.0
 20
1520.0
 10
1235.0
 20
1521.0
 10
1256.0
 20
1521.0
 10
1257.0
 20
1520.0
 10
1270.0
 20
1520.0
 10
1271.0
 20
1519.0
 10
1296.0
 20
1519.0
 10
1297.0
 20
1518.0
 10
1310.0
 20
1518.0
 10
1311.0
 20
1517.0
 10
1318.0
 20
1517.0
 10
1319.0
 20
1518.0
 10
1321.0
 20
1518.0
 10
1322.0
 20
1517.0
 10
1328.0
 20
1517.0
 10
1329.0
 20
1516.0
 10
1363.0
 20
1516.0
 10
1364.0
 20
1517.0
 10
1365.0
 20
1516.0
 10
1409.0
 20
1516.0
 10
1410.0
 20
1515.0
 10
1428.0
 20
1515.0
 10
1429.0
 20
1516.0
 10
1467.0
 20
1516.0
 10
1468.0
 20
1515.0
 10
1472.0
 20
1515.0
 10
1473.0
 20
1516.0
 10
1498.0
 20
1516.0
 10
1499.0
 20
1515.0
 10
1503.0
 20
1515.0
 10
1504.0
 20
1516.0
 10
1505.0
 20
1515.0
 10
1509.0
 20
1515.0
 10
1510.0
 20
1516.0
 10
1534.0
 20
1516.0
 10
1535.0
 20
1515.0
 10
1535.0
 20
1387.0
 10
1533.0
 20
1385.0
 10
1528.0
 20
1385.0
 10
1527.0
 20
1386.0
 10
1526.0
 20
1385.0
 10
1451.0
 20
1385.0
 10
1450.0
 20
1386.0
 10
1444.0
 20
1386.0
 10
1443.0
 20
1385.0
 10
1417.0
 20
1385.0
 10
1416.0
 20
1386.0
 10
1368.0
 20
1386.0
 10
1367.0
 20
1387.0
 10
1365.0
 20
1387.0
 10
1364.0
 20
1386.0
 10
1355.0
 20
1386.0
 10
1353.0
 20
1388.0
 10
1353.0
 20
1387.0
 10
1354.0
 20
1386.0
 10
1364.0
 20
1386.0
 10
1365.0
 20
1387.0
 10
1367.0
 20
1387.0
 10
1368.0
 20
1386.0
 10
1416.0
 20
1386.0
 10
1417.0
 20
1385.0
 10
1443.0
 20
1385.0
 10
1444.0
 20
1386.0
 10
1450.0
 20
1386.0
 10
1451.0
 20
1385.0
 10
1526.0
 20
1385.0
 10
1527.0
 20
1386.0
 10
1528.0
 20
1385.0
 10
1534.0
 20
1385.0
 10
1535.0
 20
1386.0
 10
1535.0
 20
1515.0
 10
1534.0
 20
1516.0
 10
1510.0
 20
1516.0
 10
1509.0
 20
1515.0
 10
1505.0
 20
1515.0
 10
1504.0
 20
1516.0
 10
1503.0
 20
1515.0
 10
1499.0
 20
1515.0
 10
1498.0
 20
1516.0
 10
1473.0
 20
1516.0
 10
1472.0
 20
1515.0
 10
1468.0
 20
1515.0
 10
1467.0
 20
1516.0
 10
1429.0
 20
1516.0
 10
1428.0
 20
1515.0
 10
1410.0
 20
1515.0
 10
1409.0
 20
1516.0
 10
1365.0
 20
1516.0
 10
1364.0
 20
1517.0
 10
1363.0
 20
1516.0
 10
1329.0
 20
1516.0
 10
1328.0
 20
1517.0
 10
1322.0
 20
1517.0
 10
1321.0
 20
1518.0
 10
1319.0
 20
1518.0
 10
1318.0
 20
1517.0
 10
1311.0
 20
1517.0
 10
1310.0
 20
1518.0
 10
1297.0
 20
1518.0
 10
1296.0
 20
1519.0
 10
1271.0
 20
1519.0
 10
1270.0
 20
1520.0
 10
1257.0
 20
1520.0
 10
1256.0
 20
1521.0
 10
1235.0
 20
1521.0
 10
1234.0
 20
1520.0
 10
1229.0
 20
1520.0
 10
1228.0
 20
1519.0
 10
1219.0
 20
1519.0
 10
1218.0
 20
1520.0
 10
1217.0
 20
1519.0
 10
1189.0
 20
1519.0
 10
1188.0
 20
1518.0
 10
1169.0
 20
1518.0
 10
1168.0
 20
1517.0
 10
1145.0
 20
1517.0
 10
1144.0
 20
1518.0
 10
1137.0
 20
1518.0
 10
1136.0
 20
1517.0
 10
1119.0
 20
1517.0
 10
1118.0
 20
1518.0
 10
1103.0
 20
1518.0
 10
1102.0
 20
1519.0
 10
1073.0
 20
1519.0
 10
1072.0
 20
1518.0
 10
1054.0
 20
1518.0
 10
1053.0
 20
1517.0
 10
1050.0
 20
1517.0
 10
1049.0
 20
1516.0
 10
1047.0
 20
1516.0
 10
1046.0
 20
1517.0
 10
1044.0
 20
1517.0
 10
1043.0
 20
1516.0
 10
1041.0
 20
1516.0
 10
1040.0
 20
1517.0
 10
1016.0
 20
1517.0
 10
1015.0
 20
1518.0
 10
985.0
 20
1518.0
 10
984.0
 20
1519.0
 10
952.0
 20
1519.0
 10
951.0
 20
1520.0
 10
947.0
 20
1520.0
 10
946.0
 20
1519.0
 10
935.0
 20
1519.0
 10
934.0
 20
1520.0
 10
919.0
 20
1520.0
 10
918.0
 20
1521.0
 10
908.0
 20
1521.0
 10
907.0
 20
1520.0
 10
904.0
 20
1520.0
 10
903.0
 20
1521.0
 10
902.0
 20
1520.0
 10
882.0
 20
1520.0
 10
881.0
 20
1521.0
 10
867.0
 20
1521.0
 10
866.0
 20
1520.0
 10
850.0
 20
1520.0
 10
849.0
 20
1521.0
 10
799.0
 20
1521.0
 10
798.0
 20
1522.0
 10
771.0
 20
1522.0
 10
770.0
 20
1523.0
 10
768.0
 20
1523.0
 10
767.0
 20
1522.0
 10
759.0
 20
1522.0
 10
758.0
 20
1523.0
 10
719.0
 20
1523.0
 10
718.0
 20
1524.0
 10
712.0
 20
1524.0
 10
711.0
 20
1523.0
 10
667.0
 20
1523.0
 10
666.0
 20
1524.0
 10
620.0
 20
1524.0
 10
619.0
 20
1525.0
 10
609.0
 20
1525.0
 10
608.0
 20
1524.0
 10
598.0
 20
1524.0
 10
597.0
 20
1523.0
 10
590.0
 20
1523.0
 10
589.0
 20
1524.0
 10
564.0
 20
1524.0
 10
563.0
 20
1523.0
 10
561.0
 20
1523.0
 10
560.0
 20
1524.0
 10
559.0
 20
1523.0
 10
557.0
 20
1523.0
 10
556.0
 20
1524.0
 10
555.0
 20
1523.0
 10
548.0
 20
1523.0
 10
547.0
 20
1524.0
 10
543.0
 20
1524.0
 10
542.0
 20
1523.0
 10
538.0
 20
1523.0
 10
537.0
 20
1522.0
 10
520.0
 20
1522.0
 10
519.0
 20
1521.0
 10
517.0
 20
1521.0
 10
516.0
 20
1522.0
 10
471.0
 20
1522.0
 10
470.0
 20
1521.0
 10
464.0
 20
1521.0
 10
463.0
 20
1522.0
 10
454.0
 20
1522.0
 10
453.0
 20
1523.0
 10
446.0
 20
1523.0
 10
445.0
 20
1524.0
 10
437.0
 20
1524.0
 10
436.0
 20
1525.0
 10
421.0
 20
1525.0
 10
420.0
 20
1526.0
 10
409.0
 20
1526.0
 10
408.0
 20
1527.0
 10
399.0
 20
1527.0
 10
398.0
 20
1528.0
 10
398.0
 20
1530.0
  0
LWPOLYLINE
  5
741
330
17
100
AcDbEntity
  8
0
100
AcDbPolyline
 90
643
 70
0
 10
363.0
 20
1536.0
 10
363.0
 20
1532.0
 10
364.0
 20
1531.0
 10
364.0
 20
1507.0
 10
365.0
 20
1506.0
 10
365.0
 20
1502.0
 10
364.0
 20
1501.0
 10
364.0
 20
1498.0
 10
365.0
 20
1497.0
 10
365.0
 20
1482.0
 10
366.0
 20
1481.0
 10
366.0
 20
1474.0
 10
365.0
 20
1473.0
 10
365.0
 20
1449.0
 10
366.0
 20
1448.0
 10
366.0
 20
1442.0
 10
365.0
 20
1441.0
 10
365.0
 20
1440.0
 10
366.0
 20
1439.0
 10
366.0
 20
1402.0
 10
367.0
 20
1401.0
 10
367.0
 20
1394.0
 10
366.0
 20
1393.0
 10
366.0
 20
1383.0
 10
367.0
 20
1382.0
 10
367.0
 20
1326.0
 10
368.0
 20
1325.0
 10
368.0
 20
1268.0
 10
369.0
 20
1267.0
 10
369.0
 20
1264.0
 10
368.0
 20
1263.0
 10
368.0
 20
1247.0
 10
369.0
 20
1246.0
 10
369.0
 20
1232.0
 10
368.0
 20
1231.0
 10
368.0
 20
1228.0
 10
369.0
 20
1227.0
 10
369.0
 20
1211.0
 10
370.0
 20
1210.0
 10
370.0
 20
1200.0
 10
369.0
 20
1199.0
 10
369.0
 20
1186.0
 10
370.0
 20
1185.0
 10
370.0
 20
1139.0
 10
369.0
 20
1138.0
 10
369.0
 20
1136.0
 10
370.0
 20
1135.0
 10
370.0
 20
1106.0
 10
371.0
 20
1105.0
 10
371.0
 20
1096.0
 10
370.0
 20
1095.0
 10
370.0
 20
1085.0
 10
371.0
 20
1084.0
 10
371.0
 20
1059.0
 10
370.0
 20
1058.0
 10
370.0
 20
1057.0
 10
371.0
 20
1056.0
 10
371.0
 20
976.0
 10
370.0
 20
975.0
 10
371.0
 20
974.0
 10
371.0
 20
973.0
 10
372.0
 20
972.0
 10
372.0
 20
961.0
 10
371.0
 20
960.0
 10
371.0
 20
955.0
 10
372.0
 20
954.0
 10
372.0
 20
953.0
 10
374.0
 20
953.0
 10
374.0
 20
955.0
 10
375.0
 20
956.0
 10
375.0
 20
962.0
 10
374.0
 20
963.0
 10
374.0
 20
971.0
 10
373.0
 20
970.0
 10
372.0
 20
971.0
 10
372.0
 20
973.0
 10
370.0
 20
975.0
 10
371.0
 20
976.0
 10
371.0
 20
1056.0
 10
370.0
 20
1057.0
 10
370.0
 20
1058.0
 10
371.0
 20
1059.0
 10
371.0
 20
1084.0
 10
370.0
 20
1085.0
 10
370.0
 20
1095.0
 10
371.0
 20
1096.0
 10
371.0
 20
1105.0
 10
370.0
 20
1106.0
 10
370.0
 20
1135.0
 10
369.0
 20
1136.0
 10
369.0
 20
1138.0
 10
370.0
 20
1139.0
 10
370.0
 20
1185.0
 10
369.0
 20
1186.0
 10
369.0
 20
1199.0
 10
370.0
 20
1200.0
 10
370.0
 20
1210.0
 10
369.0
 20
1211.0
 10
369.0
 20
1227.0
 10
368.0
 20
1228.0
 10
368.0
 20
1231.0
 10
369.0
 20
1232.0
 10
369.0
 20
1246.0
 10
368.0
 20
1247.0
 10
368.0
 20
1263.0
 10
369.0
 20
1264.0
 10
369.0
 20
1267.0
 10
368.0
 20
1268.0
 10
368.0
 20
1325.0
 10
367.0
 20
1326.0
 10
367.0
 20
1382.0
 10
366.0
 20
1383.0
 10
366.0
 20
1393.0
 10
367.0
 20
1394.0
 10
367.0
 20
1401.0
 10
366.0
 20
1402.0
 10
366.0
 20
1439.0
 10
365.0
 20
1440.0
 10
365.0
 20
1441.0
 10
366.0
 20
1442.0
 10
366.0
 20
1448.0
 10
365.0
 20
1449.0
 10
365.0
 20
1473.0
 10
366.0
 20
1474.0
 10
366.0
 20
1481.0
 10
365.0
 20
1482.0
 10
365.0
 20
1497.0
 10
364.0
 20
1498.0
 10
364.0
 20
1501.0
 10
365.0
 20
1502.0
 10
365.0
 20
1506.0
 10
364.0
 20
1507.0
 10
364.0
 20
1531.0
 10
363.0
 20
1532.0
 10
363.0
 20
1535.0
 10
364.0
 20
1536.0
 10
368.0
 20
1536.0
 10
369.0
 20
1535.0
 10
399.0
 20
1535.0
 10
400.0
 20
1534.0
 10
407.0
 20
1534.0
 10
408.0
 20
1533.0
 10
417.0
 20
1533.0
 10
418.0
 20
1532.0
 10
430.0
 20
1532.0
 10
431.0
 20
1531.0
 10
435.0
 20
1531.0
 10
436.0
 20
1530.0
 10
449.0
 20
1530.0
 10
450.0
 20
1529.0
 10
456.0
 20
1529.0
 10
457.0
 20
1528.0
 10
482.0
 20
1528.0
 10
483.0
 20
1529.0
 10
491.0
 20
1529.0
 10
492.0
 20
1528.0
 10
493.0
 20
1529.0
 10
494.0
 20
1528.0
 10
495.0
 20
1529.0
 10
501.0
 20
1529.0
 10
502.0
 20
1530.0
 10
506.0
 20
1530.0
 10
507.0
 20
1529.0
 10
509.0
 20
1529.0
 10
510.0
 20
1528.0
 10
514.0
 20
1528.0
 10
516.0
 20
1530.0
 10
524.0
 20
1530.0
 10
525.0
 20
1529.0
 10
531.0
 20
1529.0
 10
532.0
 20
1530.0
 10
551.0
 20
1530.0
 10
552.0
 20
1531.0
 10
564.0
 20
1531.0
 10
565.0
 20
1530.0
 10
576.0
 20
1530.0
 10
577.0
 20
1529.0
 10
595.0
 20
1529.0
 10
596.0
 20
1530.0
 10
609.0
 20
1530.0
 10
610.0
 20
1531.0
 10
615.0
 20
1531.0
 10
616.0
 20
1530.0
 10
618.0
 20
1530.0
 10
619.0
 20
1531.0
 10
624.0
 20
1531.0
 10
626.0
 20
1529.0
 10
634.0
 20
1529.0
 10
635.0
 20
1530.0
 10
636.0
 20
1529.0
 10
658.0
 20
1529.0
 10
659.0
 20
1530.0
 10
660.0
 20
1529.0
 10
674.0
 20
1529.0
 10
675.0
 20
1530.0
 10
676.0
 20
1530.0
 10
677.0
 20
1529.0
 10
680.0
 20
1529.0
 10
681.0
 20
1528.0
 10
720.0
 20
1528.0
 10
722.0
 20
1530.0
 10
728.0
 20
1530.0
 10
729.0
 20
1529.0
 10
730.0
 20
1529.0
 10
731.0
 20
1528.0
 10
744.0
 20
1528.0
 10
745.0
 20
1529.0
 10
751.0
 20
1529.0
 10
752.0
 20
1528.0
 10
766.0
 20
1528.0
 10
767.0
 20
1527.0
 10
782.0
 20
1527.0
 10
783.0
 20
1528.0
 10
789.0
 20
1528.0
 10
790.0
 20
1527.0
 10
796.0
 20
1527.0
 10
797.0
 20
1528.0
 10
844.0
 20
1528.0
 10
846.0
 20
1526.0
 10
850.0
 20
1526.0
 10
851.0
 20
1527.0
 10
852.0
 20
1527.0
 10
853.0
 20
1526.0
 10
860.0
 20
1526.0
 10
861.0
 20
1527.0
 10
864.0
 20
1527.0
 10
865.0
 20
1528.0
 10
882.0
 20
1528.0
 10
883.0
 20
1527.0
 10
893.0
 20
1527.0
 10
895.0
 20
1525.0
 10
897.0
 20
1525.0
 10
898.0
 20
1526.0
 10
899.0
 20
1526.0
 10
900.0
 20
1527.0
 10
902.0
 20
1527.0
 10
903.0
 20
1526.0
 10
918.0
 20
1526.0
 10
919.0
 20
1527.0
 10
920.0
 20
1527.0
 10
921.0
 20
1526.0
 10
927.0
 20
1526.0
 10
928.0
 20
1525.0
 10
941.0
 20
1525.0
 10
942.0
 20
1526.0
 10
966.0
 20
1526.0
 10
967.0
 20
1525.0
 10
979.0
 20
1525.0
 10
981.0
 20
1523.0
 10
987.0
 20
1523.0
 10
989.0
 20
1525.0
 10
1027.0
 20
1525.0
 10
1030.0
 20
1522.0
 10
1032.0
 20
1522.0
 10
1034.0
 20
1524.0
 10
1040.0
 20
1524.0
 10
1041.0
 20
1525.0
 10
1046.0
 20
1525.0
 10
1047.0
 20
1524.0
 10
1050.0
 20
1524.0
 10
1051.0
 20
1525.0
 10
1067.0
 20
1525.0
 10
1068.0
 20
1524.0
 10
1111.0
 20
1524.0
 10
1112.0
 20
1523.0
 10
1122.0
 20
1523.0
 10
1123.0
 20
1524.0
 10
1164.0
 20
1524.0
 10
1165.0
 20
1525.0
 10
1169.0
 20
1525.0
 10
1170.0
 20
1524.0
 10
1171.0
 20
1524.0
 10
1172.0
 20
1523.0
 10
1172.0
 20
1522.0
 10
1173.0
 20
1523.0
 10
1174.0
 20
1522.0
 10
1174.0
 20
1523.0
 10
1175.0
 20
1524.0
 10
1176.0
 20
1524.0
 10
1177.0
 20
1525.0
 10
1206.0
 20
1525.0
 10
1207.0
 20
1526.0
 10
1230.0
 20
1526.0
 10
1231.0
 20
1527.0
 10
1232.0
 20
1526.0
 10
1236.0
 20
1526.0
 10
1237.0
 20
1527.0
 10
1238.0
 20
1527.0
 10
1239.0
 20
1526.0
 10
1243.0
 20
1526.0
 10
1244.0
 20
1527.0
 10
1246.0
 20
1527.0
 10
1247.0
 20
1526.0
 10
1254.0
 20
1526.0
 10
1255.0
 20
1527.0
 10
1268.0
 20
1527.0
 10
1269.0
 20
1526.0
 10
1287.0
 20
1526.0
 10
1288.0
 20
1525.0
 10
1298.0
 20
1525.0
 10
1299.0
 20
1524.0
 10
1315.0
 20
1524.0
 10
1316.0
 20
1523.0
 10
1324.0
 20
1523.0
 10
1325.0
 20
1524.0
 10
1326.0
 20
1523.0
 10
1330.0
 20
1523.0
 10
1331.0
 20
1524.0
 10
1336.0
 20
1524.0
 10
1337.0
 20
1523.0
 10
1338.0
 20
1524.0
 10
1339.0
 20
1523.0
 10
1340.0
 20
1524.0
 10
1341.0
 20
1523.0
 10
1349.0
 20
1523.0
 10
1350.0
 20
1524.0
 10
1351.0
 20
1523.0
 10
1363.0
 20
1523.0
 10
1364.0
 20
1522.0
 10
1373.0
 20
1522.0
 10
1374.0
 20
1523.0
 10
1389.0
 20
1523.0
 10
1390.0
 20
1524.0
 10
1391.0
 20
1524.0
 10
1392.0
 20
1523.0
 10
1434.0
 20
1523.0
 10
1435.0
 20
1524.0
 10
1436.0
 20
1523.0
 10
1437.0
 20
1523.0
 10
1438.0
 20
1522.0
 10
1442.0
 20
1522.0
 10
1443.0
 20
1523.0
 10
1478.0
 20
1523.0
 10
1479.0
 20
1522.0
 10
1487.0
 20
1522.0
 10
1488.0
 20
1523.0
 10
1518.0
 20
1523.0
 10
1519.0
 20
1524.0
 10
1520.0
 20
1523.0
 10
1531.0
 20
1523.0
 10
1532.0
 20
1522.0
 10
1534.0
 20
1522.0
 10
1538.0
 20
1526.0
 10
1539.0
 20
1525.0
 10
1562.0
 20
1525.0
 10
1563.0
 20
1524.0
 10
1564.0
 20
1524.0
 10
1566.0
 20
1522.0
 10
1566.0
 20
1197.0
 10
1565.0
 20
1196.0
 10
1566.0
 20
1195.0
 10
1566.0
 20
1169.0
 10
1565.0
 20
1168.0
 10
1565.0
 20
1167.0
 10
1566.0
 20
1166.0
 10
1566.0
 20
1146.0
 10
1565.0
 20
1145.0
 10
1565.0
 20
1144.0
 10
1566.0
 20
1143.0
 10
1566.0
 20
1129.0
 10
1565.0
 20
1128.0
 10
1565.0
 20
1127.0
 10
1566.0
 20
1126.0
 10
1566.0
 20
1120.0
 10
1565.0
 20
1119.0
 10
1565.0
 20
1116.0
 10
1566.0
 20
1115.0
 10
1566.0
 20
1108.0
 10
1565.0
 20
1107.0
 10
1565.0
 20
1102.0
 10
1566.0
 20
1101.0
 10
1566.0
 20
862.0
 10
1567.0
 20
861.0
 10
1567.0
 20
854.0
 10
1568.0
 20
853.0
 10
1568.0
 20
850.0
 10
1567.0
 20
849.0
 10
1567.0
 20
840.0
 10
1568.0
 20
839.0
 10
1568.0
 20
834.0
 10
1567.0
 20
833.0
 10
1567.0
 20
823.0
 10
1567.0
 20
833.0
 10
1568.0
 20
834.0
 10
1568.0
 20
839.0
 10
1567.0
 20
840.0
 10
1567.0
 20
849.0
 10
1568.0
 20
850.0
 10
1568.0
 20
853.0
 10
1567.0
 20
854.0
 10
1567.0
 20
861.0
 10
1566.0
 20
862.0
 10
1566.0
 20
1101.0
 10
1565.0
 20
1102.0
 10
1565.0
 20
1107.0
 10
1566.0
 20
1108.0
 10
1566.0
 20
1115.0
 10
1565.0
 20
1116.0
 10
1565.0
 20
1119.0
 10
1566.0
 20
1120.0
 10
1566.0
 20
1126.0
 10
1565.0
 20
1127.0
 10
1565.0
 20
1128.0
 10
1566.0
 20
1129.0
 10
1566.0
 20
1143.0
 10
1565.0
 20
1144.0
 10
1565.0
 20
1145.0
 10
1566.0
 20
1146.0
 10
1566.0
 20
1166.0
 10
1565.0
 20
1167.0
 10
1565.0
 20
1168.0
 10
1566.0
 20
1169.0
 10
1566.0
 20
1195.0
 10
1565.0
 20
1196.0
 10
1566.0
 20
1197.0
 10
1566.0
 20
1523.0
 10
1565.0
 20
1523.0
 10
1564.0
 20
1524.0
 10
1563.0
 20
1524.0
 10
1562.0
 20
1525.0
 10
1539.0
 20
1525.0
 10
1538.0
 20
1526.0
 10
1537.0
 20
1525.0
 10
1536.0
 20
1525.0
 10
1535.0
 20
1524.0
 10
1535.0
 20
1523.0
 10
1534.0
 20
1522.0
 10
1532.0
 20
1522.0
 10
1531.0
 20
1523.0
 10
1520.0
 20
1523.0
 10
1519.0
 20
1524.0
 10
1518.0
 20
1523.0
 10
1488.0
 20
1523.0
 10
1487.0
 20
1522.0
 10
1479.0
 20
1522.0
 10
1478.0
 20
1523.0
 10
1443.0
 20
1523.0
 10
1442.0
 20
1522.0
 10
1438.0
 20
1522.0
 10
1437.0
 20
1523.0
 10
1436.0
 20
1523.0
 10
1435.0
 20
1524.0
 10
1434.0
 20
1523.0
 10
1392.0
 20
1523.0
 10
1391.0
 20
1524.0
 10
1390.0
 20
1524.0
 10
1389.0
 20
1523.0
 10
1374.0
 20
1523.0
 10
1373.0
 20
1522.0
 10
1364.0
 20
1522.0
 10
1363.0
 20
1523.0
 10
1351.0
 20
1523.0
 10
1350.0
 20
1524.0
 10
1349.0
 20
1523.0
 10
1341.0
 20
1523.0
 10
1340.0
 20
1524.0
 10
1339.0
 20
1523.0
 10
1338.0
 20
1524.0
 10
1337.0
 20
1523.0
 10
1336.0
 20
1524.0
 10
1331.0
 20
1524.0
 10
1330.0
 20
1523.0
 10
1326.0
 20
1523.0
 10
1325.0
 20
1524.0
 10
1324.0
 20
1523.0
 10
1316.0
 20
1523.0
 10
1315.0
 20
1524.0
 10
1299.0
 20
1524.0
 10
1298.0
 20
1525.0
 10
1288.0
 20
1525.0
 10
1287.0
 20
1526.0
 10
1269.0
 20
1526.0
 10
1268.0
 20
1527.0
 10
1255.0
 20
1527.0
 10
1254.0
 20
1526.0
 10
1247.0
 20
1526.0
 10
1246.0
 20
1527.0
 10
1244.0
 20
1527.0
 10
1243.0
 20
1526.0
 10
1239.0
 20
1526.0
 10
1238.0
 20
1527.0
 10
1237.0
 20
1527.0
 10
1236.0
 20
1526.0
 10
1232.0
 20
1526.0
 10
1231.0
 20
1527.0
 10
1230.0
 20
1526.0
 10
1207.0
 20
1526.0
 10
1206.0
 20
1525.0
 10
1177.0
 20
1525.0
 10
1176.0
 20
1524.0
 10
1175.0
 20
1524.0
 10
1174.0
 20
1523.0
 10
1172.0
 20
1523.0
 10
1171.0
 20
1524.0
 10
1170.0
 20
1524.0
 10
1169.0
 20
1525.0
 10
1165.0
 20
1525.0
 10
1164.0
 20
1524.0
 10
1123.0
 20
1524.0
 10
1122.0
 20
1523.0
 10
1112.0
 20
1523.0
 10
1111.0
 20
1524.0
 10
1068.0
 20
1524.0
 10
1067.0
 20
1525.0
 10
1051.0
 20
1525.0
 10
1050.0
 20
1524.0
 10
1047.0
 20
1524.0
 10
1046.0
 20
1525.0
 10
1041.0
 20
1525.0
 10
1040.0
 20
1524.0
 10
1033.0
 20
1524.0
 10
1033.0
 20
1523.0
 10
1032.0
 20
1522.0
 10
1030.0
 20
1522.0
 10
1029.0
 20
1523.0
 10
1029.0
 20
1524.0
 10
1028.0
 20
1524.0
 10
1027.0
 20
1525.0
 10
989.0
 20
1525.0
 10
988.0
 20
1524.0
 10
987.0
 20
1524.0
 10
986.0
 20
1523.0
 10
982.0
 20
1523.0
 10
981.0
 20
1524.0
 10
980.0
 20
1524.0
 10
979.0
 20
1525.0
 10
967.0
 20
1525.0
 10
966.0
 20
1526.0
 10
942.0
 20
1526.0
 10
941.0
 20
1525.0
 10
928.0
 20
1525.0
 10
927.0
 20
1526.0
 10
921.0
 20
1526.0
 10
920.0
 20
1527.0
 10
919.0
 20
1527.0
 10
918.0
 20
1526.0
 10
903.0
 20
1526.0
 10
902.0
 20
1527.0
 10
900.0
 20
1527.0
 10
899.0
 20
1526.0
 10
898.0
 20
1526.0
 10
897.0
 20
1525.0
 10
895.0
 20
1525.0
 10
893.0
 20
1527.0
 10
883.0
 20
1527.0
 10
882.0
 20
1528.0
 10
865.0
 20
1528.0
 10
864.0
 20
1527.0
 10
861.0
 20
1527.0
 10
860.0
 20
1526.0
 10
853.0
 20
1526.0
 10
852.0
 20
1527.0
 10
851.0
 20
1527.0
 10
850.0
 20
1526.0
 10
846.0
 20
1526.0
 10
844.0
 20
1528.0
 10
797.0
 20
1528.0
 10
796.0
 20
1527.0
 10
790.0
 20
1527.0
 10
789.0
 20
1528.0
 10
783.0
 20
1528.0
 10
782.0
 20
1527.0
 10
767.0
 20
1527.0
 10
766.0
 20
1528.0
 10
752.0
 20
1528.0
 10
751.0
 20
1529.0
 10
745.0
 20
1529.0
 10
744.0
 20
1528.0
 10
731.0
 20
1528.0
 10
730.0
 20
1529.0
 10
729.0
 20
1529.0
 10
728.0
 20
1530.0
 10
722.0
 20
1530.0
 10
721.0
 20
1529.0
 10
720.0
 20
1529.0
 10
719.0
 20
1528.0
 10
681.0
 20
1528.0
 10
680.0
 20
1529.0
 10
677.0
 20
1529.0
 10
676.0
 20
1530.0
 10
675.0
 20
1530.0
 10
674.0
 20
1529.0
 10
660.0
 20
1529.0
 10
659.0
 20
1530.0
 10
658.0
 20
1529.0
 10
636.0
 20
1529.0
 10
635.0
 20
1530.0
 10
634.0
 20
1529.0
 10
627.0
 20
1529.0
 10
626.0
 20
1530.0
 10
625.0
 20
1530.0
 10
624.0
 20
1531.0
 10
619.0
 20
1531.0
 10
618.0
 20
1530.0
 10
616.0
 20
1530.0
 10
615.0
 20
1531.0
 10
610.0
 20
1531.0
 10
609.0
 20
1530.0
 10
596.0
 20
1530.0
 10
595.0
 20
1529.0
 10
577.0
 20
1529.0
 10
576.0
 20
1530.0
 10
565.0
 20
1530.0
 10
564.0
 20
1531.0
 10
552.0
 20
1531.0
 10
551.0
 20
1530.0
 10
532.0
 20
1530.0
 10
531.0
 20
1529.0
 10
525.0
 20
1529.0
 10
524.0
 20
1530.0
 10
516.0
 20
1530.0
 10
515.0
 20
1529.0
 10
514.0
 20
1529.0
 10
513.0
 20
1528.0
 10
510.0
 20
1528.0
 10
509.0
 20
1529.0
 10
507.0
 20
1529.0
 10
506.0
 20
1530.0
 10
502.0
 20
1530.0
 10
501.0
 20
1529.0
 10
495.0
 20
1529.0
 10
494.0
 20
1528.0
 10
493.0
 20
1529.0
 10
492.0
 20
1528.0
 10
491.0
 20
1529.0
 10
483.0
 20
1529.0
 10
482.0
 20
1528.0
 10
457.0
 20
1528.0
 10
456.0
 20
1529.0
 10
450.0
 20
1529.0
 10
449.0
 20
1530.0
 10
436.0
 20
1530.0
 10
435.0
 20
1531.0
 10
431.0
 20
1531.0
 10
430.0
 20
1532.0
 10
418.0
 20
1532.0
 10
417.0
 20
1533.0
 10
408.0
 20
1533.0
 10
407.0
 20
1534.0
 10
400.0
 20
1534.0
 10
399.0
 20
1535.0
 10
369.0
 20
1535.0
 10
368.0
 20
1536.0
  0
LWPOLYLINE
  5
742
330
17
100
AcDbEntity
  8
0
100
AcDbPolyline
 90
101
 70
0
 10
1559.0
 20
1693.0
 10
1557.0
 20
1691.0
 10
1557.0
 20
1690.0
 10
1556.0
 20
1689.0
 10
1556.0
 20
1688.0
 10
1557.0
 20
1687.0
 10
1557.0
 20
1686.0
 10
1558.0
 20
1685.0
 10
1558.0
 20
1682.0
 10
1559.0
 20
1681.0
 10
1559.0
 20
1678.0
 10
1556.0
 20
1675.0
 10
1552.0
 20
1675.0
 10
1551.0
 20
1676.0
 10
1550.0
 20
1675.0
 10
1543.0
 20
1675.0
 10
1542.0
 20
1676.0
 10
1537.0
 20
1676.0
 10
1536.0
 20
1677.0
 10
1537.0
 20
1676.0
 10
1542.0
 20
1676.0
 10
1543.0
 20
1675.0
 10
1550.0
 20
1675.0
 10
1551.0
 20
1676.0
 10
1552.0
 20
1675.0
 10
1557.0
 20
1675.0
 10
1559.0
 20
1677.0
 10
1559.0
 20
1681.0
 10
1558.0
 20
1682.0
 10
1558.0
 20
1685.0
 10
1557.0
 20
1686.0
 10
1557.0
 20
1687.0
 10
1556.0
 20
1688.0
 10
1556.0
 20
1689.0
 10
1560.0
 20
1693.0
 10
1564.0
 20
1693.0
 10
1567.0
 20
1690.0
 10
1567.0
 20
1686.0
 10
1566.0
 20
1685.0
 10
1566.0
 20
1679.0
 10
1567.0
 20
1678.0
 10
1567.0
 20
1677.0
 10
1568.0
 20
1676.0
 10
1568.0
 20
1675.0
 10
1569.0
 20
1675.0
 10
1570.0
 20
1674.0
 10
1570.0
 20
1673.0
 10
1566.0
 20
1669.0
 10
1566.0
 20
1668.0
 10
1565.0
 20
1667.0
 10
1562.0
 20
1667.0
 10
1561.0
 20
1668.0
 10
1560.0
 20
1668.0
 10
1559.0
 20
1669.0
 10
1559.0
 20
1670.0
 10
1560.0
 20
1671.0
 10
1561.0
 20
1670.0
 10
1562.0
 20
1670.0
 10
1561.0
 20
1670.0
 10
1560.0
 20
1671.0
 10
1561.0
 20
1672.0
 10
1562.0
 20
1672.0
 10
1561.0
 20
1672.0
 10
1559.0
 20
1670.0
 10
1557.0
 20
1672.0
 10
1556.0
 20
1672.0
 10
1555.0
 20
1673.0
 10
1550.0
 20
1673.0
 10
1555.0
 20
1673.0
 10
1560.0
 20
1668.0
 10
1561.0
 20
1668.0
 10
1563.0
 20
1666.0
 10
1563.0
 20
1661.0
 10
1562.0
 20
1660.0
 10
1562.0
 20
1636.0
 10
1563.0
 20
1635.0
 10
1565.0
 20
1635.0
 10
1565.0
 20
1654.0
 10
1565.0
 20
1636.0
 10
1564.0
 20
1635.0
 10
1563.0
 20
1635.0
 10
1562.0
 20
1636.0
 10
1562.0
 20
1660.0
 10
1563.0
 20
1661.0
 10
1563.0
 20
1666.0
 10
1564.0
 20
1667.0
 10
1565.0
 20
1666.0
 10
1565.0
 20
1664.0
 10
1565.0
 20
1667.0
 10
1570.0
 20
1672.0
 10
1570.0
 20
1674.0
 10
1567.0
 20
1677.0
 10
1567.0
 20
1678.0
 10
1566.0
 20
1679.0
 10
1566.0
 20
1684.0
 10
1567.0
 20
1685.0
 10
1567.0
 20
1690.0
 10
1566.0
 20
1691.0
 10
1566.0
 20
1692.0
 10
1565.0
 20
1692.0
 10
1564.0
 20
1693.0
  0
LWPOLYLINE
  5
743
330
17
100
AcDbEntity
  8
0
100
AcDbPolyline
 90
109
 70
0
 10
390.0
 20
1713.0
 10
389.0
 20
1712.0
 10
389.0
 20
1711.0
 10
388.0
 20
1710.0
 10
388.0
 20
1707.0
 10
389.0
 20
1706.0
 10
389.0
 20
1692.0
 10
388.0
 20
1691.0
 10
386.0
 20
1691.0
 10
385.0
 20
1690.0
 10
384.0
 20
1690.0
 10
382.0
 20
1688.0
 10
376.0
 20
1688.0
 10
375.0
 20
1689.0
 10
374.0
 20
1689.0
 10
373.0
 20
1690.0
 10
368.0
 20
1690.0
 10
367.0
 20
1691.0
 10
366.0
 20
1691.0
 10
362.0
 20
1695.0
 10
358.0
 20
1695.0
 10
357.0
 20
1694.0
 10
356.0
 20
1694.0
 10
353.0
 20
1691.0
 10
352.0
 20
1691.0
 10
351.0
 20
1690.0
 10
350.0
 20
1691.0
 10
346.0
 20
1691.0
 10
345.0
 20
1692.0
 10
334.0
 20
1692.0
 10
333.0
 20
1693.0
 10
317.0
 20
1693.0
 10
316.0
 20
1694.0
 10
313.0
 20
1694.0
 10
312.0
 20
1695.0
 10
311.0
 20
1694.0
 10
309.0
 20
1694.0
 10
308.0
 20
1693.0
 10
308.0
 20
1692.0
 10
308.0
 20
1693.0
 10
309.0
 20
1694.0
 10
311.0
 20
1694.0
 10
312.0
 20
1695.0
 10
313.0
 20
1694.0
 10
316.0
 20
1694.0
 10
317.0
 20
1693.0
 10
333.0
 20
1693.0
 10
334.0
 20
1692.0
 10
345.0
 20
1692.0
 10
346.0
 20
1691.0
 10
350.0
 20
1691.0
 10
351.0
 20
1690.0
 10
351.0
 20
1689.0
 10
350.0
 20
1688.0
 10
349.0
 20
1688.0
 10
351.0
 20
1688.0
 10
351.0
 20
1690.0
 10
352.0
 20
1691.0
 10
353.0
 20
1690.0
 10
353.0
 20
1688.0
 10
354.0
 20
1687.0
 10
354.0
 20
1686.0
 10
357.0
 20
1683.0
 10
358.0
 20
1683.0
 10
359.0
 20
1682.0
 10
363.0
 20
1682.0
 10
368.0
 20
1687.0
 10
374.0
 20
1687.0
 10
375.0
 20
1688.0
 10
383.0
 20
1688.0
 10
386.0
 20
1691.0
 10
388.0
 20
1691.0
 10
389.0
 20
1692.0
 10
390.0
 20
1692.0
 10
392.0
 20
1690.0
 10
392.0
 20
1689.0
 10
394.0
 20
1687.0
 10
401.0
 20
1687.0
 10
402.0
 20
1686.0
 10
407.0
 20
1686.0
 10
408.0
 20
1685.0
 10
419.0
 20
1685.0
 10
420.0
 20
1684.0
 10
422.0
 20
1684.0
 10
423.0
 20
1683.0
 10
429.0
 20
1683.0
 10
423.0
 20
1683.0
 10
422.0
 20
1684.0
 10
420.0
 20
1684.0
 10
419.0
 20
1685.0
 10
408.0
 20
1685.0
 10
407.0
 20
1686.0
 10
402.0
 20
1686.0
 10
401.0
 20
1687.0
 10
395.0
 20
1687.0
 10
391.0
 20
1691.0
 10
391.0
 20
1695.0
 10
391.0
 20
1693.0
 10
390.0
 20
1692.0
 10
389.0
 20
1693.0
 10
389.0
 20
1706.0
 10
388.0
 20
1707.0
 10
388.0
 20
1710.0
 10
390.0
 20
1712.0
 10
391.0
 20
1711.0
 10
391.0
 20
1706.0
 10
391.0
 20
1711.0
 10
390.0
 20
1712.0
 10
391.0
 20
1713.0
  0
ENDSEC
  0
SECTION
  2
OBJECTS
  0
DICTIONARY
  5
A
330
0
100
AcDbDictionary
280
0
281
1
  3
ACAD_COLOR
350
B
  3
ACAD_GROUP
350
C
  3
ACAD_LAYOUT
350
D
  3
ACAD_MATERIAL
350
E
  3
ACAD_MLEADERSTYLE
350
F
  3
ACAD_MLINESTYLE
350
10
  3
ACAD_PLOTSETTINGS
350
11
  3
ACAD_PLOTSTYLENAME
350
12
  3
ACAD_SCALELIST
350
14
  3
ACAD_TABLESTYLE
350
15
  3
ACAD_VISUALSTYLE
350
16
  3
EZDXF_META
350
2D
  0
DICTIONARY
  5
B
330
A
100
AcDbDictionary
280
0
281
1
  0
DICTIONARY
  5
C
330
A
100
AcDbDictionary
280
0
281
1
  0
DICTIONARY
  5
D
330
A
100
AcDbDictionary
280
0
281
1
  3
Model
350
1A
  3
Layout1
350
1E
  0
DICTIONARY
  5
E
330
A
100
AcDbDictionary
280
0
281
1
  3
ByBlock
350
1F
  3
ByLayer
350
20
  3
Global
350
21
  0
DICTIONARY
  5
F
330
A
100
AcDbDictionary
280
0
281
1
  3
Standard
350
2C
  0
DICTIONARY
  5
10
330
A
100
AcDbDictionary
280
0
281
1
  3
Standard
350
22
  0
DICTIONARY
  5
11
330
A
100
AcDbDictionary
280
0
281
1
  0
ACDBDICTIONARYWDFLT
  5
12
330
A
100
AcDbDictionary
280
0
281
1
  3
Normal
350
13
100
AcDbDictionaryWithDefault
340
13
  0
ACDBPLACEHOLDER
  5
13
330
12
  0
DICTIONARY
  5
14
330
A
100
AcDbDictionary
280
0
281
1
  0
DICTIONARY
  5
15
330
A
100
AcDbDictionary
280
0
281
1
  0
DICTIONARY
  5
16
330
A
100
AcDbDictionary
280
0
281
1
  0
LAYOUT
  5
1A
330
D
100
AcDbPlotSettings
  1

  4
A3
  6

 40
7.5
 41
20.0
 42
7.5
 43
20.0
 44
420.0
 45
297.0
 46
0.0
 47
0.0
 48
0.0
 49
0.0
140
0.0
141
0.0
142
1.0
143
1.0
 70
1024
 72
1
 73
0
 74
5
  7

 75
16
 76
0
 77
2
 78
300
147
1.0
148
0.0
149
0.0
100
AcDbLayout
  1
Model
 70
1
 71
0
 10
0.0
 20
0.0
 11
420.0
 21
297.0
 12
0.0
 22
0.0
 32
0.0
 14
1e+20
 24
1e+20
 34
1e+20
 15
-1e+20
 25
-1e+20
 35
-1e+20
146
0.0
 13
0.0
 23
0.0
 33
0.0
 16
1.0
 26
0.0
 36
0.0
 17
0.0
 27
1.0
 37
0.0
 76
1
330
17
  0
LAYOUT
  5
1E
330
D
100
AcDbPlotSettings
  1

  4
A3
  6

 40
7.5
 41
20.0
 42
7.5
 43
20.0
 44
420.0
 45
297.0
 46
0.0
 47
0.0
 48
0.0
 49
0.0
140
0.0
141
0.0
142
1.0
143
1.0
 70
0
 72
1
 73
0
 74
5
  7

 75
16
 76
0
 77
2
 78
300
147
1.0
148
0.0
149
0.0
100
AcDbLayout
  1
Layout1
 70
1
 71
1
 10
0.0
 20
0.0
 11
420.0
 21
297.0
 12
0.0
 22
0.0
 32
0.0
 14
1e+20
 24
1e+20
 34
1e+20
 15
-1e+20
 25
-1e+20
 35
-1e+20
146
0.0
 13
0.0
 23
0.0
 33
0.0
 16
1.0
 26
0.0
 36
0.0
 17
0.0
 27
1.0
 37
0.0
 76
1
330
1B
  0
MATERIAL
  5
1F
102
{ACAD_REACTORS
330
E
102
}
330
E
100
AcDbMaterial
  1
ByBlock
  2

 70
0
 40
1.0
 71
1
 41
1.0
 91
-1023410177
 42
1.0
 72
1
  3

 73
1
 74
1
 75
1
 44
0.5
 73
0
 45
1.0
 46
1.0
 77
1
  4

 78
1
 79
1
170
1
 48
1.0
171
1
  6

172
1
173
1
174
1
140
1.0
141
1.0
175
1
  7

176
1
177
1
178
1
143
1.0
179
1
  8

270
1
271
1
272
1
145
1.0
146
1.0
273
1
  9

274
1
275
1
276
1
 42
1.0
 72
1
  3

 73
1
 74
1
 75
1
 94
63
  0
MATERIAL
  5
20
102
{ACAD_REACTORS
330
E
102
}
330
E
100
AcDbMaterial
  1
ByLayer
  2

 70
0
 40
1.0
 71
1
 41
1.0
 91
-1023410177
 42
1.0
 72
1
  3

 73
1
 74
1
 75
1
 44
0.5
 73
0
 45
1.0
 46
1.0
 77
1
  4

 78
1
 79
1
170
1
 48
1.0
171
1
  6

172
1
173
1
174
1
140
1.0
141
1.0
175
1
  7

176
1
177
1
178
1
143
1.0
179
1
  8

270
1
271
1
272
1
145
1.0
146
1.0
273
1
  9

274
1
275
1
276
1
 42
1.0
 72
1
  3

 73
1
 74
1
 75
1
 94
63
  0
MATERIAL
  5
21
102
{ACAD_REACTORS
330
E
102
}
330
E
100
AcDbMaterial
  1
Global
  2

 70
0
 40
1.0
 71
1
 41
1.0
 91
-1023410177
 42
1.0
 72
1
  3

 73
1
 74
1
 75
1
 44
0.5
 73
0
 45
1.0
 46
1.0
 77
1
  4

 78
1
 79
1
170
1
 48
1.0
171
1
  6

172
1
173
1
174
1
140
1.0
141
1.0
175
1
  7

176
1
177
1
178
1
143
1.0
179
1
  8

270
1
271
1
272
1
145
1.0
146
1.0
273
1
  9

274
1
275
1
276
1
 42
1.0
 72
1
  3

 73
1
 74
1
 75
1
 94
63
  0
MLINESTYLE
  5
22
102
{ACAD_REACTORS
330
10
102
}
330
10
100
AcDbMlineStyle
  2
Standard
 70
0
  3

 62
256
 51
90.0
 52
90.0
 71
2
 49
0.5
 62
256
  6
BYLAYER
 49
-0.5
 62
256
  6
BYLAYER
  0
MLEADERSTYLE
  5
2C
102
{ACAD_REACTORS
330
F
102
}
330
F
100
AcDbMLeaderStyle
179
2
170
2
171
1
172
0
 90
2
 40
0.0
 41
0.0
173
1
 91
-1056964608
 92
-2
290
1
 42
2.0
291
1
 43
8.0
  3
Standard
 44
4.0
300

342
29
174
1
175
1
176
0
178
1
 93
-1056964608
 45
4.0
292
0
297
0
 46
4.0
 94
-1056964608
 47
1.0
 49
1.0
140
1.0
294
1
141
0.0
177
0
142
1.0
295
0
296
0
143
3.75
271
0
272
9
273
9
  0
DICTIONARY
  5
2D
330
A
100
AcDbDictionary
281
1
  3
CREATED_BY_EZDXF
350
2E
  3
WRITTEN_BY_EZDXF
350
701
  0
DICTIONARYVAR
  5
2E
330
2D
100
DictionaryVariables
280
0
  1
1.3.4 @ 2025-01-13T17:01:55.612536+00:00
  0
DICTIONARYVAR
  5
701
330
2D
100
DictionaryVariables
280
0
  1
1.3.4 @ 2025-01-13T17:01:58.073436+00:00
  0
ENDSEC
  0
EOF
